<?xml version="1.0" encoding="UTF-8" standalone="no"?>
<!-- Created with Inkscape (http://www.inkscape.org/) -->

<svg
   version="1.1"
   id="svg1"
   width="1024"
   height="1024"
   viewBox="0 0 1024 1024"
   sodipodi:docname="brand_logo.png"
   xmlns:inkscape="http://www.inkscape.org/namespaces/inkscape"
   xmlns:sodipodi="http://sodipodi.sourceforge.net/DTD/sodipodi-0.dtd"
   xmlns:xlink="http://www.w3.org/1999/xlink"
   xmlns="http://www.w3.org/2000/svg"
   xmlns:svg="http://www.w3.org/2000/svg">
  <defs
     id="defs1">
    <rect
       x="120.82137"
       y="-318.21966"
       width="602.40512"
       height="176.97778"
       id="rect6" />
    <rect
       x="151.45214"
       y="-290.99231"
       width="185.48632"
       height="74.875213"
       id="rect5" />
    <rect
       x="120.82137"
       y="-306.30769"
       width="597.29999"
       height="149.75043"
       id="rect4" />
    <rect
       x="273.97521"
       y="-267.16837"
       width="86.787179"
       height="76.576922"
       id="rect3" />
    <linearGradient
       id="linearGradient2"
       inkscape:collect="always">
      <stop
         style="stop-color:#000000;stop-opacity:1;"
         offset="0"
         id="stop2" />
      <stop
         style="stop-color:#000000;stop-opacity:0;"
         offset="1"
         id="stop3" />
    </linearGradient>
    <linearGradient
       inkscape:collect="always"
       xlink:href="#linearGradient2"
       id="linearGradient3"
       x1="102.23178"
       y1="-384.90663"
       x2="750.31861"
       y2="-384.90663"
       gradientUnits="userSpaceOnUse" />
  </defs>
  <sodipodi:namedview
     id="namedview1"
     pagecolor="#ffffff"
     bordercolor="#000000"
     borderopacity="0.25"
     inkscape:showpageshadow="2"
     inkscape:pageopacity="0.0"
     inkscape:pagecheckerboard="0"
     inkscape:deskcolor="#d1d1d1" />
  <g
     inkscape:groupmode="layer"
     inkscape:label="Image"
     id="g1">
    <image
       width="1024"
       height="1024"
       preserveAspectRatio="xMidYMid"
       style="image-rendering:optimizeQuality"
       xlink:href="file:///D:/Properties4Creations-Official/public/images/logo/brand_logo(1).png"
       id="image1"
       sodipodi:insensitive="true" />
    <g
       id="g3">
      <path
         style="fill:#785231;stroke:url(#linearGradient3);stroke-width:0.587679;stroke-opacity:1"
         d="m 103.29288,-107.63674 h 0.7045 v -552.7417 h 643.91389 v 552.7417 h 2.1135 V -662.17597 L 262.5101,-661.2772 H 142.74493 l -29.58904,-0.89805 -10.04457,2.08251 -0.58546,10.49951 0.76702,26.06424 v 105.15574 c 0,160.01083 0,286.33702 0,410.73651 m 215.5773,-544.65279 c 5.82891,13.35665 13.9504,25.43976 21.02577,37.74821 12.85815,22.36835 25.58572,44.85815 38.25126,67.40753 5.51498,9.81874 10.85421,19.79067 16.31168,29.6593 2.149,3.886 4.462,9.96853 7.75386,12.42185 5.01557,3.73794 14.6882,0.24784 20.21907,0.16435 17.36292,-0.26211 34.76985,-0.22933 52.13305,0 64.7609,0.85534 129.6456,-0.003 194.4423,-0.003 l -22.2451,-41.34347 -36.9895,-67.40752 -15.1794,-27.86178 -6.8325,-10.24289 -23.0197,-0.54231 h -54.2465 -191.62429 m -84.54012,99.76313 v -54.82479 l -21.83953,-0.0132 -7.32442,1.33707 -0.42509,25.63911 v 53.92602 l -0.41477,25.16547 -7.33474,13.48151 -18.39856,31.45684 -60.50555,106.05451 21.71994,0.79476 8.21102,-1.4619 14.14166,-23.59957 27.98979,-48.53342 61.4427,-106.05451 28.12514,-48.53341 12.38149,-21.57041 11.27963,17.97534 24.20907,41.34328 78.34149,134.9912 22.39942,38.47083 10.33487,16.15285 8.42574,0.92372 21.13501,-0.89876 c -14.7174,-30.42456 -33.48596,-58.38905 -50.10108,-87.18037 -27.3529,-47.39817 -54.19581,-95.5096 -82.49077,-142.00519 -10.76423,-17.68833 -20.5767,-36.30263 -31.40901,-53.92602 -1.99575,-3.24694 -7.91291,-16.8589 -11.45792,-16.24851 -2.26794,0.39052 -3.90204,4.24127 -5.09785,6.36208 -3.45039,6.11928 -7.20826,11.92627 -10.73059,17.97534 -13.96564,23.98387 -26.88238,50.6896 -42.60709,72.80012 m 122.58317,-96.16806 5.79421,15.63198 11.81832,-0.35295 -9.00903,11.04528 3.37302,15.91773 -11.27201,-7.69295 -10.56752,8.59172 2.43585,-15.71246 -9.48086,-9.45302 v -0.89876 l 12.2842,-2.33985 4.62382,-14.73672 m 54.95108,0 5.7942,15.63198 11.81832,-0.35295 -9.00902,11.04528 3.37302,15.91773 -11.27202,-7.69295 -10.56751,8.59172 2.43584,-15.71246 -9.48085,-9.45302 v -0.89876 l 12.28419,-2.33985 4.62383,-14.73672 m 63.40506,0 4.227,16.1778 13.3856,-0.89877 -8.9074,11.69714 3.2713,15.26587 -11.272,-7.58888 -10.5675,8.48765 3.5225,-17.07657 -10.5675,-8.08891 v -0.89876 c 3.3012,-0.0348 10.5496,0.53381 12.7838,-2.982 2.4249,-3.81613 2.1144,-9.89773 4.1242,-14.09457 m 69.0411,0 c 0.44032,2.05803 2.957,7.3134 3.86566,10.19083 0.955,3.02419 -0.30411,4.92048 1.49551,5.85692 2.9975,1.55975 8.94243,-0.76872 12.25143,-0.76872 v 0.89877 l -9.6065,11.202 3.2659,14.86224 -10.5675,-7.70052 -10.5675,8.59929 2.263,-15.19511 -10.0125,-9.97037 v -0.89876 l 13.93647,-1.06357 3.67603,-16.013 m -150.76318,44.93834 4.227,16.17781 13.38552,-0.89877 v 0.89877 c -9.8977,9.07708 -9.18558,12.14734 -5.63601,26.06424 l -11.27202,-7.82746 -10.56751,8.72623 3.5225,-17.07658 -10.56751,-8.0889 v -0.89876 l 11.7629,-1.8225 5.14513,-15.25408 m 54.95107,0 4.22701,16.17781 13.3855,-0.89877 v 0.89877 c -9.8977,9.07714 -9.1856,12.14734 -5.636,26.06424 l -11.27201,-7.82746 -10.56751,8.72623 3.5225,-17.07658 -10.56751,-8.0889 v -0.89876 l 11.7629,-1.8225 5.14512,-15.25408 m 63.40511,0 4.9315,16.17781 12.681,-0.89877 v 0.89877 l -8.9095,9.96757 3.2735,16.09667 -11.272,-7.87529 -10.5675,8.77406 3.5225,-17.07658 -10.5675,-8.98766 11.7802,-1.8225 5.1278,-15.25408 m 69.0411,0 4.227,16.17781 13.3855,-0.89877 v 0.89877 l -10.5675,8.98767 4.227,16.1778 -10.5675,-6.95085 -10.5676,7.84962 2.1815,-14.34423 -9.2264,-9.92248 v -0.89876 l 11.6737,-1.8225 5.2343,-15.25408 m -154.99024,44.93835 c 2.98957,13.97264 6.09722,15.27904 16.90803,15.27904 l -9.86302,9.88644 4.22701,16.1778 -10.56752,-8.98767 h -0.7045 l -9.86301,9.88644 1.96401,-15.19513 -9.71353,-10.86911 h 13.38553 l 4.227,-16.17781 m 54.95104,0 c 1.58383,7.40244 2.34996,13.58972 5.12791,15.57127 2.46564,1.75877 6.69674,-0.29223 11.78019,-0.29223 l -9.8631,9.88644 4.2271,16.1778 -10.5676,-8.98767 h -0.7045 l -10.5675,9.88644 c 1.0228,-4.08038 4.1567,-11.97586 2.2706,-16.01206 -2.0137,-4.30929 -6.7816,-6.14078 -9.3156,-10.05218 h 13.3855 l 4.227,-16.17781 m 63.4051,0 c 4.15564,15.25658 4.54632,18.68246 16.9081,15.27904 l -9.8631,9.88644 4.227,16.1778 -10.973,-7.514 -10.162,8.41277 2.1641,-14.3442 -9.9136,-10.82127 v -0.89877 h 13.3855 l 4.227,-16.17781 m 68.3366,0 4.227,15.27904 h 13.3856 v 0.89877 c -9.3874,8.87626 -9.0995,11.58652 -5.6361,25.16547 l -10.973,-7.56601 -10.8665,8.46478 2.5696,-15.123 -9.6146,-10.94124 12.3217,-1.44108 4.5863,-14.73673 m -324.77494,70.10383 c -6.58081,-2.48157 -14.32932,-0.95802 -21.13502,-1.16299 -1.84434,-0.0555 -5.93793,-1.09827 -7.44401,0.51042 -1.53377,1.63825 -1.00922,5.60712 -1.01,7.84271 v 20.67163 c 6.3e-4,2.35186 -0.52804,6.38904 1.12959,8.06395 3.88354,3.92398 17.21499,0.93659 22.11894,0.92373 1.90483,-0.005 4.89629,0.55898 5.91542,-2.08326 3.30005,-8.55581 -0.28769,-25.16441 0.42508,-34.76619 m 10.56752,-0.89877 v 37.74822 h 28.88454 v -37.74822 h -28.88454 m 121.87867,16.17781 15.2555,26.96301 6.78789,9.34412 18.11316,0.54231 h 41.5656 203.6007 l -13.6181,-26.96301 -6.2302,-9.34413 -16.0812,-0.5423 h -36.6341 -212.75925 m -162.03522,71.90135 h 29.58903 l -0.0353,-26.14468 -0.68874,-10.16245 -12.66146,-1.44108 -15.07392,0.92373 -1.1296,9.86147 v 26.96301 m 40.15656,-37.74821 v 37.74821 h 29.58904 l -0.7045,-37.74821 h -28.88454 m 161.3307,33.25438 14.1721,26.96301 6.4623,9.86148 19.5222,0.92372 h 47.9061 195.8513 l -14.2341,-26.96301 -7.1125,-10.24289 -16.6966,-0.54231 h -40.1565 -205.7143 m -178.23875,88.47375 c -28.35628,5.69431 -42.13728,50.80474 -18.31649,75.58035 9.15388,9.52083 21.1862,10.4767 32.40651,8.24286 20.57873,-4.09698 31.86985,-34.25191 23.98511,-58.15355 -6.08535,-18.44705 -22.80252,-28.73657 -38.07513,-25.66966 m 394.52055,59.8228 c -0.58,4.16369 -4.6104,11.08749 -3.3529,15.11261 1.6936,5.42124 9.9947,7.46889 13.9204,8.43079 12.4475,3.04999 31.2625,3.5575 37.7594,-13.65696 7.8336,-20.75653 -8.4286,-31.39442 -21.5558,-35.36259 -4.0962,-1.23819 -13.3123,-2.37482 -13.7053,-9.57921 -0.4441,-8.14546 9.364,-9.38291 13.7053,-8.83095 4.3583,0.55416 10.7242,6.13196 14.701,5.24487 3.4692,-0.7738 5.2318,-10.69836 5.7295,-14.38581 -12.5651,-5.82465 -23.406,-10.07517 -36.6341,-3.86831 -10.6214,4.98379 -17.3187,20.89743 -11.2095,34.4257 7.1513,15.83575 23.8213,8.17736 32.8876,19.22848 4.975,6.06418 -1.614,11.43748 -6.1791,12.07301 -10.3426,1.43988 -16.8064,-5.35664 -26.0665,-8.83163 m -489.62818,-58.41985 0.7045,81.78779 h 15.49902 v -22.46943 c 3.64516,0 9.9526,-1.54865 13.15394,0.92373 5.01761,3.87511 7.04209,14.30097 11.36824,19.46219 3.14146,3.74782 13.72959,3.19393 17.74788,2.08325 -2.62643,-6.26953 -12.95838,-18.12515 -12.67015,-25.08157 0.14836,-3.58039 6.10453,-7.91849 7.7892,-10.86979 3.90492,-6.84089 4.53451,-17.08373 2.81854,-25.16479 -6.04051,-28.4466 -39.39705,-20.67164 -56.41117,-20.67164 m -66.9276,0.89877 0.10655,41.22608 -0.10655,39.66294 15.49903,0.89877 0.70449,-23.36794 c 8.08049,0 16.80884,1.11691 24.65754,-1.83637 16.67477,-6.27431 23.49031,-34.78065 9.13025,-49.94191 -9.57682,-10.11113 -23.67818,-7.54034 -35.19679,-7.54034 -4.81468,0 -10.15628,-0.85027 -14.79452,0.89877 m 212.7593,-0.89877 v 81.78779 h 16.20352 c 0,-4.62768 -1.79924,-17.50711 0.54468,-21.02809 2.22497,-3.34235 10.40933,-1.35624 13.54534,-1.45424 8.05335,-0.25174 17.08114,-3.33412 22.26897,-11.67427 9.68598,-15.57156 3.53514,-38.09068 -10.29245,-45.00077 -12.37304,-6.18319 -29.18463,-2.63042 -42.27006,-2.63042 m 66.92759,0 v 81.78779 h 50.72408 l -0.70451,-15.27903 H 415.3868 l -0.70449,-18.87411 h 30.29354 v -15.27904 h -30.29354 v -16.17781 h 24.65753 l 8.39695,-1.40503 0.76156,-14.77277 h -49.31507 m 61.29159,0 v 81.78779 c 2.8962,0.39437 12.1385,2.10556 14.3694,-0.0382 2.9967,-2.87949 1.1296,-17.92372 1.1296,-22.43103 3.7451,0 9.9226,-1.50443 13.2551,0.92373 5.0633,3.68931 7.0316,14.23329 11.1268,19.46219 2.9724,3.79522 13.9817,3.16305 17.8882,2.08326 l -14.09,-26.06424 c 16.4035,-10.42425 18.0714,-39.84217 1.409,-51.31848 -12.5294,-8.62968 -31.3111,-4.40508 -45.0881,-4.40508 m 60.5871,0 c 0,3.6914 -1.1784,11.61211 0.7241,14.61191 2.6897,4.24125 15.6636,1.5659 19.7064,1.5659 v 65.60999 l 14.09,0.89877 0.7045,-22.46918 v -44.03958 c 5.2079,0 14.8163,2.3992 19.5022,-0.54231 2.6356,-1.65452 2.6356,-13.43863 0,-15.09319 -3.9134,-2.45657 -11.6572,-0.54231 -15.9797,-0.54231 h -38.7475 m 63.4051,0 v 81.7878 c 3.4806,0 12.3701,2.69822 15.0739,-0.025 2.859,-2.87946 1.1296,-16.32772 1.1296,-20.64668 v -61.11614 h -16.2035 m 30.2935,0 v 81.78779 h 36.6341 l 12.9604,-0.16157 1.1296,-15.11746 h -35.225 l -0.7046,-17.97534 30.9981,-0.89877 v -15.27904 h -30.2935 l -0.7046,-16.17781 h 24.6576 l 9.3711,-1.36062 1.1964,-14.81718 h -50.0196 m -329.70644,15.5398 c 24.52331,-3.47217 28.96935,47.47853 4.9315,50.81292 -26.55292,3.68324 -31.68066,-47.02561 -4.9315,-50.81292 m -149.35422,27.60101 v -26.96301 c 5.67919,0 13.70184,-1.84586 19.02153,0.90711 7.27009,3.76227 8.89128,17.78137 2.10046,23.36446 -5.73623,4.71603 -14.60892,2.69144 -21.12199,2.69144 m 66.9276,0 v -26.96301 c 6.101,0 14.08774,-1.73664 19.72277,1.7254 6.43895,3.95597 7.61017,17.30763 1.33833,22.46435 -5.73801,4.71779 -14.57662,2.77326 -21.0611,2.77326 m 145.1272,0 v -26.96301 c 5.95599,0 14.18212,-1.86358 19.72332,1.22887 7.37609,4.11648 8.21827,17.61499 1.40083,23.17864 -5.66684,4.62463 -14.70508,2.5555 -21.12415,2.5555 m 128.21916,0 v -26.96301 c 5.8955,0 14.2994,-1.935 19.7233,1.41333 6.4999,4.01252 7.6072,17.37027 1.3378,22.52677 -5.9048,4.85668 -14.3746,3.02291 -21.0611,3.02291 m -338.86494,47.63466 v 3.59506 l 591.78084,-5.3926 v -3.59506 l -591.78084,5.3926 m 158.51272,71.00258 v -0.89876 l -7.04501,-8.98767 c -5.24446,4.55565 -10.18335,9.24495 -16.90803,6.72062 -10.26287,-3.8524 -14.24727,-21.76811 -6.89443,-31.79179 4.02809,-5.49124 10.61165,-7.71424 16.05295,-4.61518 2.06678,1.17711 4.03572,4.25115 6.34051,4.49103 2.51984,0.26233 6.20594,-4.184 6.80148,-7.14712 0.95878,-4.7702 -6.27139,-8.3052 -8.91498,-9.42943 -9.30986,-3.95902 -21.63321,-1.75689 -28.85627,6.87597 -11.51171,13.75864 -9.30948,40.24066 4.19873,50.64302 11.02681,8.4915 26.19444,4.71787 35.22505,-5.86069 m 236.00782,-52.5619 c -17.9036,4.84508 -25.6783,33.79971 -13.7606,51.6271 6.9254,10.35957 19.1791,13.12022 29.2596,10.21025 16.7064,-4.82254 23.9106,-32.3544 14.052,-49.68457 -6.4463,-11.33179 -19.1896,-14.95682 -29.551,-12.15278 m 97.2211,44.473 c -0.9092,2.82736 -3.4006,7.46124 -2.5315,10.59381 1.0671,3.84615 6.8293,5.72168 9.5766,6.57289 9.2614,2.86954 24.8662,2.4732 28.916,-10.87605 4.973,-16.39245 -6.4696,-21.5789 -16.235,-25.47129 -2.9376,-1.17091 -11.4883,-3.50132 -9.7391,-9.54106 3.0403,-10.49803 16.1921,-2.81967 21.0111,-0.0389 0.9395,-2.87864 4.0397,-8.16992 2.7245,-11.30738 -1.202,-2.86745 -5.4364,-3.43387 -7.656,-4.0722 -7.6809,-2.20907 -20.1491,-2.18867 -25.5104,6.48621 -1.449,2.34457 -2.3149,5.06983 -2.705,7.99461 -3.2664,24.49299 18.0551,15.46264 25.8643,27.16482 2.9673,4.44638 -1.5058,8.05292 -4.6939,8.61596 -7.2374,1.27821 -12.5678,-3.12528 -19.0216,-6.12148 m -448.06258,4.49384 c 5.31152,0 20.08212,0.39777 25.87819,0.25603 2.85007,-0.0697 0.42017,-2.31347 0.51745,1.65807 0.0367,1.49662 -0.11451,1.16709 -0.11645,1.9329 -0.005,2.12981 -0.17283,5.06517 -0.21266,9.6345 4.70936,0 11.25974,0.85453 11.30765,-0.56959 0.12979,-3.85752 -0.0356,-6.30711 -0.0356,-12.91191 h 7.74951 v -11.68398 h -8.49401 l 0.04,-12.58273 c -4.73978,0 -8.05089,-0.003 -9.94765,0.18898 -0.86927,0.0879 -0.50419,1.18714 -0.5189,2.83511 -0.0221,2.47211 -0.10097,6.17894 -0.10097,9.55864 H 194.1735 l 21.13503,-36.84944 c -3.24054,0 -7.61521,-0.23811 -11.06659,0.19319 -3.35642,0.41943 -0.3224,-0.42203 -0.78761,0.34912 -1.90437,3.15679 -5.60954,7.74249 -7.73158,11.14166 -7.02966,11.26043 -14.93476,22.17844 -14.93476,36.84944 m 121.17416,-48.53341 v 44.03958 c 0,10.87656 -0.5784,15.60805 0.0829,17.17921 0.55292,1.31366 -0.0765,0.49204 6.92922,0.45305 2.81124,-0.0156 3.08782,-0.1274 5.3898,0.0824 l -0.42543,-17.71472 10.34059,-0.24619 5.72179,17.61688 14.61659,0.17922 c -2.66191,-6.44538 -5.79209,-11.26982 -9.18274,-17.56244 -0.90003,-1.67032 -2.04382,-2.90265 -1.46118,-3.72143 1.07036,-1.50414 1.39589,-0.87669 3.50378,-2.93742 2.31803,-2.26617 6.61587,-10.20359 6.72643,-13.10148 1.14558,-30.02728 -26.48653,-24.26671 -42.24179,-24.26671 m 50.72408,0 v 45.83711 l 1.12959,15.25408 10.14242,0.92372 h 26.77104 v -12.58273 H 363.9582 c 0,-3.34454 -0.8988,-9.4527 1.1296,-12.04043 1.45781,-1.8598 4.86601,-0.92229 8.74003,-0.8656 4.84594,0.0709 10.33582,-0.38701 12.67441,0.32329 l 0.70449,-0.89876 -0.70449,-12.58274 c -2.21369,0.67238 -7.95403,0.68848 -12.96948,0.69489 -4.11271,0.005 -8.89201,1.4018 -9.0009,-0.97688 -0.15694,-3.42811 -0.0766,-8.94732 0.13081,-12.30074 l 24.65753,0.89876 0.7045,-11.68397 h -37.33855 m 40.86106,62.01491 c 3.07206,0 8.43911,1.31162 10.92032,-1.44108 2.6428,-2.93196 2.24781,-8.70866 5.43378,-11.1167 3.63504,-2.74742 12.07503,-2.70898 16.19929,-2.51836 1.92596,0.089 3.73712,0.22379 4.15946,1.35182 0.77228,2.06266 1.2858,6.63448 2.06089,9.92269 0.50964,2.16206 0.64936,3.76917 2.75253,3.74319 4.06901,-0.0503 9.86502,0.17123 12.7203,-0.84032 l -21.13499,-61.11612 c -3.39026,0 -9.46587,-1.49292 -12.40378,0.92372 -3.13181,2.57616 -4.68561,11.03974 -6.11111,15.25408 -4.61326,13.63878 -13.98959,30.90761 -14.59665,45.8371 m 50.01956,-62.0149 v 11.68396 h 15.49902 l 0.7045,50.33094 h 11.272 v -50.33094 h 15.499 v -11.68396 h -42.97452 m 48.61062,0 c 2.8633,19.67621 0.7045,42.01087 0.7045,62.0149 h 11.272 v -62.0149 h -11.9765 m 81.0175,0 v 44.03957 l 0.7415,16.56964 10.5306,1.40569 v -36.84943 c 7.13,9.53168 13.1802,20.54694 19.9174,30.55735 2.9445,4.37519 7.3616,8.82832 12.2657,5.74978 2.9496,-1.85168 1.6329,-11.26674 1.6329,-14.73673 v -46.73587 h -11.9765 l 0.7045,35.95067 -16.8726,-26.06424 -7.2,-9.34413 -9.7435,-0.5423 m -258.5518,10.7852 c 4.31408,0.75054 10.19261,-0.41834 14.05904,2.20807 5.25672,3.57083 5.40809,13.79578 0.0179,17.27911 -4.25253,2.74808 -10.19833,1.18835 -14.78147,1.18446 l 0.70449,-20.67164 m 221.91784,0.27044 c 19.9918,-3.7587 23.8199,35.91155 3.5225,38.84533 -18.3983,2.65927 -21.3995,-35.48417 -3.5225,-38.84533 m -116.24269,3.32463 7.04501,22.46916 h -14.79452 z"
         id="path2"
         sodipodi:nodetypes="ccccccccccccccccssssssccccccccccccccccccccccccccccccccsssssscccccccccccccccccccccccccccccccccccsccssccccccccccccccccccccccccccccccccccccccccccccccccccccccccccccccccccccccccsccccccsccccccccccccccccccccccccccssccsssccccccccccccccccccccccccccccccccccccccccccsssccsssscsscsssscccccsscsssccccccsssccccsssscccccccccccccccccccssccsccscccccscscccssccccccccccccccccccscccsscccsscccsscccssccccccccccsssscssccscsccssssscssscssccssscscccccsscccsssccssscccccssssccccccccsscccsscccccssssssccssccccccccccccccccccccssscccccccsscccsccccc" />
    </g>
    <path
       style="fill:#785231;stroke:none;stroke-width:0.824146"
       d="m 3.3979013,860.26448 c 2.602806,-26.80745 0.369173,-58.51498 1.114221,-87.20468 V 172.9208 H 1022.8789 v 687.34368 c 7.8593,-7.28506 1.0741,-29.40736 3.3427,-42.35655 v -647.2224 c -326.69726,0.0522 -653.40872,1.84243 -980.09714,0.64827 -14.400963,-0.29111 -28.876541,-1.69277 -43.0136567,1.94226 0.08866,79.40445 0.501313,159.02362 0.287098,238.51966 z M 344.33915,182.97949 c 40.38132,59.51443 85.36164,115.90461 124.99922,176.03628 31.18024,17.84054 74.50544,1.67325 110.93553,7.16443 105.9359,1.20623 211.87766,0.10352 317.81617,0.0908 -41.5799,-59.98144 -82.09695,-120.90644 -125.70264,-179.32783 -11.83245,-7.48831 -29.81959,-1.93048 -44.11543,-3.96406 H 344.33915 M 210.6367,307.0363 v -68.17525 c -15.37851,0.4919 -30.91933,-1.3582 -46.12361,1.64626 -1.39366,43.40115 0.0443,86.83286 -1.32813,130.23428 -45.19517,62.77034 -91.195187,124.97459 -136.38906,187.76219 15.953456,-1.02631 34.653429,4.60689 48.839531,-2.80167 76.127789,-101.74065 150.971259,-204.47726 226.364599,-306.7824 79.46245,101.45778 152.35203,208.09797 231.79568,309.55303 15.52967,2.11943 31.16218,0.22125 46.75101,0.031 -51.0032,-74.78109 -108.06736,-145.1937 -160.1598,-219.2559 -37.79476,-50.03316 -75.16734,-100.47924 -112.58005,-150.73441 -33.09488,15.60147 -51.65071,67.61793 -79.2557,96.97276 -5.71795,7.39412 -11.64981,14.62365 -17.91447,21.55036 M 404.50526,187.45001 c 2.18746,7.70281 4.18467,14.59291 7.74208,18.02286 5.36148,5.16938 16.04755,-0.88772 16.54944,4.41179 -7.40663,1.07873 -11.28416,6.35087 -11.13779,11.74289 0.28286,10.42003 9.77637,22.4511 -2.90537,13.68645 -10.05285,-15.44552 -32.63995,20.5621 -23.43832,-6.43408 0.36716,-2.60281 1.45672,-2.86622 -1.33137,-7.16584 -6.14101,-9.47026 -19.06068,-13.35479 6.08635,-13.45232 5.9965,-2.21385 4.85809,-15.33268 8.43498,-20.81175 z m 86.90656,0 c 5.48427,19.31198 17.79499,22.81899 24.29152,22.43465 -21.71985,3.16337 5.20096,38.72941 -14.04315,25.42934 -10.05286,-15.44553 -32.63985,20.56213 -23.43833,-6.4341 2.07317,-14.69761 -27.08,-22.62675 3.47869,-22.74529 5.99641,-2.21401 6.13438,-13.20552 9.71127,-18.6846 z m 100.27679,0 c -1.81721,21.03129 18.99149,20.29791 26.13239,20.77814 -21.26708,3.79198 -0.66815,35.70473 -13.72998,28.28917 -8.91064,-18.27348 -34.0098,17.82746 -25.47407,-5.05278 13.9203,-17.61751 -34.82342,-23.84424 2.6335,-24.06995 8.50352,-2.60141 6.3153,-14.07117 10.43816,-19.94458 z m 107.0632,-3.40342 c 1.23367,9.10264 4.15955,21.55191 9.97782,21.48949 26.11779,-0.2802 20.62137,1.42804 4.81115,15.9612 9.84452,38.15315 2.85791,16.56162 -10.95333,10.25552 -3.26352,-1.49009 -7.86668,3.12231 -11.51185,4.76846 -21.41491,18.6055 8.19278,-19.39919 -11.94549,-21.93797 -10.69504,-7.57456 0.70644,-4.88098 10.11564,-6.32219 6.39615,-0.9797 6.49206,-6.38503 4.59068,-13.99436 0.92941,-2.27224 3.98596,-7.9479 4.91538,-10.22015 z m -236.30889,59.28503 c 0.57875,19.50213 13.61235,21.75981 27.85468,20.11737 -6.53624,3.23097 -12.11424,8.42835 -13.23864,13.59288 -2.69249,12.36693 6.05428,24.54556 -13.50181,9.08487 -24.61074,17.03794 -13.46505,4.02123 -13.25614,-11.65629 -27.50312,-13.10451 0.40171,-5.57743 6.9456,-19.02534 1.73211,-4.03784 3.46422,-8.07565 5.19631,-12.11349 z m 86.90669,0 c 0.57873,19.50206 13.61233,21.75984 27.85455,20.11737 -22.18786,10.96786 0.98241,44.59494 -26.74046,22.67775 -20.78188,17.88887 -13.46493,4.02117 -13.25613,-11.65629 -27.50312,-13.10451 0.40173,-5.57745 6.94561,-19.02533 1.7321,-4.03784 3.46432,-8.07566 5.19643,-12.1135 z m 100.27678,0 c 1.76248,18.34457 13.78773,22.12887 27.85466,20.11737 -21.05752,3.12275 -5.64139,31.72479 -13.23722,30.03615 -8.62938,-19.78136 -33.51692,13.08022 -28.32093,-3.73104 17.73821,-15.60463 -27.26134,-25.73908 -3.27044,-26.37552 12.84858,2.23961 11.78053,-11.88103 16.97393,-20.04696 z m 109.19023,0 c 0.57873,19.50221 13.61244,21.75978 27.85477,20.11737 -20.70826,3.30882 -13.08096,23.41712 -12.21794,30.16092 -9.88179,-19.20902 -35.9637,13.44386 -29.34369,-7.52983 6.29616,-14.16325 -28.37425,-23.87582 1.61435,-23.31154 7.75327,-0.10352 7.88607,-14.15031 12.09251,-19.43692 z m -245.12114,55.8816 c 0.5559,4.6162 4.53622,14.79448 6.96053,17.34704 10.2759,10.81957 28.68565,0.11977 4.18149,13.94666 9.22388,20.36994 5.5937,21.28559 -11.14202,8.94104 -19.88944,19.64009 -10.94713,5.18028 -16.20605,-9.86874 -25.99075,-17.90335 9.38286,-1.92822 11.87493,-17.33259 1.44372,-4.34447 2.88743,-8.68894 4.33112,-13.03341 z m 86.90668,0 c 2.91217,24.18293 41.42711,14.2048 11.14178,31.2937 9.22369,20.3696 5.59392,21.28597 -11.14178,8.94104 -27.89716,27.1061 -0.48909,-12.07431 -27.85466,-20.11737 19.57358,2.46382 23.98343,-0.21204 27.85466,-20.11737 z m 100.27679,0 c 0.97145,6.68032 1.66011,17.25199 6.56588,17.77097 15.22828,1.611 26.21463,1.32607 4.57601,13.52273 9.56364,20.83945 4.23341,18.65466 -6.24848,14.56793 -12.33878,-4.81071 -5.44113,-1.03291 -8.55854,-1.10084 -22.06772,19.36047 1.06805,-13.27007 -17.89307,-18.12169 -18.29998,-14.49288 24.69325,3.27687 18.79642,-18.32833 0.92067,-2.77027 1.84122,-5.54051 2.76178,-8.31077 z m 108.07611,0 c 0.48812,19.15891 14.27607,20.54229 27.85478,20.11737 -6.48477,3.25147 -15.11736,8.43427 -14.33947,13.62321 2.59552,17.31341 1.58629,16.61443 -14.48077,6.5603 -9.0447,7.28426 -10.547,12.93509 -12.03694,11.48598 -2.08022,-2.02321 0.0101,-13.40082 -2.64431,-22.21332 -18.11255,-11.95942 -4.37711,-7.2762 5.20962,-10.172 4.14698,-1.25265 6.48019,-4.96097 6.84507,-10.32636 1.19737,-3.02506 2.39465,-6.05012 3.59202,-9.07518 z m -513.64014,87.17529 c -32.33944,-10.86849 -54.89488,0.91051 -46.7959,34.6466 7.22266,27.93145 68.91498,12.08169 46.94924,-24.35051 l -0.29187,-5.44674 z m 16.71278,-1.11763 v 46.94055 h 45.68167 v -46.94055 z m 192.75445,20.11738 c 12.40155,14.69997 21.20902,35.46942 37.32068,45.20641 137.96113,1.41186 275.95211,0.22519 413.9249,0.61651 -11.26223,-14.65746 -18.51636,-35.60178 -33.849,-45.21374 -139.11082,-1.40556 -278.27182,-0.21498 -417.39658,-0.60918 z m -256.26313,89.41056 h 46.7959 c -0.2725,-15.05444 0.69283,-30.16463 -1.14547,-45.14854 -14.58383,-2.09325 -29.21663,-1.73722 -43.86424,-0.64333 -3.02713,15.0872 -1.36899,30.50916 -1.7865,45.79187 m 63.50866,-46.94055 v 46.94055 h 46.79579 c -0.37133,-15.64686 -0.74278,-31.2937 -1.11412,-46.94055 z m 255.1488,41.35239 c 11.70062,14.88975 19.77569,35.667 35.09126,45.88331 137.9381,2.41331 275.95643,0.39183 413.92627,1.05723 -11.8922,-15.21595 -20.18093,-36.28702 -36.21874,-46.32896 -137.58028,-1.40432 -275.20543,-0.22065 -412.79889,-0.61158 M 285.28682,599.22927 c -54.07608,3.66791 -66.57873,90.33792 -11.06847,103.1639 37.507,13.90755 83.05275,-17.97054 74.57044,-59.81144 -4.31014,-29.39097 -35.67834,-48.03203 -63.50197,-43.35246 z m 623.94471,74.39068 c -23.13264,49.05122 101.67857,40.43322 76.56205,-11.66138 -6.72231,-20.33252 -85.25804,-23.55285 -40.60495,-42.9101 14.36289,9.82086 52.58134,4.12233 31.35662,-13.97162 -41.74179,-33.50261 -109.26161,39.16505 -43.45854,54.78807 46.85094,-1.20237 22.79461,41.05112 -8.68851,19.60096 -4.99011,-2.11271 -9.95901,-4.32219 -15.16667,-5.84593 z M 134.8717,600.97386 c 0.37132,33.90151 0.74278,67.803 1.11411,101.70451 19.09564,3.59413 29.70551,-1.40931 24.51211,-22.42406 20.69884,-27.98535 36.7361,41.09512 66.85122,22.42406 -23.94927,-19.62139 -18.91592,-38.56757 -2.15695,-59.77425 5.062,-52.1004 -57.90437,-42.94921 -90.32049,-41.93026 z M 29.023801,602.0915 c 0.169881,33.52897 0.183291,67.05792 0,100.58687 18.937655,4.4514 29.761086,-0.0377 25.371244,-21.28951 C 70.479886,670.8214 133.99754,675.3731 119.1198,626.91063 105.97655,589.9287 58.42934,602.07589 29.023801,602.0915 Z m 336.484469,-1.11764 v 101.70451 c 27.63233,7.17366 23.86698,-9.73395 30.62205,-28.16764 49.74516,18.61605 87.57106,-58.85473 28.58728,-72.61401 -19.50556,-4.31621 -39.50121,-0.95908 -59.20933,-0.92286 z m 105.84778,0 v 101.70451 h 80.22145 c 5.43442,-22.27004 -11.81697,-20.14931 -28.16523,-18.99975 -17.09353,1.83462 -32.72279,2.11258 -27.37508,-19.90948 6.49835,-8.3138 28.98769,-1.18645 41.63699,-3.56078 15.54427,-3.71019 3.8032,-28.6007 -13.56941,-18.99974 -15.18593,0.036 -35.34365,5.10952 -28.23661,-17.44094 8.28844,-6.68992 28.7057,-0.30509 41.43522,-2.9973 17.71497,3.9136 16.29225,-29.72336 -2.70932,-19.79652 z m 96.93435,0 v 101.70451 c 38.26924,17.93619 13.53154,-53.26647 50.69231,-21.98957 10.9387,34.6479 57.92783,26.14438 23.8035,-2.54373 -7.64967,-16.53752 38.27724,-47.74146 1.41472,-68.76737 -22.42229,-15.11481 -50.76584,-8.09401 -75.91053,-8.40384 z m 95.82,0 c -8.74768,35.9776 47.034,5.67444 32.31144,45.033 v 56.67151 c 19.02373,5.42821 26.92287,-1.47556 23.17719,-21.28815 0.51169,-20.0907 0.0768,-40.20078 0.2207,-60.29899 29.2666,17.53748 50.25341,-28.30357 11.53334,-20.44159 -22.39364,0.71587 -44.83411,0.13773 -67.24267,0.32422 z m 100.27678,0 v 101.70451 c 37.81453,13.47953 23.10885,-31.01545 25.62633,-53.11268 V 600.9739 h -25.62633 m 47.91001,0 v 101.70452 c 26.14505,-0.0516 52.29141,0.14725 78.43507,-0.20093 8.89247,-22.20043 -8.87442,-19.86615 -25.26463,-18.79881 -15.23328,-0.0614 -35.48866,5.2291 -29.52654,-17.41875 4.17357,-11.07546 28.99463,-2.70483 41.54941,-5.88673 16.99684,-2.47165 5.51659,-29.1031 -12.4445,-19.16454 -15.18386,0.036 -35.06109,5.10149 -29.20115,-17.41354 7.87405,-6.71927 28.66318,-0.37501 41.29064,-2.98283 17.11157,6.66609 20.64726,-28.28157 1.97312,-19.83839 z m -521.43937,19.32401 c 51.41249,-5.31024 35.57853,87.35465 -12.13976,59.4599 -25.55853,-13.83881 -18.70429,-58.55139 12.13976,-59.4599 z M 54.650135,654.62024 c -5.265301,-25.90675 3.786125,-47.53466 33.967425,-30.09408 21.98283,25.89217 -15.262584,34.96481 -33.967425,30.09408 z m 105.847785,0 c -7.78484,-28.48641 10.06995,-49.20233 37.21374,-25.845 12.80662,26.45874 -20.56594,28.31605 -37.21374,25.845 z m 229.52257,0 c -5.74661,-26.68437 4.9409,-47.62741 35.07959,-29.57643 20.70976,26.02149 -16.8446,34.29124 -35.07959,29.57643 z m 202.78191,0 c -7.79794,-28.39018 10.08745,-49.37265 37.25462,-26.19124 12.76098,26.28176 -20.58629,28.653 -37.25462,26.19124 z M 56.878795,713.85473 c 5.439182,10.0591 29.099195,1.52648 41.805033,4.171 298.037342,-2.13541 596.074682,-4.27083 894.112042,-6.40626 -5.4392,-10.05908 -29.09921,-1.52647 -41.80505,-4.17098 -298.03734,2.1354 -596.07469,4.27082 -894.112025,6.40624 z m 250.692125,88.29294 c -10.97914,-26.26506 -52.60338,17.01733 -54.72607,-26.74721 -7.1955,-43.87979 73.01525,-0.60833 42.19335,-35.90302 -52.00603,-29.33034 -90.48432,63.86074 -29.1234,75.10395 14.76925,2.43162 30.53186,-2.34355 41.65612,-12.45372 z M 680.8235,736.78604 c -46.06101,8.23726 -35.74321,84.56808 12.09608,78.25013 64.07994,-0.24434 47.6774,-94.85418 -12.09608,-78.25013 z m 153.7578,55.30294 c -17.32235,44.6084 94.40646,18.61387 48.18206,-17.07731 -19.87897,-0.75149 -51.66022,-28.36064 -11.75339,-23.63337 42.24763,4.29697 -7.57107,-30.08583 -27.37639,-12.3101 -36.46686,26.04324 12.68108,42.00591 29.98331,53.82706 -7.49743,14.88694 -28.17465,3.1338 -39.03559,-0.8063 m -708.62283,5.58817 c 24.22349,-8.8309 41.82201,5.7729 50.53736,16.37212 7.6248,-10.49421 13.64629,-15.65989 20.77054,-21.35525 3.2288,-15.74444 -19.99912,-4.6849 -13.37024,-25.19294 -11.92802,-1.66444 -29.36909,29.06132 -33.84501,11.63941 10.16749,-13.9385 20.33497,-27.87699 30.50247,-41.81548 -29.76402,-5.88662 -49.75306,36.10391 -54.59512,60.35214 z M 317.5986,737.32499 c 0.79987,25.0718 -1.5963,50.7347 1.14504,75.32461 30.28294,16.5022 5.1922,-32.56884 32.97258,-19.41195 8.2177,12.92778 16.8672,25.03007 33.84771,21.20395 -29.89226,-23.04365 25.33297,-71.82228 -29.8596,-76.9034 -12.66064,-1.54724 -25.40909,-0.28459 -38.10573,-0.21321 z m 80.22145,0 c 0.49503,25.3275 -1.36456,50.76855 1.78638,75.96795 19.40577,1.93632 38.91557,0.88747 58.37972,1.14866 7.22309,-22.5001 -15.72355,-14.43309 -29.51011,-15.64684 -36.33794,-3.30619 12.67655,-25.97752 23.7622,-19.24958 8.7718,-25.87697 -57.33319,-0.017 -30.56107,-28.6677 12.66163,-2.70605 39.03485,10.03381 35.03267,-11.44365 -10.21572,-4.90817 -30.14215,-0.71236 -44.10356,-2.10884 H 397.8197 m 64.6228,77.11661 c 21.74808,-0.99436 48.30966,-38.90618 66.5159,-1.792 31.601,11.9715 9.52647,-18.99902 4.26235,-33.46314 -6.13719,-13.95381 -12.27428,-27.90763 -18.41136,-41.86143 -34.15677,-7.86406 -41.92723,54.68436 -52.36689,77.1166 m 79.10733,-77.1166 c -10.22134,26.03318 26.32067,4.4148 24.64513,22.00267 0.3271,18.37131 0.6541,36.74262 0.98111,55.11393 21.97299,7.106 18.4478,-11.62192 17.82711,-27.40719 3.74361,-11.2559 -9.14412,-39.36219 9.8367,-35.1802 22.04598,7.02031 18.09419,-23.55835 -2.53891,-14.52927 h -50.75114 m 76.87891,0 c 4.63941,19.35938 -6.59602,101.92839 18.9411,69.64192 v -69.64192 z m 128.13144,0 c 0.25996,25.12669 -0.79089,50.29164 1.17262,75.36861 22.41787,9.56665 16.14669,-13.10019 16.65438,-28.15074 -0.87859,-41.97007 27.57698,41.81033 50.89841,29.22437 5.35896,-22.94826 1.31157,-48.8613 2.58259,-73.13974 -11.3749,-11.98 -25.45051,2.02512 -18.38249,19.11442 3.89903,25.16491 -2.94407,21.43584 -15.19694,3.15533 -10.73985,-11.73077 -19.19739,-29.81927 -37.72857,-25.57225 z M 337.6536,750.73655 c 43.78704,-10.93324 21.41037,46.63714 -0.8987,20.72721 0.29953,-6.90906 0.59895,-13.81814 0.89837,-20.72721 m 350.96891,0.3363 c 52.41102,-4.22891 12.67363,82.04683 -16.43346,35.57615 -6.53384,-13.56634 -0.0594,-33.89038 16.43346,-35.57615 z m -183.84078,4.13423 c 3.38331,12.44885 21.12512,34.71025 -3.61333,27.9408 -18.6326,4.57128 3.24751,-19.62891 3.61333,-27.9408 z"
       id="path1"
       sodipodi:nodetypes="ccccccccccccccccccccccccccccccccscsccscccccccccccccccscsccsccccscccccccccccccccccccccccscccccccccccscsccccccscscscccccccccccccccccccccccccccccccccccccccccccccccccccccccccccccccccccccccccccccccccccccccccccccccccccccccccccccccccccccccccccccccccccccccccccccccccccccccccccccccccccccccccccccccccccccccccccc" />
    <text
       xml:space="preserve"
       id="text3"
       style="fill:#000000;text-anchor:start;text-align:start;writing-mode:lr-tb;text-orientation:auto;direction:ltr;stroke:#000000;stroke-opacity:1;white-space:pre;shape-inside:url(#rect3)"><tspan
         sodipodi:role="line"
         id="tspan3"></tspan></text>
    <text
       xml:space="preserve"
       id="text4"
       style="fill:#000000;text-anchor:start;text-align:start;writing-mode:lr-tb;text-orientation:auto;direction:ltr;stroke:#000000;stroke-opacity:1;white-space:pre;shape-inside:url(#rect4)"><tspan
         sodipodi:role="line"
         id="tspan4"></tspan></text>
    <text
       xml:space="preserve"
       id="text5"
       style="fill:#000000;text-anchor:start;text-align:start;writing-mode:lr-tb;text-orientation:auto;direction:ltr;stroke:#000000;stroke-opacity:1;white-space:pre;shape-inside:url(#rect5)"><tspan
         sodipodi:role="line"
         id="tspan5"></tspan></text>
    <text
       xml:space="preserve"
       id="text6"
       style="fill:#000000;text-anchor:start;text-align:start;writing-mode:lr-tb;text-orientation:auto;direction:ltr;stroke:#000000;stroke-opacity:1;white-space:pre;shape-inside:url(#rect6)"><tspan
         sodipodi:role="line"
         id="tspan6"></tspan></text>
  </g>
</svg>
