<?xml version="1.0" encoding="UTF-8" standalone="no"?>
<!-- Created with Inkscape (http://www.inkscape.org/) -->

<svg
   version="1.1"
   id="svg1"
   width="1024"
   height="1024"
   viewBox="0 0 1024 1024"
   xmlns:xlink="http://www.w3.org/1999/xlink"
   xmlns="http://www.w3.org/2000/svg"
   xmlns:svg="http://www.w3.org/2000/svg">
  <defs
     id="defs1">
    <linearGradient
       id="linearGradient4">
      <stop
         style="stop-color:#000000;stop-opacity:1;"
         offset="0"
         id="stop4" />
      <stop
         style="stop-color:#000000;stop-opacity:0;"
         offset="1"
         id="stop5" />
    </linearGradient>
  </defs>
  <g
     id="g1">
    <image
       width="1024"
       height="1024"
       preserveAspectRatio="xMidYMid"
       style="image-rendering:optimizeQuality"
       xlink:href="brand_logo(1).png"
       id="image1" />
    <path
       style="fill:#785231;stroke:none;stroke-width:0.824;stroke-dasharray:none"
       d="m 2.1946106,857.8579 c 2.602806,-26.80745 0.369173,-58.51498 1.114221,-87.20468 v -600.139 H 1021.6756 V 857.8579 c 7.8593,-7.28506 1.0741,-29.40736 3.3427,-42.35655 v -647.2224 c -326.69725,0.0522 -653.40871,1.84243 -980.09713,0.64827 -14.400963,-0.29111 -28.876541,-1.69277 -43.0136574,1.94226 5.679608,118.54109 0.501313,159.02362 0.287098,238.51966 z M 343.13586,180.57291 c 40.38132,59.51443 85.36164,115.90461 124.99922,176.03628 3.86577,2.2119 2.20115,8.02272 6.59053,8.15152 45.43702,1.33335 70.30443,-0.69234 104.345,-0.98709 105.9359,1.20623 211.87766,0.10352 317.81617,0.0908 C 859.3966,306.60993 808.9403,245.04353 770.75871,184.85566 c -3.23511,-6.21687 -2.02981,-4.76058 -5.17282,-4.85878 -14.3774,-0.44921 -22.04113,0.67391 -38.51718,0.57565 H 343.13586 M 209.43341,304.62972 v -68.17525 c -15.37851,0.4919 -30.91933,-1.3582 -46.12361,1.64626 -1.39366,43.40115 0.0443,86.83286 -1.32813,130.23428 C 116.7865,431.10535 70.786483,493.3096 25.59261,556.0972 41.546066,555.07089 60.246039,560.70409 74.432141,553.29553 150.55993,451.55488 225.4034,348.81827 300.79674,246.51313 c 79.46245,101.45778 152.35203,208.09797 231.79568,309.55303 15.52967,2.11943 31.16218,0.22125 46.75101,0.031 -51.0032,-74.78109 -108.06736,-145.1937 -160.1598,-219.2559 -37.79476,-50.03316 -79.84704,-100.90467 -117.25975,-151.15984 -28.21669,35.76197 -46.12783,68.74601 -74.576,97.39819 -5.71795,7.39412 -11.64981,14.62365 -17.91447,21.55036 M 403.30197,185.04343 c 2.18746,7.70281 3.54653,17.14547 7.10394,20.57542 5.36148,5.16938 16.68569,-3.44028 17.18758,1.85923 -7.40663,1.07873 -11.28416,6.35087 -11.13779,11.74289 0.28286,10.42003 9.77637,22.4511 -2.90537,13.68645 -10.05285,-15.44552 -32.63995,20.5621 -23.43832,-6.43408 0.36716,-2.60281 1.45672,-2.86622 -1.33137,-7.16584 -6.14101,-9.47026 -17.7844,-11.86579 7.36263,-11.96332 5.9965,-2.21385 3.58181,-16.82168 7.1587,-22.30075 z m 86.90656,0 c 2.241,7.89131 2.28922,17.18285 6.30202,20.18593 5.86421,4.38863 17.19355,-0.56994 17.9895,2.24872 -3.70412,0.53948 -7.4048,9.42772 -9.14883,11.40458 -2.34851,2.66204 -2.01399,-1.15329 -1.54829,2.54005 1.21634,9.6464 8.19676,19.46221 -3.34603,11.48471 -10.05286,-15.44553 -32.63985,20.56213 -23.43833,-6.4341 1.16703,-8.27356 -13.48095,-14.09682 -15.29334,-17.07003 -1.40723,-2.30856 7.54253,-2.64546 20.89917,-2.69727 5.99641,-2.21401 4.00724,-16.18351 7.58413,-21.66259 z m 100.27679,0 c 2.02127,11.42559 3.96882,22.87313 7.27676,22.3406 9.88615,-1.59151 17.64092,1.23031 18.85563,-1.56246 -6.12156,6.84256 -12.17743,10.84586 -13.56742,15.42165 -1.18464,3.89981 5.69772,15.62899 6.47736,18.09437 1.92826,6.09747 -3.98596,-1.14618 -10.89419,-5.43956 -8.91064,-18.27348 -29.75553,18.04017 -21.2198,-4.84007 13.9203,-17.61751 -32.48357,-21.92982 4.97335,-22.15553 8.50352,-2.60141 3.97545,-15.98559 8.09831,-21.859 z m 107.0632,-3.40342 c 3.49672,11.11424 7.13534,25.72615 11.2541,25.53105 25.90515,-1.22708 19.34509,-2.61352 3.53487,11.91964 9.84452,38.15315 2.85791,16.56162 -10.95333,10.25552 -3.26352,-1.49009 -7.86668,3.12231 -11.51185,4.76846 -15.04344,14.54497 -3.61941,-0.57547 -1.87533,-13.07003 0.47857,-3.42846 -4.50826,-8.10258 -10.07016,-8.86794 -10.73094,-7.57456 -8.93635,-3.81741 5.22323,-5.25862 6.43748,-0.65523 12.87347,1.69808 10.54666,-3.78411 0.92941,-2.27224 6.53852,-18.58358 3.85181,-21.49397 z m -236.30889,59.28503 c 0.23162,7.80501 -4.22962,-5.96334 -0.39633,0.0119 1.14715,1.78813 6.71672,16.96423 8.75705,20.42589 2.85134,4.83763 12.65735,0.468 19.49396,-0.3204 -3.95106,4.52356 -10.83344,9.51954 -12.17507,13.80559 -0.48163,1.53863 -5.59524,-3.60615 -3.23807,2.2319 11.74539,29.09009 7.30561,20.74299 -10.26374,6.85297 -18.03911,12.48842 -19.84587,13.93495 -12.95949,-4.01707 1.20504,-3.14142 -1.416,-3.66567 -1.36022,-7.85193 -22.08756,-10.52414 -4.39775,-4.76377 5.22299,-10.22548 2.35887,-1.33914 6.17734,-18.06383 5.97688,-20.07368 1.73211,-4.03784 -0.79005,3.19817 0.94204,-0.83967 z m 86.90669,0 c 2.89599,11.78537 3.15818,17.28577 8.43413,20.56581 4.14241,2.57532 13.62963,0.21938 19.42042,-0.44844 -5.83368,6.59772 -15.7058,8.97859 -14.22285,14.60131 6.89063,26.12627 6.05586,22.76028 -12.51761,8.07644 -20.78188,17.88887 -21.54805,20.18741 -11.55442,-7.82744 -9.68514,-4.54861 -17.81358,-9.72555 -17.92157,-11.27077 -0.14938,-2.13756 9.24811,-1.16484 18.31261,-1.59614 3.24035,-0.15418 0.97917,2.69144 3.57658,-0.62787 1.7321,-4.03784 4.7406,-17.43506 6.47271,-21.4729 z m 100.27678,0 c 0.46429,4.83253 1.64078,8.65464 3.37917,11.62655 1.7386,2.97225 2.33751,7.64666 5.04983,9.0784 6.07245,0.16733 13.18558,-0.46611 19.42566,-0.58758 4.73943,-0.0923 -7.72866,7.66934 -10.17168,10.1372 -2.87049,2.89968 -4.75544,1.52123 -5.13163,5.14309 4.81864,7.55264 9.26651,22.85892 5.2568,21.98812 -3.62267,-5.30069 -11.20136,-16.01359 -15.924,-13.0756 -24.75787,15.40206 -19.59785,16.0904 -18.91832,11.71396 0.28786,-1.85388 1.76534,-4.68493 3.33068,-8.53809 1.18222,-2.91009 9.24332,-11.16166 3.02387,-13.27054 -5.62112,-1.906 -16.21313,-8.29809 -16.91616,-10.46052 -0.8881,-2.73167 18.33042,1.62262 20.33302,-2.16506 3.96091,-4.09275 3.77188,-16.10099 7.26276,-21.58993 z m 109.19023,0 c 1.5148,6.897 3.3432,15.59015 5.70458,21.12373 1.02808,2.40916 12.15945,-0.5063 15.09762,-0.76792 9.13105,-0.81305 -7.78222,8.00431 -9.35304,10.9517 -3.65481,6.85764 1.09712,4.98199 4.18767,18.97078 -1.37641,-2.67557 -5.76503,-3.8399 -7.27981,-5.29326 -6.36228,-6.10434 -5.60431,-4.40513 -8.06794,-6.29192 -2.3936,-1.83315 -6.39654,4.60361 -9.21016,7.74938 -4.18287,4.67666 -6.76683,6.97062 -5.84935,3.53823 2.10229,-13.45079 4.36349,-12.98603 3.32866,-15.20174 -2.36013,-5.05334 -10.82538,-9.4865 -12.08757,-11.37815 -0.96875,-1.45186 2.9175,-0.96953 13.35125,-0.7732 7.75327,-0.10352 5.97165,-17.34102 10.17809,-22.62763 z m -245.12114,55.8816 c 0.5559,4.6162 4.53623,14.79447 6.96053,17.34704 5.93371,6.24764 25.42793,0.21483 20.15035,5.01903 -0.92476,0.84181 -5.61436,3.08493 -15.96886,8.92763 0.79475,1.75513 1.49408,3.36582 2.09781,4.83605 2.85095,6.94271 6.97378,19.2617 4.48112,18.86811 -2.21607,-0.34992 -9.23658,-8.5049 -17.72095,-14.76312 -17.05847,16.84461 -17.80104,19.45412 -12.35964,-4.21331 0.45782,-1.99128 -5.86316,-3.93885 -6.61169,-6.08086 -11.7466,-8.09147 -12.09135,-7.39016 -7.64898,-7.02536 2.62331,0.21542 7.88023,0.46185 15.54751,-0.96542 4.29673,-0.79984 6.04101,-3.49471 6.74168,-8.91638 1.44372,-4.34447 2.88743,-8.68894 4.33112,-13.03341 z m 86.90668,0 c 8.43505,21.8353 1.79629,19.86715 7.5968,19.90517 29.93046,0.19619 23.53401,0.10945 3.54498,11.38853 2.82859,9.53496 8.58406,21.82697 7.24297,23.47202 -1.52388,1.86928 -9.48299,-7.96468 -18.38475,-14.53098 -17.95114,17.44212 -20.36943,27.36038 -12.14358,-1.92905 0.66914,-2.3826 3.54554,-4.30511 1.56349,-6.51624 -3.16043,-3.52569 -12.76749,-7.12899 -18.76357,-9.54494 18.05103,0.59128 13.79467,0.21151 22.35619,-1.04082 4.66747,-0.68273 2.61689,-26.3504 6.98747,-21.20369 z m 100.27679,0 c 0.97145,6.68032 2.08554,19.59184 6.99131,20.11082 2.84981,0.30148 13.91032,-0.50394 16.00086,-0.4768 11.39532,0.14791 5.7389,1.74549 -11.85028,11.65968 2.06478,4.49923 -0.60623,-0.3706 4.6351,14.10672 3.31292,9.15076 0.10055,6.64361 -10.88358,0.46121 -11.54093,-6.49579 -2.03771,-2.30919 -5.15512,-2.37712 -8.11032,7.11535 -15.11072,12.45703 -15.74318,9.66905 -0.58435,-2.57586 9.61347,-14.07523 5.38489,-18.34023 -11.67455,-11.77512 -15.38161,-9.94379 -21.99931,-20.29891 -2.50237,-1.98178 7.20245,8.76437 6.71051,7.80594 -1.38497,-2.69835 9.39907,0.48564 15.4297,0.35939 4.26681,-0.0893 5.64146,-1.96461 6.10359,-5.40605 1.11852,-8.32938 -1.00097,-0.26019 0.55016,-5.55951 4.32409,-14.0441 2.90479,-8.94393 3.82535,-11.71419 z m 108.07611,0 c -0.22313,7.12242 3.98677,14.18441 6.44997,19.83501 1.41002,3.23461 4.05512,1.43172 10.72092,1.1087 3.5631,-0.17266 10.29282,-0.52151 10.04575,0.44994 -6.48477,3.25147 -16.39364,7.3707 -15.61575,12.55964 2.59552,17.31341 9.24398,21.50685 -12.56635,6.34759 -9.0447,7.28426 -10.547,12.93509 -12.03694,11.48598 -1.01139,-0.98367 0.0616,-4.83225 1.16795,-9.22241 0.61521,-2.44132 4.95337,-6.75182 4.21287,-9.12857 -0.66674,-2.14002 -7.06671,-4.73006 -9.93955,-6.20219 -6.23971,-4.18002 -8.09179,-5.15284 -5.904,-5.07489 2.80206,0.0999 9.98445,0.99602 15.36789,-0.63012 4.14698,-1.25265 4.56577,-5.3864 4.93065,-10.75179 1.19737,-3.02506 1.96922,-7.75183 3.16659,-10.77689 z m -513.64014,87.17529 c -29.10014,-1.67922 -35.61018,-0.0927 -46.17649,-0.71578 -4.14724,-0.24454 -1.57609,22.85998 -3.17197,38.34037 0.12241,4.33328 -0.5073,8.79298 1.5633,8.92356 19.66946,1.24045 12.69505,1.48632 47.21202,1.00771 3.84578,-0.0533 0.12501,-27.05436 0.72648,-37.25977 l -0.29187,-5.44674 z m 16.71278,-1.11763 v 46.94055 h 45.68167 V 382.8643 Z m 192.75445,20.11738 c 12.40155,14.69997 21.20902,35.46942 37.32068,45.20641 137.96113,1.41186 275.95211,0.22519 413.9249,0.61651 -11.25749,-13.17575 -16.41738,-24.15228 -33.849,-45.21374 -139.11082,-1.40556 -278.27182,-0.21498 -417.39658,-0.60918 z m -256.26313,89.41056 h 46.7959 c -0.2725,-15.05444 1.11826,-29.31378 1.40709,-45.57397 -14.58383,-2.09325 -31.76919,-1.31179 -46.4168,-0.2179 -3.02713,15.0872 -1.36899,30.50916 -1.7865,45.79187 m 63.50866,-46.94055 v 46.94055 h 46.79579 c -0.37133,-15.64686 -0.74278,-31.2937 -1.11412,-46.94055 z m 255.1488,41.35239 c 11.70062,14.88975 19.77569,35.667 35.09126,45.88331 137.9381,2.41331 275.95643,0.39183 413.92626,1.05723 -12.1597,-14.84142 -23.4709,-31.68105 -36.21872,-46.32896 -137.58029,-1.40432 -275.20544,-0.22065 -412.7989,-0.61158 M 284.08353,596.82269 c -54.07608,3.66791 -66.57873,90.33792 -11.06847,103.1639 37.507,13.90755 83.05275,-17.97054 74.57044,-59.81144 -4.31014,-29.39097 -35.67834,-48.03203 -63.50197,-43.35246 z m 623.94471,74.39068 c -23.13264,49.05122 101.67856,40.43322 76.56204,-11.66138 -6.7223,-20.33252 -85.25803,-23.55285 -40.60494,-42.9101 14.36289,9.82086 52.58134,4.12233 31.35662,-13.97162 -41.74179,-33.50261 -109.26161,39.16505 -43.45854,54.78807 46.85096,-1.20237 22.79461,41.05112 -8.68851,19.60096 -4.99011,-2.11271 -9.95901,-4.32219 -15.16667,-5.84593 z M 133.66841,598.56728 c 0.37132,33.90151 0.74278,67.803 1.11411,101.70451 10.89842,0.71867 23.42319,2.30243 23.70041,-0.59967 0.39011,-4.08389 3.23647,-12.01272 0.8117,-21.82439 14.17634,-19.16677 24.66197,8.70109 40.4853,21.22125 7.28029,5.76049 -3.57972,1.3707 26.36592,1.20281 -7.87454,-12.71612 -19.09916,-21.80003 -21.35523,-30.59198 -2.32838,-9.07373 14.58155,-5.91685 19.19828,-29.18227 5.062,-52.1004 -57.90437,-42.94921 -90.32049,-41.93026 z m -105.847899,1.11764 c 0.169881,33.52897 0.183291,67.05792 0,100.58687 18.937655,4.4514 29.761086,-0.0377 25.371244,-21.28951 16.084841,-10.56746 79.602495,-6.01576 64.724755,-54.47823 -13.14325,-36.98193 -60.69046,-24.83474 -90.095999,-24.81913 z m 336.484469,-1.11764 v 101.70451 c 13.45673,1.56276 28.32909,-0.23664 28.88905,-2.24293 1.75715,-6.29572 -0.82993,-15.2648 -0.9744,-25.62389 56.34016,19.16563 92.93832,-58.9339 31.29468,-72.91483 -19.50556,-4.31621 -39.50121,-0.95908 -59.20933,-0.92286 z m 105.84778,0 v 101.70451 h 80.22145 c 5.43442,-22.27004 -11.81697,-20.14931 -28.16523,-18.99975 -17.09353,1.83462 -32.72279,2.11258 -27.37508,-19.90948 6.49835,-8.3138 28.98769,-1.18645 41.63699,-3.56078 1.28728,-0.30725 5.3483,-0.24341 5.41851,-1.32591 1.03357,-15.93572 4.63905,-20.78356 -2.21585,-19.28728 -13.13592,2.8673 -9.22704,-2.55631 -16.77207,1.61345 -15.18593,0.036 -35.34365,5.10952 -28.23661,-17.44094 8.28844,-6.68992 28.7057,-0.30509 41.43522,-2.9973 17.71497,3.9136 16.29225,-29.72336 -2.70932,-19.79652 z m 96.93435,0 v 101.70451 c 9.78868,2.15153 25.95763,-0.71701 25.52226,-0.97583 -1.32979,-0.79056 -1.79948,-25.1444 -1.46517,-26.55263 0.44771,-1.8859 22.58287,-0.3698 24.29938,-0.14296 2.57568,0.34038 -15.86577,-0.88818 -12.37201,-0.92404 7.70609,-0.0791 12.27111,2.91873 15.45991,8.26041 6.75118,10.1153 10.38622,17.46322 13.80662,20.60277 2.9908,2.74523 0.43921,0.87885 13.07183,1.24406 4.85173,0.14026 15.66487,0.27673 13.05157,-1.5439 -4.79528,-3.34077 -9.36989,-14.94779 -22.14297,-30.51763 2.87791,-6.29098 9.27675,-6.42215 14.38633,-13.77342 7.83072,-11.26624 12.79764,-27.41977 -7.70722,-48.9775 -22.42229,-15.11481 -50.76584,-8.09401 -75.91053,-8.40384 z m 95.82,0 c -0.0769,9.63834 -1.58496,19.88881 -0.0936,19.94123 20.16887,0.70892 35.00204,-1.84756 32.8389,1.62051 -1.58342,2.53863 0.0513,13.25644 -0.43387,23.47126 v 56.67151 c 12.08846,-0.18 20.09401,0.054 22.75474,-0.3355 0.40899,-0.0599 1.19921,-11.64599 0.42245,-20.95265 0.51169,-20.0907 0.0768,-40.20078 0.2207,-60.29899 23.52445,-0.31766 29.81863,1.28735 32.31179,0.0993 1.32073,-0.62936 0.67746,-12.2143 0.99362,-19.50716 0.0675,-1.55589 -11.97643,-0.8022 -21.77207,-1.03369 -22.39364,0.71587 -44.83411,0.13773 -67.24267,0.32422 z m 100.27678,0 v 101.70451 c 37.81453,13.47953 23.10885,-31.01545 25.62633,-53.11268 v -48.59179 h -25.62633 m 47.91001,0 v 101.70452 c 26.14505,-0.0516 52.29141,0.14725 78.43507,-0.20093 8.89247,-22.20043 -8.87442,-19.86615 -25.26463,-18.79881 -15.23328,-0.0614 -35.48866,5.2291 -29.52654,-17.41875 4.17357,-11.07546 28.99463,-2.70483 41.54941,-5.88673 16.99684,-2.47165 5.51659,-29.1031 -12.4445,-19.16454 -15.18386,0.036 -35.06109,5.10149 -29.20115,-17.41354 7.87405,-6.71927 28.66318,-0.37501 41.29064,-2.98283 17.11157,6.66609 20.64726,-28.28157 1.97312,-19.83839 z m -521.43937,19.32401 c 51.41249,-5.31024 35.57853,87.35465 -12.13976,59.4599 -25.55853,-13.83881 -18.70429,-58.55139 12.13976,-59.4599 z M 53.446845,652.21366 C 48.181544,626.30691 57.23297,604.679 87.414266,622.11958 109.3971,648.01175 72.151686,657.08439 53.446845,652.21366 Z m 105.847785,0 c 0.85094,-10.9595 -1.31865,-26.46806 0.20374,-29.3598 2.60243,-4.94325 22.07034,-8.53915 37.01,3.5148 12.80662,26.45874 -20.56594,28.31605 -37.21374,25.845 z m 229.52257,0 c 1.6896,-11.7105 -0.72709,-22.47649 0.98118,-30.80875 1.53521,-7.4881 31.3008,-1.73724 34.09841,1.23232 20.70976,26.02149 -16.8446,34.29124 -35.07959,29.57643 z m 202.78191,0 c -2.51329,-14.86332 0.57469,-25.83803 -0.63032,-33.5692 -0.39248,-2.51807 21.62432,-0.98873 24.78947,0.10476 8.57346,2.96195 9.61115,1.52634 13.09547,7.2732 12.76098,26.28176 -20.58629,28.653 -37.25462,26.19124 z M 55.675505,711.44815 c 5.439182,10.0591 29.099191,1.52648 41.805031,4.171 298.037344,-2.13541 596.074684,-4.27083 894.112044,-6.40626 -5.4392,-10.05908 -29.09921,-1.52647 -41.80505,-4.17098 -298.03734,2.1354 -596.07469,4.27082 -894.112025,6.40624 z m 250.692125,88.29294 c -2.46772,-5.90346 -6.49622,-12.27395 -10.95033,-10.45217 -14.33797,5.86438 -42.13016,17.63277 -43.77574,-16.29504 -2.62466,-19.85071 16.39326,-26.39073 24.7069,-26.20092 7.44536,0.16998 13.14588,6.33856 13.9832,8.53417 2.75202,7.2163 10.56974,-0.87782 14.46023,-8.55412 2.40154,-4.73845 -8.12054,-6.43409 -10.95698,-9.68215 -52.00603,-29.33034 -90.48432,63.86074 -29.1234,75.10395 14.76925,2.43162 30.53186,-2.34355 41.65612,-12.45372 z m 373.25258,-65.36163 c -46.06101,8.23726 -35.74321,84.56808 12.09608,78.25013 64.07994,-0.24434 47.6774,-94.85418 -12.09608,-78.25013 z m 153.7578,55.30294 c -17.32235,44.6084 94.40646,18.61387 48.18206,-17.07731 -19.87897,-0.75149 -51.66022,-28.36064 -11.75339,-23.63337 42.24763,4.29697 -7.57107,-30.08583 -27.37639,-12.3101 -36.46686,26.04324 12.68108,42.00591 29.98331,53.82706 -7.49743,14.88694 -28.17465,3.1338 -39.03559,-0.8063 m -708.62283,5.58817 c 14.89928,-1.32982 29.39497,-1.27262 41.42815,0.96954 4.74613,0.88436 -7.07712,15.66583 9.10921,15.40258 7.41421,0.54538 10.20065,-2.89825 10.46848,-13.28369 0.1329,-5.15373 6.7067,-3.16516 9.38042,-4.68853 0.94186,-0.53663 1.39975,-1.50906 0.92164,-3.38303 0.69517,-3.38983 5.27791,-9.44785 0.77324,-9.13029 -3.87771,0.27335 -13.23212,1.69435 -12.72926,-2.63248 2.53694,-21.82871 -3.70862,-6.33188 -1.41422,-13.43017 -3.76013,-0.52469 -10.47469,-1.44054 -14.75167,1.94928 -2.22295,1.76186 1.11505,12.94301 -1.70273,12.63441 -8.97824,-0.9833 -15.059,6.13118 -17.39061,-2.94428 10.16749,-13.9385 20.33497,-27.87699 30.50247,-41.81548 -5.8272,-0.96046 -12.68706,-6.57122 -18.54595,0.71526 -11.26298,14.00732 -24.96339,34.64343 -34.93666,47.34734 -2.98454,3.80171 -0.32874,8.36457 -1.11251,12.28954 z m 191.64013,-60.35214 c 0.79987,25.0718 -1.5963,50.7347 1.14504,75.32461 20.80846,1.71808 21.23132,3.09208 21.33148,-2.88433 0.15899,-9.48706 -6.15719,-24.95695 11.6411,-16.52762 6.50185,8.03916 12.43967,20.87309 16.52774,21.6338 4.93476,0.91826 10.89882,1.01699 17.31997,-0.42985 7.97113,-4.85793 -19.81754,-24.16536 -15.48574,-25.9709 16.28698,-6.78857 29.08139,-42.99317 -14.37386,-50.9325 -12.66064,-1.54724 -25.40909,-0.28459 -38.10573,-0.21321 z m 80.22145,0 c 0.49503,25.3275 -1.36456,50.76855 1.78638,75.96795 19.40577,1.93632 38.91557,0.88747 58.37972,1.14866 7.22309,-22.5001 -15.72355,-14.43309 -29.51011,-15.64684 -36.33794,-3.30619 12.67655,-25.97752 23.7622,-19.24958 8.7718,-25.87697 -57.33319,-0.017 -30.56107,-28.6677 12.66163,-2.70605 39.03485,10.03381 35.03267,-11.44365 -10.21572,-4.90817 -30.14215,-0.71236 -44.10356,-2.10884 h -14.78658 m 64.6228,77.11661 c 21.74808,-0.99436 48.30966,-38.90618 66.5159,-1.792 31.601,11.9715 9.52647,-18.99902 4.26235,-33.46314 -6.13719,-13.95381 -12.27428,-27.90763 -18.41136,-41.86143 -34.15677,-7.86406 -41.92723,54.68436 -52.36689,77.1166 m 79.10733,-77.1166 c -10.22134,26.03318 26.32067,4.4148 24.64513,22.00267 0.3271,18.37131 0.6541,36.74262 0.98111,55.11393 21.97299,7.106 18.4478,-11.62192 17.82711,-27.40719 3.74361,-11.2559 -9.14412,-39.36219 9.8367,-35.1802 22.04598,7.02031 18.09419,-23.55835 -2.53891,-14.52927 h -50.75114 m 76.87891,0 c 4.63941,19.35938 -6.59602,101.92839 18.9411,69.64192 v -69.64192 z m 128.13144,0 c 0.25996,25.12669 -0.79089,50.29164 1.17262,75.36861 22.41787,9.56665 16.14669,-13.10019 16.65438,-28.15074 -0.87859,-41.97007 27.57698,41.81033 50.89841,29.22437 5.35896,-22.94826 1.31157,-48.8613 2.58259,-73.13974 -11.3749,-11.98 -25.45051,2.02512 -18.38249,19.11442 3.89903,25.16491 -2.94407,21.43584 -15.19694,3.15533 -10.73985,-11.73077 -19.19739,-29.81927 -37.72857,-25.57225 z m -408.90658,13.41158 c 43.78704,-10.93324 21.41037,46.63714 -0.8987,20.72721 0.29953,-6.90906 0.59895,-13.81814 0.89837,-20.72721 m 350.96891,0.3363 c 52.41102,-4.22891 12.67363,82.04683 -16.43346,35.57615 -6.53384,-13.56634 -0.0594,-33.89038 16.43346,-35.57615 z m -183.84078,4.13423 c 3.38331,12.44885 21.12512,34.71025 -3.61333,27.9408 -18.6326,4.57128 3.24751,-19.62891 3.61333,-27.9408 z"
       id="path1" />
  </g>
</svg>
