<?xml version="1.0" encoding="UTF-8" standalone="no"?>
<!-- Created with Inkscape (http://www.inkscape.org/) -->

<svg
   version="1.1"
   id="svg1"
   width="1025.5947"
   height="1686.4703"
   viewBox="0 0 1025.5947 1686.4703"
   sodipodi:docname="brand_logo_svg.svg"
   inkscape:version="1.4.2 (f4327f4, 2025-05-13)"
   xmlns:inkscape="http://www.inkscape.org/namespaces/inkscape"
   xmlns:sodipodi="http://sodipodi.sourceforge.net/DTD/sodipodi-0.dtd"
   xmlns="http://www.w3.org/2000/svg"
   xmlns:svg="http://www.w3.org/2000/svg">
  <sodipodi:namedview
     id="namedview1"
     pagecolor="#ffffff"
     bordercolor="#000000"
     borderopacity="0.25"
     inkscape:showpageshadow="2"
     inkscape:pageopacity="0.0"
     inkscape:pagecheckerboard="0"
     inkscape:deskcolor="#d1d1d1"
     inkscape:zoom="0.50460419"
     inkscape:cx="513.27358"
     inkscape:cy="1002.7661"
     inkscape:window-width="1100"
     inkscape:window-height="288"
     inkscape:window-x="160"
     inkscape:window-y="160"
     inkscape:window-maximized="0"
     inkscape:current-layer="g2" />
  <defs
     id="defs1" />
  <g
     id="g2"
     transform="translate(15.85401,-558.85386)">
    <g
       inkscape:groupmode="layer"
       id="layer1"
       inkscape:label="Text">
      <g
         id="path1"
         style="opacity:1"
         transform="translate(0,662.47035)"
         inkscape:highlight-color="#19155b">
        <path
           style="baseline-shift:baseline;display:none;overflow:visible;vector-effect:none;fill:#3a3178;enable-background:accumulate;stop-color:#000000;stop-opacity:1"
           d="m 2.1946106,857.8579 c 2.602806,-26.80745 0.369173,-58.51498 1.114221,-87.20468 0,0 1018.3667684,-141.84 1018.3667684,87.20468 7.8593,-7.28506 1.0741,-29.40736 3.3427,-42.35655 0,0 -1021.1134997,-81.66733 -1022.8236894,42.35655 z M 284.08353,596.82269 c -54.07608,3.66791 -66.57873,90.33792 -11.06847,103.1639 37.507,13.90755 83.05275,-17.97054 74.57044,-59.81144 -4.31014,-29.39097 -35.67834,-48.03203 -63.50197,-43.35246 z m 623.94471,74.39068 c -23.13264,49.05122 101.67856,40.43322 76.56204,-11.66138 -6.7223,-20.33252 -85.25803,-23.55285 -40.60494,-42.9101 14.36289,9.82086 52.58134,4.12233 31.35662,-13.97162 -41.74179,-33.50261 -109.26161,39.16505 -43.45854,54.78807 46.85096,-1.20237 22.79461,41.05112 -8.68851,19.60096 -4.99011,-2.11271 -9.95901,-4.32219 -15.16667,-5.84593 z M 133.66841,598.56728 c 0.37132,33.90151 0.74278,67.803 1.11411,101.70451 10.89842,0.71867 23.42319,2.30243 23.70041,-0.59967 0.39011,-4.08389 3.23647,-12.01272 0.8117,-21.82439 14.17634,-19.16677 24.66197,8.70109 40.4853,21.22125 7.28029,5.76049 -3.57972,1.3707 26.36592,1.20281 -7.87454,-12.71612 -19.09916,-21.80003 -21.35523,-30.59198 -2.32838,-9.07373 14.58155,-5.91685 19.19828,-29.18227 5.062,-52.1004 -57.90437,-42.94921 -90.32049,-41.93026 z m -105.847899,1.11764 c 0.169881,33.52897 0.183291,67.05792 0,100.58687 18.937655,4.4514 29.761086,-0.0377 25.371244,-21.28951 16.084841,-10.56746 79.602495,-6.01576 64.724755,-54.47823 -13.14325,-36.98193 -60.69046,-24.83474 -90.095999,-24.81913 z m 336.484469,-1.11764 v 101.70451 c 13.45673,1.56276 28.32909,-0.23664 28.88905,-2.24293 1.75715,-6.29572 -0.82993,-15.2648 -0.9744,-25.62389 56.34016,19.16563 92.93832,-58.9339 31.29468,-72.91483 -19.50556,-4.31621 -39.50121,-0.95908 -59.20933,-0.92286 z m 105.84778,0 v 101.70451 h 80.22145 c 5.43442,-22.27004 -11.81697,-20.14931 -28.16523,-18.99975 -17.09353,1.83462 -32.72279,2.11258 -27.37508,-19.90948 6.49835,-8.3138 28.98769,-1.18645 41.63699,-3.56078 1.28728,-0.30725 5.3483,-0.24341 5.41851,-1.32591 1.03357,-15.93572 4.63905,-20.78356 -2.21585,-19.28728 -13.13592,2.8673 -9.22704,-2.55631 -16.77207,1.61345 -15.18593,0.036 -35.34365,5.10952 -28.23661,-17.44094 8.28844,-6.68992 28.7057,-0.30509 41.43522,-2.9973 17.71497,3.9136 16.29225,-29.72336 -2.70932,-19.79652 z m 96.93435,0 v 101.70451 c 9.78868,2.15153 25.95763,-0.71701 25.52226,-0.97583 -1.32979,-0.79056 -1.79948,-25.1444 -1.46517,-26.55263 0.44771,-1.8859 22.58287,-0.3698 24.29938,-0.14296 2.57568,0.34038 -15.86577,-0.88818 -12.37201,-0.92404 7.70609,-0.0791 12.27111,2.91873 15.45991,8.26041 6.75118,10.1153 10.38622,17.46322 13.80662,20.60277 2.9908,2.74523 0.43921,0.87885 13.07183,1.24406 4.85173,0.14026 15.66487,0.27673 13.05157,-1.5439 -4.79528,-3.34077 -9.36989,-14.94779 -22.14297,-30.51763 2.87791,-6.29098 9.27675,-6.42215 14.38633,-13.77342 7.83072,-11.26624 12.79764,-27.41977 -7.70722,-48.9775 -22.42229,-15.11481 -50.76584,-8.09401 -75.91053,-8.40384 z m 95.82,0 c -0.0769,9.63834 -1.58496,19.88881 -0.0936,19.94123 20.16887,0.70892 35.00204,-1.84756 32.8389,1.62051 -1.58342,2.53863 0.0513,13.25644 -0.43387,23.47126 v 56.67151 c 12.08846,-0.18 20.09401,0.054 22.75474,-0.3355 0.40899,-0.0599 1.19921,-11.64599 0.42245,-20.95265 0.51169,-20.0907 0.0768,-40.20078 0.2207,-60.29899 23.52445,-0.31766 29.81863,1.28735 32.31179,0.0993 1.32073,-0.62936 0.67746,-12.2143 0.99362,-19.50716 0.0675,-1.55589 -11.97643,-0.8022 -21.77207,-1.03369 -22.39364,0.71587 -44.83411,0.13773 -67.24267,0.32422 z m 100.27678,0 v 101.70451 c 37.81453,13.47953 23.10885,-31.01545 25.62633,-53.11268 v -48.59179 h -25.62633 m 47.91001,0 v 101.70452 c 26.14505,-0.0516 52.29141,0.14725 78.43507,-0.20093 8.89247,-22.20043 -8.87442,-19.86615 -25.26463,-18.79881 -15.23328,-0.0614 -35.48866,5.2291 -29.52654,-17.41875 4.17357,-11.07546 28.99463,-2.70483 41.54941,-5.88673 16.99684,-2.47165 5.51659,-29.1031 -12.4445,-19.16454 -15.18386,0.036 -35.06109,5.10149 -29.20115,-17.41354 7.87405,-6.71927 28.66318,-0.37501 41.29064,-2.98283 17.11157,6.66609 20.64726,-28.28157 1.97312,-19.83839 z m -521.43937,19.32401 c 51.41249,-5.31024 35.57853,87.35465 -12.13976,59.4599 -25.55853,-13.83881 -18.70429,-58.55139 12.13976,-59.4599 z M 53.446845,652.21366 C 48.181544,626.30691 57.23297,604.679 87.414266,622.11958 109.3971,648.01175 72.151686,657.08439 53.446845,652.21366 Z m 105.847785,0 c 0.85094,-10.9595 -1.31865,-26.46806 0.20374,-29.3598 2.60243,-4.94325 22.07034,-8.53915 37.01,3.5148 12.80662,26.45874 -20.56594,28.31605 -37.21374,25.845 z m 229.52257,0 c 1.6896,-11.7105 -0.72709,-22.47649 0.98118,-30.80875 1.53521,-7.4881 31.3008,-1.73724 34.09841,1.23232 20.70976,26.02149 -16.8446,34.29124 -35.07959,29.57643 z m 202.78191,0 c -2.51329,-14.86332 0.57469,-25.83803 -0.63032,-33.5692 -0.39248,-2.51807 21.62432,-0.98873 24.78947,0.10476 8.57346,2.96195 9.61115,1.52634 13.09547,7.2732 12.76098,26.28176 -20.58629,28.653 -37.25462,26.19124 z M 55.675505,711.44815 c 5.439182,10.0591 29.099191,1.52648 41.805031,4.171 298.037344,-2.13541 596.074684,-4.27083 894.112044,-6.40626 -5.4392,-10.05908 -29.09921,-1.52647 -41.80505,-4.17098 -298.03734,2.1354 -596.07469,4.27082 -894.112025,6.40624 z m 250.692125,88.29294 c -2.46772,-5.90346 -6.49622,-12.27395 -10.95033,-10.45217 -14.33797,5.86438 -42.13016,17.63277 -43.77574,-16.29504 -2.62466,-19.85071 16.39326,-26.39073 24.7069,-26.20092 7.44536,0.16998 13.14588,6.33856 13.9832,8.53417 2.75202,7.2163 10.56974,-0.87782 14.46023,-8.55412 2.40154,-4.73845 -8.12054,-6.43409 -10.95698,-9.68215 -52.00603,-29.33034 -90.48432,63.86074 -29.1234,75.10395 14.76925,2.43162 30.53186,-2.34355 41.65612,-12.45372 z m 373.25258,-65.36163 c -46.06101,8.23726 -35.74321,84.56808 12.09608,78.25013 64.07994,-0.24434 47.6774,-94.85418 -12.09608,-78.25013 z m 153.7578,55.30294 c -17.32235,44.6084 94.40646,18.61387 48.18206,-17.07731 -19.87897,-0.75149 -51.66022,-28.36064 -11.75339,-23.63337 42.24763,4.29697 -7.57107,-30.08583 -27.37639,-12.3101 -36.46686,26.04324 12.68108,42.00591 29.98331,53.82706 -7.49743,14.88694 -28.17465,3.1338 -39.03559,-0.8063 m -708.62283,5.58817 c 14.89928,-1.32982 29.39497,-1.27262 41.42815,0.96954 4.74613,0.88436 -7.07712,15.66583 9.10921,15.40258 7.41421,0.54538 10.20065,-2.89825 10.46848,-13.28369 0.1329,-5.15373 6.7067,-3.16516 9.38042,-4.68853 0.94186,-0.53663 1.39975,-1.50906 0.92164,-3.38303 0.69517,-3.38983 5.27791,-9.44785 0.77324,-9.13029 -3.87771,0.27335 -13.23212,1.69435 -12.72926,-2.63248 2.53694,-21.82871 -3.70862,-6.33188 -1.41422,-13.43017 -3.76013,-0.52469 -10.47469,-1.44054 -14.75167,1.94928 -2.22295,1.76186 1.11505,12.94301 -1.70273,12.63441 -8.97824,-0.9833 -15.059,6.13118 -17.39061,-2.94428 10.16749,-13.9385 20.33497,-27.87699 30.50247,-41.81548 -5.8272,-0.96046 -12.68706,-6.57122 -18.54595,0.71526 -11.26298,14.00732 -24.96339,34.64343 -34.93666,47.34734 -2.98454,3.80171 -0.32874,8.36457 -1.11251,12.28954 z m 191.64013,-60.35214 c 0.79987,25.0718 -1.5963,50.7347 1.14504,75.32461 20.80846,1.71808 21.23132,3.09208 21.33148,-2.88433 0.15899,-9.48706 -6.15719,-24.95695 11.6411,-16.52762 6.50185,8.03916 12.43967,20.87309 16.52774,21.6338 4.93476,0.91826 10.89882,1.01699 17.31997,-0.42985 7.97113,-4.85793 -19.81754,-24.16536 -15.48574,-25.9709 16.28698,-6.78857 29.08139,-42.99317 -14.37386,-50.9325 -12.66064,-1.54724 -25.40909,-0.28459 -38.10573,-0.21321 z m 80.22145,0 c 0.49503,25.3275 -1.36456,50.76855 1.78638,75.96795 19.40577,1.93632 38.91557,0.88747 58.37972,1.14866 7.22309,-22.5001 -15.72355,-14.43309 -29.51011,-15.64684 -36.33794,-3.30619 12.67655,-25.97752 23.7622,-19.24958 8.7718,-25.87697 -57.33319,-0.017 -30.56107,-28.6677 12.66163,-2.70605 39.03485,10.03381 35.03267,-11.44365 -10.21572,-4.90817 -30.14215,-0.71236 -44.10356,-2.10884 h -14.78658 m 64.6228,77.11661 c 21.74808,-0.99436 48.30966,-38.90618 66.5159,-1.792 31.601,11.9715 9.52647,-18.99902 4.26235,-33.46314 -6.13719,-13.95381 -12.27428,-27.90763 -18.41136,-41.86143 -34.15677,-7.86406 -41.92723,54.68436 -52.36689,77.1166 m 79.10733,-77.1166 c -10.22134,26.03318 26.32067,4.4148 24.64513,22.00267 0.3271,18.37131 0.6541,36.74262 0.98111,55.11393 21.97299,7.106 18.4478,-11.62192 17.82711,-27.40719 3.74361,-11.2559 -9.14412,-39.36219 9.8367,-35.1802 22.04598,7.02031 18.09419,-23.55835 -2.53891,-14.52927 h -50.75114 m 76.87891,0 c 4.63941,19.35938 -6.59602,101.92839 18.9411,69.64192 v -69.64192 z m 128.13144,0 c 0.25996,25.12669 -0.79089,50.29164 1.17262,75.36861 22.41787,9.56665 16.14669,-13.10019 16.65438,-28.15074 -0.87859,-41.97007 27.57698,41.81033 50.89841,29.22437 5.35896,-22.94826 1.31157,-48.8613 2.58259,-73.13974 -11.3749,-11.98 -25.45051,2.02512 -18.38249,19.11442 3.89903,25.16491 -2.94407,21.43584 -15.19694,3.15533 -10.73985,-11.73077 -19.19739,-29.81927 -37.72857,-25.57225 z m -408.90658,13.41158 c 43.78704,-10.93324 21.41037,46.63714 -0.8987,20.72721 0.29953,-6.90906 0.59895,-13.81814 0.89837,-20.72721 m 350.96891,0.3363 c 52.41102,-4.22891 12.67363,82.04683 -16.43346,35.57615 -6.53384,-13.56634 -0.0594,-33.89038 16.43346,-35.57615 z m -183.84078,4.13423 c 3.38331,12.44885 21.12512,34.71025 -3.61333,27.9408 -18.6326,4.57128 3.24751,-19.62891 3.61333,-27.9408 z"
           id="path4" />
        <path
           style="baseline-shift:baseline;display:none;overflow:visible;vector-effect:none;fill:#000077;enable-background:accumulate;stop-color:#000000;stop-opacity:1"
           d="m 950.18945,593.53711 c -2.89244,0.0353 -5.7684,0.36747 -8.58593,0.95898 -11.27014,2.36606 -21.63422,8.83954 -28.63086,16.875 -6.99665,8.03546 -10.64727,17.66547 -8.32813,26.33008 2.31914,8.66461 10.60852,16.23221 27.14453,20.1582 l 0.0508,0.0117 h 0.0547 c 11.65178,-0.29902 18.82911,2.11717 22.54883,5.46485 3.71971,3.34768 4.08172,7.59285 2.10742,11.32226 -3.94859,7.45882 -17.52587,12.68726 -33.12305,2.06055 l -0.0352,-0.0234 -0.0371,-0.0156 c -4.98557,-2.11079 -9.96805,-4.32728 -15.21094,-5.86133 l -0.33789,-0.0996 -0.15039,0.31836 c -2.92107,6.19394 -3.52702,11.53133 -2.34766,16 1.17937,4.46867 4.13891,8.03902 8.23047,10.71875 8.18314,5.35945 20.90078,7.24111 33.55469,5.9668 12.65391,-1.27432 25.25255,-5.71214 33.16016,-13.17383 7.89993,-7.45445 11.03716,-18.00854 4.72265,-31.13867 -1.76015,-5.30108 -8.03842,-9.31705 -15.67578,-12.79297 -7.64316,-3.47856 -16.70225,-6.39323 -24.13086,-9.26953 -3.7143,-1.43816 -7.01972,-2.86766 -9.52344,-4.33789 -2.50371,-1.47024 -4.17572,-2.98919 -4.71093,-4.49415 -0.26761,-0.75247 -0.27678,-1.50292 0.0254,-2.32617 0.30216,-0.82325 0.93046,-1.71934 1.95508,-2.67968 2.02319,-1.89629 5.61625,-4.0292 11.05664,-6.40235 7.39036,4.90837 20.39895,5.8877 29.14843,3.41406 4.41524,-1.24826 7.80642,-3.39614 8.69141,-6.54296 0.44249,-1.57342 0.22586,-3.36181 -0.76758,-5.29883 -0.99343,-1.93702 -2.75517,-4.03726 -5.43555,-6.32227 l -0.004,-0.004 -0.006,-0.004 c -7.90083,-6.34133 -16.73284,-8.91847 -25.41016,-8.8125 z m 0.006,0.82031 c 8.50337,-0.10899 17.13633,2.41261 24.88867,8.63477 2.61968,2.23487 4.30489,4.26735 5.22657,6.06445 0.92293,1.79955 1.08916,3.34738 0.70898,4.69922 -0.76036,2.70367 -3.8414,4.76216 -8.12305,5.97266 -8.56329,2.421 -21.66748,1.36758 -28.67773,-3.42579 l -0.18945,-0.1289 -0.20703,0.0898 c -5.60377,2.42925 -9.29424,4.60459 -11.47071,6.64453 -1.08823,1.01997 -1.80212,2.01195 -2.16406,2.99805 -0.36194,0.9861 -0.3559,1.96639 -0.0293,2.88477 0.65321,1.83675 2.49494,3.41541 5.07032,4.92773 2.57537,1.51232 5.91254,2.95148 9.64453,4.39648 7.46397,2.89 16.50841,5.80327 24.08593,9.25196 7.57753,3.44868 13.6337,7.45525 15.24024,12.31445 l 0.008,0.0254 0.0117,0.0234 c 6.21923,12.89941 3.17633,22.94581 -4.53125,30.21875 -7.70758,7.27294 -20.15803,11.69252 -32.67578,12.95312 -12.51775,1.26061 -25.09346,-0.64356 -33.02149,-5.83593 -3.96401,-2.59619 -6.76436,-5.99499 -7.88476,-10.24024 -1.09826,-4.16134 -0.55813,-9.17949 2.1582,-15.0918 5.03873,1.50774 9.88299,3.63514 14.75781,5.69922 15.86188,10.77007 30.02548,5.60613 34.25782,-2.38867 2.11881,-4.00239 1.67755,-8.75394 -2.28516,-12.32031 -3.95282,-3.55747 -11.31853,-5.96368 -23.04102,-5.67578 -16.34706,-3.88723 -24.28937,-11.25758 -26.51171,-19.56055 -2.22358,-8.30759 1.27669,-17.67967 8.15234,-25.57617 6.87565,-7.89651 17.10632,-14.28463 28.17969,-16.60938 2.76834,-0.58118 5.58742,-0.90898 8.42187,-0.94531 z m -655.55664,1.36524 c -3.55648,-0.11957 -7.11679,0.10365 -10.62305,0.69336 -27.23096,1.86816 -44.00632,24.62977 -46.9707,48.5039 -1.48291,11.94291 0.47867,24.18084 6.32031,34.25781 5.84165,10.07698 15.57661,17.98077 29.55664,21.21094 37.78522,13.96706 83.59382,-18.14058 75.07032,-60.27344 -3.80463,-25.94389 -28.45817,-43.55564 -53.35352,-44.39257 z m 245.05078,0.59961 c -1.86918,0.0374 -4.00742,0.61274 -6.3789,1.83398 h -63.57032 v 102.52734 h 80.95704 l 0.0781,-0.31445 c 1.37015,-5.61482 1.32563,-9.74084 0.17383,-12.76953 -1.1518,-3.02869 -3.42868,-4.91199 -6.3457,-5.99609 -5.83406,-2.16822 -14.25727,-1.31644 -22.42383,-0.74219 h -0.008 l -0.008,0.002 c -8.53571,0.91613 -16.67514,1.40448 -21.88672,-0.97461 -2.60579,-1.18954 -4.48717,-3.05522 -5.43359,-5.99219 -0.93907,-2.91416 -0.92059,-6.92946 0.375,-12.32617 1.53994,-1.92769 4.01967,-3.00778 7.15234,-3.53125 3.16461,-0.5288 6.95521,-0.49568 10.95118,-0.27344 7.99192,0.4445 16.78298,1.65053 23.2246,0.44141 l 0.01,-0.002 0.01,-0.002 c 0.54221,-0.12941 1.9136,-0.20395 3.125,-0.36523 0.60569,-0.0806 1.17809,-0.18393 1.64453,-0.35547 0.23322,-0.0858 0.44358,-0.18668 0.62109,-0.33789 0.17751,-0.1512 0.32666,-0.37914 0.34375,-0.64258 0.51496,-7.93967 1.67142,-13.08874 1.84961,-16.18359 0.0445,-0.77371 0.0302,-1.42179 -0.0879,-1.97266 -0.1181,-0.55086 -0.35281,-1.01794 -0.74609,-1.33593 -0.78657,-0.63599 -1.97881,-0.60696 -3.73047,-0.22461 -6.5234,1.42392 -8.6761,0.80047 -10.27735,0.32617 -0.80062,-0.23715 -1.52194,-0.46035 -2.50586,-0.32617 -0.95542,0.13029 -2.16825,0.61915 -3.98046,1.60937 -7.62102,0.0261 -16.41307,1.26145 -22.29688,-0.24219 -2.95165,-0.75431 -5.13271,-2.14883 -6.20312,-4.70703 -1.05986,-2.53295 -1.00145,-6.32149 0.70898,-11.82031 3.98261,-3.13017 11.00789,-3.26892 18.66406,-2.84961 7.68944,0.42114 15.95836,1.34926 22.42188,0 4.49321,0.95704 7.88836,-0.45288 10.01953,-2.98437 2.14887,-2.55252 3.05464,-6.17703 2.78906,-9.61133 -0.26558,-3.43431 -1.70892,-6.70952 -4.375,-8.49805 -1.33304,-0.89426 -2.96143,-1.3974 -4.86133,-1.35937 z m -245.08203,0.22656 c 24.50996,0.83286 48.8322,18.19524 52.57031,43.68554 l 0.002,0.0117 0.002,0.0117 c 8.41715,41.51951 -36.81081,73.1402 -74.02344,59.3418 l -0.0254,-0.008 -0.0254,-0.006 c -13.77509,-3.18282 -23.2928,-10.92473 -29.0293,-20.82032 -5.73649,-9.89558 -7.67831,-21.9578 -6.21484,-33.74414 2.92695,-23.57267 19.42647,-45.96783 46.24805,-47.78711 l 0.0195,-0.002 0.0215,-0.004 c 3.44965,-0.58019 6.95366,-0.79867 10.45508,-0.67969 z m 311.47461,0.24609 c -13.07531,-0.17521 -26.45813,1.51575 -38.99023,1.36133 l -0.41602,-0.006 v 102.45313 l 0.32227,0.0703 c 4.97829,1.09421 11.48944,0.90638 16.72265,0.42383 2.61661,-0.24128 4.91014,-0.55837 6.5293,-0.83204 0.80958,-0.13683 1.45026,-0.26075 1.88477,-0.36328 0.21725,-0.0513 0.37847,-0.095 0.50585,-0.14062 0.0637,-0.0228 0.11146,-0.0355 0.20118,-0.0996 0.0448,-0.0321 0.13419,-0.0706 0.17773,-0.25977 0.0218,-0.0946 10e-4,-0.22631 -0.0488,-0.31054 -0.0499,-0.0842 -0.10792,-0.12515 -0.15039,-0.15039 0.11427,0.0679 0.005,-0.004 -0.0605,-0.19336 -0.0652,-0.18963 -0.13554,-0.47717 -0.20313,-0.83789 -0.13517,-0.72146 -0.26078,-1.73621 -0.37305,-2.9375 -0.22452,-2.4026 -0.39877,-5.55922 -0.51953,-8.73633 -0.12075,-3.17711 -0.18927,-6.3748 -0.20703,-8.86328 -0.009,-1.24424 -0.005,-2.31141 0.0117,-3.10743 0.008,-0.398 0.0191,-0.72877 0.0332,-0.97656 0.0141,-0.24778 0.0387,-0.43334 0.043,-0.45117 -0.0168,0.0707 -0.026,0.0259 0.10938,-0.041 0.13539,-0.0669 0.37145,-0.14187 0.67773,-0.20703 0.61256,-0.13031 1.50883,-0.22601 2.58008,-0.28515 2.14249,-0.11829 4.9985,-0.0993 7.89453,-0.0137 0.89134,0.0263 1.62969,0.0805 2.50977,0.11718 0.95258,0.0797 1.9119,0.16232 3.08789,0.2461 4.45444,1.05981 7.46153,3.62138 9.77343,7.49414 l 0.006,0.008 0.006,0.01 c 6.73795,10.09547 10.31995,17.41996 13.86914,20.67773 0.74334,0.6823 1.14493,1.09299 1.60352,1.35547 0.45859,0.26247 0.94008,0.30591 1.62109,0.26562 1.36203,-0.0806 3.81839,-0.45157 10.11524,-0.26953 2.43084,0.0703 6.35074,0.14044 9.36133,-0.0371 1.50529,-0.0888 2.76816,-0.22765 3.57812,-0.49804 0.40498,-0.1352 0.7681,-0.27801 0.9043,-0.69922 0.0681,-0.21061 0.0132,-0.45237 -0.0957,-0.62305 -0.10893,-0.17068 -0.25904,-0.30306 -0.44921,-0.43555 -2.26444,-1.57758 -4.62655,-5.29019 -7.9668,-10.55664 -3.30197,-5.20609 -7.62296,-11.94167 -13.90625,-19.63476 1.39687,-2.89438 3.54959,-4.44196 6.08008,-6.13477 2.59486,-1.73588 5.53853,-3.6517 8.13867,-7.39258 3.94473,-5.67537 7.19318,-12.62212 6.8457,-20.88086 -0.34747,-8.25873 -4.2925,-17.78709 -14.5918,-28.61523 l -0.0312,-0.0332 -0.0371,-0.0254 c -11.30238,-7.61891 -24.07117,-9.65877 -37.14649,-9.83399 z m 277.84766,0.0762 c -1.71629,-0.14196 -3.75454,0.24715 -6.08789,1.28516 h -67.16016 v 102.5293 l 0.41211,-0.002 c 26.14242,-0.0516 52.292,0.14709 78.44141,-0.20117 l 0.27343,-0.004 0.10352,-0.25391 c 2.2398,-5.59175 2.82868,-9.68365 2.12695,-12.70117 -0.70172,-3.01752 -2.73855,-4.90109 -5.51367,-5.96289 -5.55024,-2.12361 -14.10181,-1.23225 -22.28711,-0.69922 -7.65901,-0.0278 -16.51257,1.2516 -22.58789,-0.22852 -3.04116,-0.74091 -5.35013,-2.13151 -6.58594,-4.6914 -1.23413,-2.55641 -1.40012,-6.36516 0.0703,-11.96289 0.99377,-2.61271 3.16859,-4.07068 6.19531,-4.8711 3.03533,-0.8027 6.89093,-0.90075 11.02344,-0.74609 8.26042,0.30914 17.60029,1.62966 24.02343,0.006 4.33937,-0.64079 6.96375,-2.86876 8.04688,-5.6875 1.08599,-2.82621 0.65574,-6.19185 -0.88477,-9.14063 -1.5405,-2.94878 -4.20474,-5.49822 -7.65234,-6.67383 -3.42008,-1.16621 -7.60411,-0.94531 -12.13672,1.5293 -7.61628,0.0275 -16.32945,1.2597 -22.29883,-0.24219 -2.99633,-0.75387 -5.26679,-2.15474 -6.48242,-4.71679 -1.20294,-2.5353 -1.35233,-6.31233 0.0508,-11.79493 3.77521,-3.1264 10.78319,-3.28887 18.46289,-2.87304 7.70332,0.41711 16.01848,1.34916 22.42774,0.0527 4.33647,1.64198 7.9315,0.68948 10.45117,-1.58398 2.54527,-2.29657 4.03358,-5.86295 4.38672,-9.375 0.35314,-3.51205 -0.42187,-7.00207 -2.57813,-9.11328 -1.07813,-1.05561 -2.49639,-1.73271 -4.24023,-1.87696 z m -721.77539,0.0762 c -10.39829,0.18777 -20.40919,0.95472 -28.49805,1.20898 l -0.4043,0.0117 0.004,0.4043 c 0.37132,33.90151 0.7439,67.80161 1.11523,101.70312 l 0.004,0.38281 0.38086,0.0254 c 5.43972,0.35871 11.29427,0.9349 15.84766,1.0586 2.27669,0.0618 4.22469,0.0123 5.66406,-0.2461 0.71968,-0.12921 1.31484,-0.30705 1.77539,-0.58203 0.46055,-0.27498 0.80082,-0.69243 0.84961,-1.20312 0.37387,-3.91394 3.18603,-11.91183 0.83398,-21.73828 3.4603,-4.62834 6.60857,-6.35014 9.63477,-6.24414 3.05644,0.10705 6.11806,2.10564 9.27344,5.14453 6.31075,6.07776 12.89508,16.19463 20.88867,22.51953 1.80095,1.42499 2.43833,2.18807 2.97265,2.63476 0.26717,0.22335 0.56081,0.37952 0.89453,0.40821 0.33373,0.0287 0.66641,-0.038 1.15625,-0.13868 1.95938,-0.40271 6.64916,-1.52945 21.60157,-1.61328 l 0.73437,-0.004 -0.38672,-0.625 c -3.96028,-6.39522 -8.75021,-11.86067 -12.8164,-16.8125 -4.0662,-4.95183 -7.3946,-9.39434 -8.49024,-13.66407 -0.55368,-2.1577 -0.005,-3.44478 1.26172,-4.7246 1.26692,-1.27983 3.2988,-2.46935 5.57422,-4.10938 4.55083,-3.28006 10.03944,-8.43562 12.36719,-20.16602 l 0.004,-0.0195 0.002,-0.0215 c 1.27334,-13.10577 -1.74049,-22.4415 -7.51953,-28.98633 -5.77904,-6.54483 -14.27851,-10.28215 -23.91016,-12.3418 -9.63165,-2.05964 -20.41617,-2.44949 -30.81445,-2.26171 z m 231.82031,0.0332 c -9.9161,0.30468 -19.839,1.15771 -29.66992,1.17578 h -0.41211 v 102.48242 l 0.36523,0.043 c 6.76364,0.78548 13.86556,0.72481 19.36524,0.2168 2.74983,-0.25401 5.09748,-0.6178 6.81445,-1.05274 0.85848,-0.21747 1.55888,-0.45199 2.08789,-0.71093 0.52901,-0.25895 0.93508,-0.52557 1.06641,-0.9961 1.77822,-6.37121 -0.69507,-15.12707 -0.92578,-25.17578 28.09526,9.24687 51.31017,-5.48688 59.82031,-24.41602 4.28452,-9.53008 4.85555,-20.13612 0.4375,-29.25 -4.41805,-9.11387 -13.81818,-16.6935 -29.31836,-20.20898 h -0.002 c -9.80378,-2.16939 -19.71281,-2.4121 -29.62891,-2.10742 z m 145.71484,0.15234 c 1.74573,-0.0378 3.20671,0.43033 4.40235,1.23242 2.39128,1.60418 3.76079,4.63208 4.01172,7.87696 0.25092,3.24488 -0.6228,6.67408 -2.59571,9.01758 -1.9729,2.34349 -5.00987,3.653 -9.31836,2.70117 l -0.0879,-0.0195 -0.0859,0.0195 c -6.25662,1.32323 -14.52723,0.41458 -22.27539,-0.01 -7.74815,-0.42435 -15.01125,-0.39919 -19.33398,3.08985 l -0.0977,0.0781 -0.0371,0.11719 c -1.79221,5.68664 -1.89384,9.69563 -0.70898,12.52734 1.18486,2.83171 3.66212,4.39588 6.75977,5.1875 6.19528,1.58324 15.03256,0.28157 22.58007,0.26367 l 0.10547,-0.002 0.0937,-0.0508 c 1.86635,-1.03144 2.99679,-1.44931 3.8125,-1.56055 0.81571,-0.11124 1.35288,0.0617 2.16016,0.30078 1.61455,0.47825 4.07498,1.13283 10.6875,-0.31054 1.67579,-0.36579 2.60406,-0.29156 3.03711,0.0586 0.21652,0.17507 0.36455,0.43583 0.45703,0.86719 0.0925,0.43136 0.11457,1.01917 0.0723,1.7539 -0.16921,2.93893 -1.33099,8.18169 -1.8496,16.17774 -4.7e-4,0.007 0.006,0.0147 -0.0566,0.0684 -0.063,0.0537 -0.19165,0.12613 -0.36914,0.1914 -0.35498,0.13055 -0.89145,0.23539 -1.4707,0.3125 -1.15849,0.15424 -2.46196,0.20108 -3.20703,0.37891 l 0.0195,-0.004 c -6.20767,1.16521 -14.98573,-0.006 -23.02539,-0.45312 -4.01983,-0.22357 -7.85967,-0.26407 -11.13477,0.2832 -3.27509,0.54727 -6.01142,1.69102 -7.7246,3.88281 l -0.0547,0.0703 -0.0215,0.0859 c -1.34774,5.55005 -1.38919,9.73552 -0.375,12.88282 1.0142,3.14729 3.1072,5.22584 5.87696,6.49023 5.53597,2.52718 13.75081,1.96238 22.30273,1.04492 8.1817,-0.57531 16.55802,-1.36013 22.07813,0.69141 2.76005,1.02577 4.79799,2.71638 5.86328,5.51758 1.04188,2.73967 1.09638,6.63469 -0.16016,11.96679 H 470.56445 V 598.97852 h 62.92774 l 0.0898,-0.0469 c 2.33194,-1.21826 4.3617,-1.76103 6.10742,-1.79883 z m -473.914059,0.23438 c -13.393081,0.18585 -26.970461,1.90042 -37.955079,1.90625 H 27.40625 l 0.002,0.41406 c 0.169875,33.52769 0.183282,67.05469 0,100.58203 l -0.002,0.32813 0.320312,0.0762 c 9.515879,2.23676 17.067751,2.27366 21.765625,-1.07227 2.348938,-1.67296 3.944484,-4.19768 4.654297,-7.61719 0.694455,-3.34551 0.531012,-7.58221 -0.509765,-12.77148 3.938904,-2.49941 10.781864,-4.19726 18.636718,-5.98437 7.980817,-1.81578 16.98258,-3.75337 25.041016,-6.89063 8.058437,-3.13726 15.193577,-7.4785 19.376957,-14.14258 4.18338,-6.66407 5.36218,-15.61998 1.61914,-27.8125 l -0.002,-0.008 -0.004,-0.01 c -3.31445,-9.32604 -8.82429,-15.591 -15.66406,-19.69726 -6.839779,-4.10626 -14.996098,-6.06194 -23.636724,-6.85742 -4.320312,-0.39775 -8.764155,-0.50531 -13.228515,-0.44336 z m 540.269529,0.27343 c 12.9734,0.17036 25.57296,2.17553 36.6836,9.6504 10.17967,10.71433 14.00067,20.02995 14.33789,28.04492 0.3376,8.02402 -2.81323,14.78608 -6.69922,20.37695 -2.50945,3.61039 -5.32045,5.43747 -7.92188,7.17773 -2.60143,1.74027 -5.01539,3.41061 -6.50195,6.66016 l -0.10742,0.23438 0.16406,0.19726 c 6.37,7.76476 10.69406,14.53998 14.0332,19.80469 3.33915,5.26471 5.66252,9.02783 8.19336,10.79101 0.10456,0.0728 0.13864,0.11605 0.17188,0.1543 -0.0103,-0.0151 -0.0538,0.0549 -0.32227,0.14453 -0.63413,0.21169 -1.88743,0.37183 -3.36523,0.45899 -2.9556,0.1743 -6.86818,0.10514 -9.28907,0.0351 -6.33577,-0.18316 -8.91947,0.19648 -10.1875,0.27149 -0.63401,0.0375 -0.86514,0.0109 -1.16406,-0.16016 -0.29892,-0.17109 -0.70106,-0.55578 -1.45312,-1.24609 -3.28962,-3.01951 -6.97579,-10.38602 -13.73242,-20.51172 -1.91662,-3.2106 -4.46938,-5.48572 -7.76368,-6.89453 1.04192,0.0664 2.21258,0.14673 2.96289,0.18554 0.65831,0.0341 1.15118,0.0555 1.42188,0.0566 0.0677,2.9e-4 0.11926,-1.6e-4 0.17187,-0.004 0.0263,-0.002 0.0477,-10e-4 0.10547,-0.0156 0.0145,-0.004 0.0317,-0.01 0.0566,-0.0195 0.0249,-0.01 0.10677,-0.06 0.10743,-0.0605 6.5e-4,-5.2e-4 0.14833,-0.24944 0.14843,-0.25 1.1e-4,-5.7e-4 -0.0757,-0.32362 -0.0762,-0.32422 -4.5e-4,-6.1e-4 -0.0827,-0.0845 -0.10937,-0.10157 -0.0267,-0.017 -0.0453,-0.0246 -0.0606,-0.0312 -0.0306,-0.0134 -0.0481,-0.0188 -0.0644,-0.0234 -0.0326,-0.009 -0.0567,-0.0144 -0.084,-0.0195 -0.0546,-0.0103 -0.11871,-0.0201 -0.20312,-0.0312 -0.48405,-0.064 -2.15911,-0.19505 -4.48633,-0.33985 -1.085,-0.0675 -2.52711,-0.11645 -3.81445,-0.17969 -1.29957,-0.21909 -2.61177,-0.42379 -4.13086,-0.4082 -0.22533,0.002 -0.34038,8.2e-4 -0.48047,0.0273 -0.035,0.007 -0.0645,-0.001 -0.16992,0.0644 -0.0264,0.0165 -0.0969,0.0812 -0.0977,0.082 -1.1e-4,1.3e-4 -0.01,0.0231 -0.0137,0.0312 -2.70898,-0.0719 -5.39634,-0.0991 -7.43946,0.0137 -1.0937,0.0604 -2.01472,0.15392 -2.70507,0.30078 -0.34518,0.0734 -0.63222,0.1574 -0.8711,0.27539 -0.23887,0.118 -0.47216,0.28338 -0.54492,0.58985 -0.0376,0.1582 -0.0494,0.32969 -0.0644,0.59375 -0.0151,0.26406 -0.0268,0.60162 -0.0352,1.00586 -0.0167,0.80846 -0.0206,1.88154 -0.0117,3.13086 0.0178,2.49863 0.0879,5.70247 0.20899,8.88867 0.1211,3.1862 0.29243,6.3531 0.51953,8.7832 0.11355,1.21505 0.24102,2.24451 0.38476,3.01172 0.0719,0.38361 0.14679,0.70042 0.23438,0.95508 0.008,0.0246 0.033,0.0368 0.041,0.0605 -0.0332,0.008 -0.0392,0.0128 -0.0762,0.0215 -0.40463,0.0955 -1.03405,0.21864 -1.83203,0.35351 -1.59596,0.26975 -3.87395,0.58496 -6.46875,0.82422 -5.08562,0.46895 -11.36654,0.61133 -16.14453,-0.37695 V 598.96484 c 12.49219,0.11525 25.69706,-1.49292 38.54492,-1.32422 z m 277.79297,0.0273 c 1.57031,0.12483 2.80678,0.73871 3.75586,1.66797 1.89817,1.85851 2.66944,5.10715 2.33398,8.44336 -0.33546,3.3362 -1.7724,6.72827 -4.11914,8.8457 -2.34673,2.11743 -5.56659,3.01707 -9.72656,1.39648 l -0.11328,-0.043 -0.11914,0.0234 c -6.20506,1.28147 -14.54532,0.36251 -22.32227,-0.0586 -7.77694,-0.4211 -15.03042,-0.38656 -19.15234,3.13086 l -0.0996,0.0859 -0.0332,0.125 c -1.47834,5.68005 -1.35531,9.68451 -0.0176,12.5039 1.33773,2.81939 3.88693,4.37248 7.02539,5.16211 6.27693,1.57927 15.04721,0.28157 22.59375,0.26367 l 0.10547,-0.002 0.0937,-0.0508 c 4.4058,-2.4379 8.35277,-2.61544 11.57812,-1.51563 3.22535,1.09982 5.73741,3.49968 7.1875,6.27539 1.45009,2.77572 1.82624,5.91114 0.84571,8.4629 -0.98054,2.55175 -3.28738,4.57202 -7.42578,5.17382 l -0.0215,0.004 -0.0215,0.004 c -6.13132,1.55392 -15.47317,0.28431 -23.80078,-0.0274 -4.16381,-0.15583 -8.08086,-0.0707 -11.26563,0.77149 -3.18477,0.84221 -5.67063,2.48745 -6.76758,5.39843 l -0.006,0.0195 -0.006,0.0195 c -1.50414,5.71368 -1.37884,9.73296 -0.0176,12.55273 1.36126,2.81977 3.95123,4.35769 7.13281,5.13281 6.36316,1.55025 15.23843,0.2195 22.80664,0.25 h 0.0156 0.0137 c 8.2049,-0.5343 16.73181,-1.34604 21.93945,0.64649 2.60382,0.99626 4.36511,2.62554 5.00586,5.38086 0.6291,2.70521 0.0927,6.59475 -2.01367,11.94726 -25.90039,0.3408 -51.80682,0.15067 -77.7168,0.19922 v -100.8789 h 66.48828 l 0.0801,-0.0352 c 2.28788,-1.03443 4.19336,-1.40023 5.76367,-1.27539 z m -721.65625,0.10937 c 10.36676,-0.18651 21.08602,0.20055 30.61523,2.23828 9.52922,2.03774 17.84838,5.71936 23.46485,12.08008 5.61312,6.35693 8.56829,15.40778 7.3164,28.33985 -2.29116,11.52031 -7.55963,16.41625 -12.0332,19.64062 -2.23811,1.61314 -4.28658,2.78998 -5.67969,4.19727 -1.3931,1.40729 -2.08511,3.12865 -1.47461,5.50781 1.16044,4.52222 4.57358,9.01723 8.65235,13.98437 3.94182,4.80037 8.49209,10.07532 12.32812,16.12696 -14.14748,0.13187 -19.11998,1.21326 -20.99023,1.59765 -0.47928,0.0985 -0.76257,0.13853 -0.91992,0.125 -0.15736,-0.0135 -0.2311,-0.0481 -0.4375,-0.2207 -0.41281,-0.34511 -1.14909,-1.19319 -2.98828,-2.64844 -7.82975,-6.19526 -14.3981,-16.27228 -20.83008,-22.46679 -3.21599,-3.09726 -6.42327,-5.25623 -9.81446,-5.375 -3.39118,-0.11878 -6.84082,1.84962 -10.42773,6.69922 l -0.11523,0.15429 0.0469,0.18946 c 2.39435,9.68858 -0.41892,17.46306 -0.82226,21.68554 -0.0205,0.21483 -0.13114,0.38314 -0.45118,0.57422 -0.32003,0.19108 -0.83426,0.35933 -1.49804,0.47852 -1.32757,0.23836 -3.24464,0.29358 -5.4961,0.23242 -4.39448,-0.11938 -10.09062,-0.67023 -15.43554,-1.03125 -0.36849,-33.64175 -0.73895,-67.28404 -1.10743,-100.92578 8.05703,-0.26545 17.87726,-0.99972 28.09766,-1.1836 z m 231.81641,0.0352 c 9.8845,-0.30386 19.72461,-0.0664 29.42578,2.08008 15.32164,3.47498 24.46137,10.90067 28.75781,19.76367 4.29644,8.863 3.75482,19.20603 -0.44727,28.55273 -8.40416,18.69342 -31.40002,33.32575 -59.38281,23.80664 l -0.55273,-0.18945 0.01,0.58399 c 0.14538,10.42435 2.69005,19.41054 0.98828,25.50781 -0.009,0.031 -0.19069,0.25919 -0.63476,0.47656 -0.44407,0.21737 -1.10293,0.44341 -1.92774,0.65234 -1.64961,0.41788 -3.9652,0.77997 -6.68554,1.03125 -5.34199,0.49346 -12.24786,0.54018 -18.83203,-0.19335 V 598.96484 c 9.7421,-0.0402 19.5327,-0.85265 29.28125,-1.15234 z m 336.15039,0.0176 -0.0117,0.002 c -22.37778,0.71536 -44.81449,0.13765 -67.23242,0.32422 l 0.3164,0.40234 -0.71289,-0.0918 -0.1289,0.51757 0.0976,-0.002 c -0.058,4.65945 -0.42071,9.46208 -0.61523,13.12891 -0.10036,1.89178 -0.15327,3.48399 -0.084,4.63867 0.0347,0.57734 0.0958,1.04299 0.21875,1.41211 0.0615,0.18456 0.13753,0.34922 0.26368,0.49219 0.12614,0.14297 0.32747,0.25818 0.53906,0.26562 10.10535,0.3552 18.87076,-0.10787 24.8164,-0.22461 2.97283,-0.0584 5.25196,-0.0229 6.58008,0.22266 0.66406,0.12276 1.07137,0.32047 1.18946,0.45117 0.059,0.0653 0.0666,0.0944 0.0644,0.16602 -0.002,0.0716 -0.0363,0.19827 -0.14649,0.375 -0.48159,0.77212 -0.65027,1.95401 -0.72851,3.5 -0.0782,1.54598 -0.0381,3.4497 0.0371,5.58984 0.15034,4.28028 0.43653,9.50139 0.19531,14.58008 v 0.01 57.09961 l 0.41797,-0.006 c 6.04022,-0.0899 11.06102,-0.0771 14.9082,-0.0898 3.84719,-0.0127 6.49973,-0.045 7.90039,-0.25 0.24597,-0.036 0.29978,-0.17631 0.33789,-0.24414 0.0381,-0.0678 0.0573,-0.12262 0.0762,-0.18359 0.0379,-0.12195 0.0684,-0.26553 0.0996,-0.44532 0.0625,-0.35958 0.12329,-0.85832 0.1836,-1.48437 0.12062,-1.2521 0.23451,-3.00285 0.31055,-5.04297 0.15157,-4.06714 0.15237,-9.28171 -0.23438,-13.94922 v -0.0293 c -4.3e-4,-0.005 4.4e-4,-0.0104 0,-0.0156 0.50676,-19.95193 0.0876,-39.91259 0.22266,-59.85156 11.46968,-0.14337 18.85341,0.16495 23.61132,0.375 4.82534,0.21302 7.03168,0.36653 8.46485,-0.31641 0.39251,-0.18704 0.50816,-0.54876 0.6289,-0.98047 0.12075,-0.43171 0.20501,-0.98157 0.27149,-1.63867 0.13296,-1.31421 0.18508,-3.05588 0.20703,-5.00391 0.0439,-3.89605 -0.0361,-8.61336 0.12109,-12.23828 0.01,-0.22939 -0.11177,-0.44968 -0.25976,-0.58594 -0.148,-0.13625 -0.32075,-0.22326 -0.52149,-0.29882 -0.40146,-0.15114 -0.92526,-0.25028 -1.57812,-0.32813 -1.30572,-0.15569 -3.11712,-0.21292 -5.23633,-0.23047 -4.23842,-0.0351 -9.69485,0.0959 -14.57812,-0.0195 z m 33.03515,0.32617 v 0.41016 h -0.41211 V 700.5625 l 0.27344,0.0977 c 9.51321,3.39111 15.83714,3.17326 19.96875,0.45117 4.13161,-2.72209 5.9403,-7.85309 6.62891,-14.00781 1.37722,-12.30944 -1.66884,-28.97037 -0.42383,-39.89844 l 0.004,-0.0234 v -49.02539 z m -697.390621,0.0371 c 4.44128,-0.0629 8.854331,0.0433 13.136718,0.4375 8.564776,0.7885 16.59632,2.72732 23.287113,6.74414 6.69079,4.01682 12.05336,10.10266 15.31054,19.26758 3.68881,12.0289 2.5072,20.67386 -1.53515,27.11328 -4.04447,6.44278 -11.0047,10.7109 -18.976565,13.81445 -7.971865,3.10356 -16.936152,5.03814 -24.923828,6.85547 -7.987676,1.81733 -14.990399,3.49525 -19.126953,6.21289 l -0.232422,0.15235 0.05664,0.27539 c 1.090095,5.27729 1.22752,9.48983 0.550782,12.75 -0.676739,3.26016 -2.148822,5.56391 -4.324219,7.11328 -4.298797,3.06169 -11.52361,3.13443 -20.783203,1 0.180613,-33.28316 0.167403,-66.5648 0,-99.84766 10.998063,-0.0446 24.391749,-1.70209 37.560547,-1.88867 z m 664.347651,0.46094 c 4.91237,0.11609 10.37427,-0.0134 14.58985,0.0215 2.10779,0.0174 3.90684,0.0768 5.14648,0.22461 0.61982,0.0739 1.10224,0.17489 1.38477,0.28125 0.13698,0.0516 0.21941,0.10397 0.24805,0.12891 -0.15638,3.6614 -0.0756,8.35391 -0.11915,12.21484 -0.0218,1.93849 -0.0773,3.66681 -0.20507,4.92969 -0.0639,0.63144 -0.14799,1.14725 -0.2461,1.49804 -0.0981,0.3508 -0.24983,0.48869 -0.1875,0.45899 -1.05999,0.50511 -3.24806,0.44938 -8.07422,0.23633 -4.82615,-0.21306 -12.29431,-0.53397 -24.0664,-0.375 l -0.4043,0.004 -0.002,0.4043 c -0.14396,20.10612 0.29066,40.21325 -0.22071,60.29102 l -0.002,0.0234 0.002,0.0215 c 0.38624,4.62767 0.38353,9.84008 0.23243,13.89453 -0.0756,2.02722 -0.18835,3.76617 -0.30664,4.99414 -0.0592,0.61399 -0.11983,1.10198 -0.17579,1.42383 -0.0169,0.0975 -0.0301,0.14364 -0.0449,0.20703 -1.30313,0.17139 -3.82661,0.22206 -7.55859,0.23437 -3.73522,0.0123 -8.67699,0.004 -14.5,0.0859 v -56.23828 -0.0195 c 0.24221,-5.12958 -0.0456,-10.36761 -0.19531,-14.62891 -0.0749,-2.13349 -0.11482,-4.02272 -0.0391,-5.51953 0.0757,-1.4968 0.29536,-2.60632 0.60547,-3.10351 0.16017,-0.25679 0.26316,-0.51484 0.27149,-0.78711 0.008,-0.27228 -0.0984,-0.54611 -0.27735,-0.74414 -0.35784,-0.39607 -0.91289,-0.57265 -1.65039,-0.70899 -1.47499,-0.27268 -3.7599,-0.293 -6.74609,-0.23437 -5.96315,0.11707 -14.68463,0.57528 -24.72852,0.22461 -0.0177,-0.0223 -0.0562,-0.0826 -0.0937,-0.19532 -0.0797,-0.23913 -0.14523,-0.65956 -0.17773,-1.20117 -0.065,-1.08322 -0.0159,-2.66469 0.084,-4.54687 0.1937,-3.65124 0.55737,-8.47473 0.61524,-13.17578 22.26307,-0.17656 44.56895,0.38696 66.84179,-0.32422 z m 33.45508,0.32422 h 24.80274 v 48.17968 c -1.26045,11.16885 1.77708,27.77574 0.42578,39.85352 -0.67647,6.04624 -2.43859,10.89197 -6.26367,13.41211 -3.78446,2.49337 -9.74138,2.77388 -18.96485,-0.46289 z M 68.634766,615.4082 c -5.11433,-0.0206 -9.052064,1.92134 -11.8125,5.24024 -5.520874,6.6378 -6.425582,18.62602 -3.779297,31.64648 l 0.05078,0.25195 0.25,0.0664 c 9.477325,2.46789 23.503481,1.42285 32.542969,-3.54883 4.519744,-2.48583 7.813684,-5.99616 8.53125,-10.57031 0.717566,-4.57415 -1.148912,-10.11478 -6.689453,-16.64062 l -0.04687,-0.0547 -0.06055,-0.0352 c -7.584988,-4.38306 -13.871999,-6.33488 -18.986328,-6.35547 z m -0.002,0.82422 c 4.890683,0.0197 11.033561,1.90002 18.50586,6.20703 5.413984,6.39548 7.130735,11.68104 6.464844,15.92578 -0.667803,4.25694 -3.731421,7.56656 -8.113282,9.97657 -8.688231,4.77848 -22.447855,5.83476 -31.675781,3.51172 -2.54676,-12.77468 -1.554574,-24.4315 3.640625,-30.67774 2.616919,-3.14635 6.270973,-4.96311 11.177734,-4.94336 z m 533.410154,0.69922 c -2.93561,-0.10249 -5.75782,-0.0933 -7.84961,0.10352 -1.0459,0.0984 -1.90648,0.23928 -2.53711,0.45703 -0.31531,0.10887 -0.57701,0.23195 -0.78516,0.41992 -0.20814,0.18797 -0.35544,0.49432 -0.30859,0.79492 1.17938,7.56672 -1.89724,18.62528 0.63086,33.57617 l 0.0488,0.29492 0.29687,0.043 c 8.39237,1.23948 20.92574,1.27948 29.87696,-2.34179 4.4756,-1.81064 8.07735,-4.56045 9.7246,-8.57422 1.64726,-4.01378 1.30609,-9.22723 -1.91601,-15.86328 l -0.008,-0.0156 -0.0117,-0.0176 c -1.75945,-2.90194 -2.99235,-4.08698 -4.83399,-4.84765 -1.84163,-0.76067 -4.21605,-1.12897 -8.47851,-2.60157 -0.90261,-0.31183 -2.84187,-0.59267 -5.35547,-0.85156 -2.5136,-0.25889 -5.55854,-0.47368 -8.49414,-0.57617 z m -307.75977,0.33203 c -1.48315,-0.0198 -3.03074,0.0517 -4.64062,0.2168 h -0.006 c -15.61637,0.46291 -25.20659,12.05138 -27.60742,25.21875 -2.40115,13.16907 2.33286,27.99846 15.28906,35.01367 12.01875,7.02156 22.15637,6.47824 29.67383,1.7168 7.51993,-4.76301 12.4072,-13.66912 14.17187,-23.26563 1.76467,-9.5965 0.41246,-19.90754 -4.66406,-27.52734 -4.44195,-6.66733 -11.76478,-11.23349 -22.2168,-11.37305 z m 106.24805,0.0449 c -1.88451,-0.0238 -3.65672,0.0662 -5.21289,0.30469 -1.55617,0.2385 -2.89924,0.62227 -3.93359,1.21484 -1.03435,0.59258 -1.77099,1.42475 -1.99024,2.49415 -1.73765,8.47555 0.6922,19.21181 -0.98437,30.83203 l -0.0527,0.36523 0.35742,0.0937 c 9.24038,2.38918 23.22367,1.50403 32.4375,-3.29687 4.60692,-2.40045 8.04338,-5.81669 8.96875,-10.33399 0.92538,-4.5173 -0.6805,-10.0404 -5.90234,-16.60156 l -0.01,-0.0137 -0.0117,-0.0117 c -0.45197,-0.47975 -1.24814,-0.8787 -2.35547,-1.31445 -1.10734,-0.43576 -2.51754,-0.87796 -4.13282,-1.30079 -3.23055,-0.84566 -7.27576,-1.61194 -11.28906,-2.05078 -2.00665,-0.21941 -4.00416,-0.35701 -5.88867,-0.38086 z m 201.48437,0.44532 c 2.91518,0.10177 5.94502,0.3175 8.4375,0.57421 2.49249,0.25672 4.48996,0.57564 5.16993,0.81055 4.31099,1.48936 6.74193,1.88526 8.43359,2.58399 1.68634,0.69653 2.71655,1.6699 4.43164,4.49414 3.15168,6.49758 3.42669,11.43294 1.89063,15.17578 -1.53722,3.74565 -4.92186,6.36337 -9.27149,8.12304 -8.5991,3.47883 -20.85568,3.50054 -29.13086,2.32032 -2.39773,-14.60847 0.61992,-25.419 -0.60156,-33.25586 -0.002,-0.0142 -0.024,0.0111 0.0488,-0.0547 0.0728,-0.0657 0.24662,-0.16574 0.50195,-0.25391 0.51066,-0.17632 1.33131,-0.32076 2.34375,-0.41601 2.02489,-0.1905 4.83092,-0.20334 7.74609,-0.10156 z m -428.63867,0.0723 c -3.57124,0.005 -6.75658,0.54575 -9.23437,1.4082 -2.47779,0.86246 -4.26816,2.02278 -5.00781,3.42774 -0.47011,0.89295 -0.57933,2.40346 -0.60352,4.45312 -0.0242,2.04967 0.0783,4.60687 0.20117,7.41211 0.24582,5.61049 0.57456,12.21645 0.15235,17.6543 l -0.0312,0.38281 0.38085,0.0566 c 8.37828,1.2436 20.91291,1.41501 29.86329,-2.09765 4.47518,-1.75634 8.07704,-4.45746 9.7207,-8.44922 1.64366,-3.99176 1.2936,-9.20522 -1.93945,-15.88477 l -0.0391,-0.084 -0.0723,-0.0566 c -7.55348,-6.09447 -16.24814,-8.23291 -23.39063,-8.22266 z m 120.89649,0.25781 c 10.21729,0.12286 17.23323,4.54383 21.54101,11.00977 4.92319,7.38965 6.27111,17.50278 4.53907,26.92187 -1.73205,9.4191 -6.53772,18.11844 -13.80079,22.71875 -7.26306,4.60032 -16.99487,5.18025 -28.83007,-1.73828 l -0.006,-0.004 -0.006,-0.004 c -12.60233,-6.8236 -17.21845,-21.26853 -14.8711,-34.14258 2.34736,-12.87404 11.60208,-24.09454 26.82618,-24.54297 h 0.0156 l 0.0156,-0.002 c 1.59168,-0.1644 3.11655,-0.23435 4.57617,-0.2168 z m 106.24414,0.0508 c 1.85192,0.0232 3.82765,0.15796 5.8125,0.375 3.9697,0.43406 7.98462,1.19353 11.16992,2.02734 1.59265,0.41691 2.97907,0.85359 4.04102,1.27148 1.05677,0.41586 1.7958,0.84248 2.04687,1.10547 5.1198,6.44022 6.58499,11.70233 5.72461,15.90235 -0.86129,4.20448 -4.06869,7.43921 -8.54102,9.76953 -8.84523,4.60884 -22.51606,5.50825 -31.51757,3.27929 1.58776,-11.63769 -0.7118,-22.28471 0.94726,-30.37695 0.16456,-0.80263 0.69552,-1.43072 1.59375,-1.94531 0.89823,-0.5146 2.15448,-0.88627 3.64844,-1.11524 1.49396,-0.22896 3.2223,-0.31618 5.07422,-0.29296 z m -227.14063,0.51367 c 6.95324,-0.01 15.4263,2.07727 22.79492,7.99023 3.12703,6.50254 3.40942,11.41836 1.88477,15.1211 -1.53208,3.72078 -4.91167,6.28963 -9.25977,7.99609 -8.58301,3.36849 -20.81536,3.26895 -29.08398,2.08594 0.38538,-5.44375 0.0838,-11.87309 -0.15625,-17.35157 -0.12282,-2.8033 -0.22494,-5.35125 -0.20117,-7.36523 0.0238,-2.01398 0.21672,-3.52716 0.50781,-4.08008 0.56156,-1.06667 2.17954,-2.20783 4.55078,-3.0332 2.37125,-0.82538 5.4744,-1.35827 8.96289,-1.36328 z m 418.8711,80.77539 c 0.0537,0.0713 0.0498,0.16677 0.15039,0.22656 -0.0357,-0.0212 -0.0896,-0.0591 -0.13672,-0.13867 -0.0141,-0.0237 -0.005,-0.0581 -0.0137,-0.0879 z m 387.08398,4.33398 c -1.89261,-0.0379 -3.89231,0.041 -5.94531,0.17774 -8.21202,0.54713 -17.29919,1.99697 -23.51563,0.70312 l -0.043,-0.01 -0.043,0.002 c -298.03734,2.1354 -596.07595,4.27083 -894.113281,6.40625 l -0.685547,0.004 0.326172,0.60351 c 1.430828,2.64614 4.070835,4.06051 7.320312,4.73047 3.249478,0.66996 7.14204,0.62317 11.248047,0.34961 8.212015,-0.54713 17.299194,-1.99502 23.515625,-0.70117 l 0.04297,0.008 h 0.04492 C 395.52172,713.89584 693.55834,711.76043 991.5957,709.625 l 0.68555,-0.006 -0.32617,-0.60156 c -1.43084,-2.64614 -4.06888,-4.06247 -7.31836,-4.73242 -1.62474,-0.33498 -3.41208,-0.48939 -5.30469,-0.52735 z m -0.0156,0.82422 c 1.85791,0.0374 3.59554,0.19075 5.15234,0.51172 2.81914,0.58123 4.97475,1.73845 6.32227,3.71289 -297.76848,2.1335 -595.53623,4.26691 -893.304688,6.40039 -6.484582,-1.32485 -15.535952,0.15404 -23.660156,0.69531 -4.077123,0.27164 -7.913742,0.30796 -11.027344,-0.33398 -2.819133,-0.58123 -4.974755,-1.7404 -6.322266,-3.71484 297.767804,-2.13349 595.536874,-4.26693 893.304684,-6.4004 6.48458,1.32486 15.5379,-0.15403 23.66211,-0.69531 2.03856,-0.13582 4.01513,-0.21321 5.87305,-0.17578 z m -371.84766,22.27539 c -31.33142,-0.166 -63.16046,0.23997 -94.98828,1.09375 -52.55603,1.40982 -104.58455,4.21214 -154.90039,7.49805 -1.01857,-0.23306 -1.91894,-0.52408 -3.00586,-0.72266 l -0.0117,-0.002 -0.0117,-0.002 c -12.72049,-1.55456 -25.48733,-0.28804 -38.1582,-0.2168 l -0.42188,0.004 0.0137,0.42187 c 0.0346,1.08444 -0.002,2.18284 0.0215,3.26953 -5.98381,0.44143 -11.49077,0.93918 -17.38477,1.39453 -1.86946,-0.90879 -3.63315,-1.80958 -4.47656,-2.77539 l -0.0449,-0.0527 -0.0625,-0.0352 c -13.10176,-7.38912 -25.4267,-7.07371 -35.5,-2.23242 -4.63086,2.22562 -8.71669,5.4805 -12.26953,9.29102 -27.74088,2.41291 -53.92993,4.88113 -78.22656,7.33203 3.88098,-5.3204 7.76158,-10.64054 11.64257,-15.96094 l 0.39453,-0.54102 -0.66015,-0.10937 c -2.81218,-0.46351 -5.9898,-2.10421 -9.25,-2.73242 -3.2602,-0.62822 -6.67454,-0.14898 -9.68555,3.5957 -4.24816,5.28328 -8.84283,11.55727 -13.44726,17.93555 C 60.81159,762.3368 3.2519531,770.24609 3.2519531,770.24609 l -0.3457031,0.0469 -0.00977,0.34961 c -0.7458073,28.71894 1.4862671,60.422 -1.1113282,87.17578 h 0.00195 c -1.729e-4,0.0113 -0.00375,0.0219 -0.00391,0.0332 l 0.8222657,0.0469 c 0.00109,-0.0113 8.598e-4,-0.0239 0.00195,-0.0352 0.1049363,-7.61004 4.1045723,-14.43627 11.6171875,-20.60156 7.512616,-6.16529 18.530485,-11.63475 32.544922,-16.44336 28.028875,-9.61721 68.035323,-16.60158 116.003913,-21.49219 1.32986,-0.13558 2.80641,-0.2309 4.14843,-0.36328 -0.002,0.0181 0.004,0.0247 0.002,0.043 -0.18171,1.45486 -0.71251,3.39066 -0.88672,5.32812 -0.17421,1.93747 0.0141,3.92953 1.36719,5.41407 1.34967,1.48077 3.77959,2.3665 7.86914,2.30468 3.76719,0.27483 6.50205,-0.48401 8.25586,-2.69726 1.75589,-2.21589 2.50969,-5.75797 2.64453,-10.98633 0.0118,-0.45871 0.11512,-0.78698 0.2207,-1.11523 16.12677,-1.35863 32.77669,-2.5742 50.27539,-3.54102 4.60518,9.05461 13.55735,16.24647 27.9668,18.88672 l 0.004,0.002 h 0.004 c 14.90093,2.4533 30.78017,-2.35766 42,-12.55469 l 0.21484,-0.19726 -0.11132,-0.26758 c -1.24429,-2.97668 -2.8767,-6.07515 -4.80274,-8.23828 -0.10889,-0.12229 -0.24267,-0.15528 -0.35351,-0.27148 4.75904,-0.13904 9.49199,-0.28612 14.30859,-0.4043 0.16262,6.58954 0.50828,13.14305 1.23047,19.62109 l 0.0371,0.33594 0.33789,0.0293 c 10.39548,0.85831 15.66037,1.64009 18.49414,1.44336 0.70844,-0.0492 1.27305,-0.16088 1.73633,-0.37305 0.46327,-0.21218 0.81825,-0.5399 1.04687,-0.95313 0.45725,-0.82645 0.47488,-1.90702 0.5,-3.40625 0.0811,-4.83867 -1.43617,-11.09208 -0.79883,-14.92187 0.15443,-0.92792 0.44402,-1.68493 0.86719,-2.26758 2.62569,-0.046 5.28647,-0.0768 7.92578,-0.11719 0.96868,0.34745 1.79174,0.55635 2.97461,1.11328 3.20071,3.97425 6.28611,9.13705 9.08399,13.42969 1.40765,2.15969 2.74345,4.09754 4,5.56055 1.25654,1.46301 2.41968,2.48202 3.6289,2.70703 4.98824,0.92821 11.00789,1.02811 17.48633,-0.43164 l 0.0664,-0.0156 0.0566,-0.0352 c 1.09359,-0.66648 1.6317,-1.66885 1.64453,-2.7832 0.0128,-1.11436 -0.43657,-2.32814 -1.16406,-3.62305 -1.45499,-2.58983 -4.06161,-5.52197 -6.77344,-8.35938 -2.71183,-2.83741 -5.53177,-5.57489 -7.38281,-7.6914 -0.0771,-0.0881 -0.0846,-0.13077 -0.15821,-0.2168 8.47028,-0.0774 17.09424,-0.0754 25.66797,-0.10156 0.25821,7.11884 0.69881,14.23144 1.58594,21.32617 l 0.041,0.32617 0.32617,0.0332 c 19.44754,1.94049 38.97035,0.88945 58.41601,1.1504 l 0.30469,0.004 0.0937,-0.29101 c 1.82299,-5.67865 1.77626,-9.51496 0.3418,-12.0918 -1.43447,-2.57685 -4.21246,-3.76343 -7.55274,-4.24609 -6.67996,-0.96524 -15.86052,0.75391 -22.65429,0.15625 h -0.002 c -4.51573,-0.41101 -7.69124,-1.12633 -9.73828,-2.01954 -2.04737,-0.89335 -2.92119,-1.91842 -3.0664,-2.97461 -0.0607,-0.44152 0.0826,-0.93328 0.27343,-1.43359 17.68403,0.0178 35.67838,0.32383 53.60157,0.5293 -2.62989,8.57331 -5.00643,16.39379 -7.51368,21.78125 l 0.37305,0.17383 0.0195,0.41211 c 11.10505,-0.50775 23.17788,-10.29358 34.72852,-15.22071 5.77532,-2.46356 11.3779,-3.71543 16.63281,-2.10742 5.25491,1.60801 10.24373,6.08661 14.76563,15.30469 l 0.0723,0.14648 0.15234,0.0586 c 3.97022,1.50404 7.10859,2.33864 9.57227,2.61523 2.46368,0.27659 4.27003,-10e-4 5.53125,-0.79687 1.26122,-0.79564 1.91026,-2.10577 2.07617,-3.67383 0.16591,-1.56806 -0.11721,-3.41723 -0.68164,-5.45899 -0.99853,-3.61207 -2.92998,-7.85717 -4.95898,-12.07812 8.72146,0.20124 17.36335,0.45032 26.05468,0.68359 0.1194,6.70752 0.23803,13.41553 0.35743,20.12305 l 0.006,0.29297 0.27929,0.0918 c 5.5406,1.79182 9.52917,1.98067 12.41016,0.92969 2.88099,-1.05097 4.57835,-3.35985 5.49609,-6.32031 1.23487,-3.98343 1.114,-9.22845 0.83594,-14.60938 11.49577,0.33901 22.92474,0.62586 34.29883,1.01172 0.59244,7.40581 1.58097,13.75742 3.86914,16.82813 0.68836,0.92378 1.49986,1.58909 2.44726,1.90429 0.94741,0.31521 2.01033,0.26775 3.1504,-0.15429 2.28013,-0.84408 4.92263,-3.13762 8.13671,-7.20117 l 0.0879,-0.11329 v -10.58593 c 6.36329,0.22988 12.58194,0.48068 18.88672,0.72265 2.00969,3.59535 4.41898,6.93588 7.42383,9.69141 7.05746,6.47188 16.81238,10.0997 28.88086,8.50586 l -0.0508,0.004 c 16.12143,-0.0615 27.25643,-6.07907 33.875,-14.82813 0.105,-0.1388 0.15899,-0.30516 0.26172,-0.44531 6.68386,0.30847 13.10234,0.62716 19.66211,0.94336 0.17544,3.86979 0.29876,7.74023 0.60156,11.60742 l 0.0195,0.25 0.22852,0.0977 c 5.65211,2.41199 9.56858,2.83644 12.30273,1.75781 2.73416,-1.07864 4.1437,-3.65387 4.80664,-6.89844 0.36394,-1.78118 0.49785,-3.80353 0.53516,-5.92578 8.77474,0.4392 18.04181,0.84595 26.53906,1.29297 1.75043,2.0251 3.52545,3.95504 5.33789,5.61328 2.99236,2.73776 6.05305,4.85066 9.14453,5.88281 3.09149,1.03216 6.2295,0.96091 9.24414,-0.66601 l 0.16407,-0.0879 0.043,-0.17969 c 0.69975,-2.99645 1.22743,-6.04546 1.64063,-9.12891 5.37912,0.29678 10.58803,0.59001 15.82227,0.88672 0.0172,0.0478 0.0193,0.10488 0.0371,0.15234 1.3512,3.60664 4.21487,6.19171 7.94532,7.86329 7.46089,3.34315 18.42184,3.13611 28.48437,0.42578 4.778,-1.28695 9.31183,-3.17477 13.21094,-5.50586 65.34848,4.02332 106.24532,6.96107 124.6875,8.37304 9.6243,12.70749 14.9512,27.04452 14.9512,43.33594 v 0.94336 l 0.6914,-0.64062 c 2.0627,-1.91203 3.1342,-4.75998 3.6465,-8.11133 0.5122,-3.35135 0.4696,-7.22644 0.2539,-11.26758 -0.4315,-8.08229 -1.547,-16.84244 -0.4317,-23.20898 l 0.078,-0.44532 -0.4512,-0.0371 c 0,0 -13.0463,-0.95942 -18.3164,-1.36328 -7.24231,-9.47693 -16.7762,-18.06712 -28.59182,-25.72265 -25.66086,-16.62609 -61.46516,-29.1261 -104.16211,-38.39258 3.09839,0.13024 5.78609,0.0922 7.66797,-0.25977 2.70663,-0.50623 4.3094,-1.46564 4.87109,-2.83398 0.56169,-1.36834 -0.0147,-2.94802 -1.26562,-4.49805 -1.25089,-1.55002 -3.21157,-3.13303 -5.65235,-4.60937 -4.88154,-2.9527 -11.6896,-5.46723 -18.55859,-6.13086 -6.86657,-0.6634 -13.8189,0.53085 -18.88281,5.07226 -0.002,0.002 -0.004,0.002 -0.006,0.004 -2.93689,2.10061 -5.15363,4.12385 -7.05664,6.11133 -5.93612,-0.95005 -11.90866,-1.87441 -18.03711,-2.72657 0.0215,-0.49393 -0.0102,-1.00549 0.0156,-1.49804 l 0.01,-0.17578 -0.12305,-0.12891 c -2.90054,-3.05484 -6.01569,-4.49034 -8.94727,-4.59961 -2.93157,-0.10926 -5.65384,1.10913 -7.75195,3.25 -0.25414,0.25933 -0.40505,0.648 -0.64062,0.93359 -58.37493,-7.0824 -123.95075,-10.30269 -192.1543,-10.66406 z m -0.004,0.82422 c 68.01518,0.36135 133.41164,3.56682 191.63282,10.60547 -3.22281,4.49775 -4.38612,11.49025 -1.19532,19.20508 l -0.0273,-0.0937 c 0.9722,6.27473 1.26813,10.74188 0.99023,13.57617 -0.13894,1.41714 -0.42609,2.42181 -0.79687,3.02148 -0.37078,0.59968 -0.76157,0.81132 -1.31641,0.79688 -1.10968,-0.0289 -2.99032,-1.32202 -5.26953,-3.82227 -2.27921,-2.50025 -4.99774,-6.14821 -8.05469,-10.70898 l -0.0176,-0.0254 -0.0215,-0.0234 c -5.33507,-5.82732 -10.13635,-13.29087 -15.96289,-18.79883 -5.82654,-5.50795 -12.75712,-9.05149 -22.16016,-6.89648 l -0.32421,0.0742 0.004,0.33007 c 0.21695,20.96884 -0.37917,41.97935 0.5293,62.96094 -6.38833,-0.30788 -12.64039,-0.61739 -19.14649,-0.91797 5.94164,-8.58293 7.90858,-19.43013 6.19141,-29.8457 -1.79709,-10.90039 -7.4957,-21.27363 -16.53711,-27.88477 -9.03383,-6.60559 -21.40734,-9.42385 -36.43555,-5.25976 -11.62642,2.07919 -19.73583,8.47965 -24.55273,16.78906 -4.8169,8.30942 -6.35817,18.51383 -4.94531,28.25781 0.76302,5.26231 2.45876,10.34683 4.90429,14.97266 -6.13574,-0.2351 -12.18399,-0.47949 -18.375,-0.70312 v -58.78516 h -19.875 l 0.1211,0.50781 c 1.1356,4.73865 1.31634,13.54003 1.31445,23.49414 -0.002,9.95411 -0.17408,21.08483 0.3086,30.61914 0.0659,1.30179 0.26482,2.24971 0.35546,3.48438 -11.35857,-0.38518 -22.77407,-0.67133 -34.2539,-1.00977 -0.1284,-2.34363 -0.2473,-4.68086 -0.33789,-6.98047 0.93205,-2.91603 0.82877,-6.75265 0.44726,-10.86523 -0.38675,-4.16915 -1.05301,-8.60328 -1.24218,-12.52734 -0.18918,-3.92407 0.12278,-7.32091 1.54296,-9.39844 0.7101,-1.03877 1.67991,-1.76753 3.06446,-2.13477 1.38454,-0.36724 3.19535,-0.35907 5.52539,0.1543 5.56972,1.76471 9.59904,1.18467 12.13476,-0.64649 2.54182,-1.83554 3.51963,-4.88592 3.09571,-7.83203 -0.42393,-2.9461 -2.24092,-5.82049 -5.29297,-7.37109 -3.03096,-1.53988 -7.25993,-1.73753 -12.45117,0.50586 H 540.3457 v 0.41211 l -0.38281,-0.15039 c -1.28938,3.28398 -1.85439,5.83793 -1.83594,7.85351 0.0185,2.01559 0.64414,3.50502 1.70703,4.53907 2.1258,2.06809 5.78369,2.31375 9.62696,2.33789 3.84327,0.0241 7.91992,-0.19861 10.83789,0.62304 1.45898,0.41083 2.61168,1.06698 3.36133,2.11328 0.74964,1.04631 1.12499,2.51637 0.92187,4.64844 l -0.002,0.0215 v 0.0234 c 0.20277,11.3884 0.4047,22.77762 0.60742,34.16602 -8.81583,-0.23657 -17.58105,-0.48977 -26.42773,-0.69336 -2.44101,-5.03647 -4.9812,-9.98565 -6.35547,-13.76172 l -0.004,-0.0117 -0.006,-0.0137 c -6.13719,-13.95381 -12.27503,-27.90753 -18.41211,-41.86133 l -0.082,-0.18945 -0.20117,-0.0449 c -8.65889,-1.99358 -15.72277,0.49649 -21.49219,5.67187 -5.76941,5.17539 -10.28599,13.0066 -14.05664,21.76367 -3.76418,8.74206 -6.78566,18.4192 -9.51367,27.30469 -17.85953,-0.2056 -35.79429,-0.51368 -53.41797,-0.5332 0.27482,-0.44937 0.5334,-0.89668 0.98047,-1.37109 1.24918,-1.32561 3.12561,-2.69928 5.37695,-3.9961 4.50269,-2.59364 10.5054,-4.89021 16.04688,-6.11133 5.54148,-1.22111 10.6287,-1.31473 13.19726,0.24414 l 0.43946,0.26758 0.16601,-0.48633 c 1.11838,-3.29924 1.06142,-5.85643 0.084,-7.80468 -0.97744,-1.94826 -2.84091,-3.22962 -5.17188,-4.08203 -4.66194,-1.70483 -11.28531,-1.77583 -17.32227,-1.95118 -3.01847,-0.0877 -5.88827,-0.19918 -8.26757,-0.5332 -2.3793,-0.33402 -4.25691,-0.90916 -5.28907,-1.8125 -0.51608,-0.45167 -0.83102,-0.9692 -0.94921,-1.62305 -0.1182,-0.65384 -0.0302,-1.46046 0.33789,-2.45507 0.72735,-1.96544 2.58017,-4.6456 5.83398,-8.14454 6.1504,-1.2619 15.83591,1.17313 23.54883,1.33594 3.87903,0.0819 7.30443,-0.41042 9.54492,-2.39648 2.24049,-1.98606 3.15085,-5.41125 2.13672,-10.85352 l -0.0391,-0.20508 -0.1875,-0.0898 c -5.24342,-2.51921 -12.82158,-2.67345 -20.83985,-2.41211 -8.01826,0.26135 -16.48161,0.95591 -23.40234,0.26367 l -0.0195,-0.002 h -14.80664 v 0.41211 l -0.41211,0.008 c 0.35023,17.91929 -0.41878,35.91431 0.1875,53.86133 -8.77201,0.0267 -17.58439,0.0289 -26.24805,0.10937 -0.42792,-0.55605 -0.96953,-1.18913 -1.14648,-1.57031 -0.14668,-0.31596 -0.18484,-0.55192 -0.16797,-0.66406 0.0169,-0.11214 0.0286,-0.14408 0.20312,-0.2168 8.34821,-3.47961 15.67155,-14.34353 15.47071,-25.42383 -0.10042,-5.54014 -2.11218,-11.13936 -6.84375,-15.83007 -3.83326,-3.80016 -9.55393,-6.94602 -17.35157,-9.08594 49.49724,-3.20462 100.57668,-5.94541 152.19532,-7.33008 31.8201,-0.85357 63.63893,-1.26015 94.96093,-1.09375 z m -332.3457,4.16016 c 5.84067,0.23411 12.06304,1.96939 18.51367,5.60742 l -0.10742,-0.0879 c 0.79361,0.90877 2.04979,1.66198 3.44141,2.36719 -16.71807,1.29703 -33.52697,2.58119 -49.38672,3.95703 3.33577,-3.42668 7.07628,-6.40647 11.31445,-8.44336 4.92527,-2.36712 10.38394,-3.6345 16.22461,-3.40039 z m 580.83789,0.13476 c 1.6489,-0.0867 3.32731,-0.0393 5.00781,0.12305 6.72203,0.64944 13.4431,3.13171 18.21094,6.01562 2.38392,1.44196 4.27777,2.98722 5.43555,4.42188 1.15778,1.43466 1.54395,2.69493 1.14453,3.66797 -0.39942,0.97304 -1.68176,1.85571 -4.25977,2.33789 -2.57653,0.4819 -6.38777,0.55327 -11.64062,0.0195 h -0.008 c -0.48018,-0.0568 -0.82529,-0.0556 -1.28516,-0.10352 -1.98946,-0.41338 -3.90767,-0.86 -5.92578,-1.25976 -8.52348,-1.68841 -17.58291,-3.116 -26.58985,-4.56836 1.80179,-1.8237 3.89678,-3.68776 6.62305,-5.63477 l 0.0176,-0.0117 0.0176,-0.0156 c 3.62872,-3.25686 8.30525,-4.73217 13.25195,-4.99219 z m -688.23828,0.37891 c 0.75546,-0.005 1.52016,0.0835 2.29297,0.23242 2.88684,0.55627 5.82876,1.96372 8.66211,2.56055 -3.90954,5.35953 -7.81898,10.71859 -11.72852,16.07812 -6.69709,0.67677 -12.4228,1.29786 -18.80664,1.96485 4.45383,-6.16139 8.88715,-12.20085 12.98633,-17.29883 2.13591,-2.65635 4.32738,-3.52178 6.59375,-3.53711 z m 527.51758,0.52539 c 7.93979,0.37616 14.73298,2.97831 20.25976,7.01953 8.84286,6.46595 14.44571,16.64641 16.21094,27.35352 1.71394,10.396 -0.27502,21.22567 -6.30078,29.66601 -8.91667,-0.41106 -17.29193,-0.84642 -26.4043,-1.24023 4.66242,-2.86235 8.58726,-7.66539 11.14453,-13.21289 3.54998,-7.701 4.54465,-16.74301 1.28125,-23.66602 -3.2634,-6.92301 -10.83048,-11.61084 -24.04101,-10.54492 h -0.006 -0.004 c -8.40762,0.85936 -14.28341,6.49177 -17.1914,13.58789 -2.90799,7.09612 -2.89717,15.67456 0.42773,22.57812 l 0.0117,0.0195 0.0117,0.0195 c 3.05166,4.8721 6.24427,8.24449 9.44922,10.49414 -7.94755,-0.32721 -16.08902,-0.6141 -24.14844,-0.92383 -2.52974,-4.65025 -4.29975,-9.78569 -5.07422,-15.12695 -1.38888,-9.57864 0.13555,-19.60661 4.84375,-27.72852 4.7082,-8.1219 12.58224,-14.35119 23.98633,-16.39062 l 0.0176,-0.004 0.0195,-0.004 c 5.56555,-1.54601 10.74198,-2.12217 15.50586,-1.89648 z m -97.19727,0.76758 c 1.9776,-0.0408 3.67271,0.37389 5.07422,1.08593 2.80303,1.42409 4.46415,4.06152 4.85156,6.75391 0.38742,2.69239 -0.49079,5.40554 -2.76367,7.04688 -2.27287,1.64133 -6.00696,2.24945 -11.43945,0.51953 l -0.0176,-0.006 -0.0195,-0.004 c -2.41517,-0.53213 -4.35378,-0.55982 -5.91211,-0.14648 -1.55833,0.41333 -2.72385,1.28282 -3.5332,2.46679 -1.61871,2.36796 -1.8797,5.9156 -1.6875,9.90235 0.1922,3.98674 0.86048,8.42863 1.24414,12.56445 0.38366,4.13582 0.46962,7.96794 -0.42774,10.66602 l -0.0234,0.0703 0.004,0.0762 c 0.0904,2.29981 0.2009,4.60803 0.32422,6.93555 -5.88119,-0.17273 -11.79594,-0.30575 -17.69922,-0.46485 -0.20293,-11.40053 -0.40639,-22.80064 -0.60937,-34.20117 l -0.002,0.0469 c 0.21577,-2.26489 -0.18415,-3.96747 -1.07226,-5.20703 -0.88811,-1.23956 -2.2371,-1.98327 -3.8086,-2.42579 -3.14299,-0.88502 -7.24956,-0.63039 -11.05468,-0.65429 -3.80512,-0.0239 -7.25987,-0.35361 -9.0586,-2.10352 -0.89936,-0.87495 -1.44006,-2.10326 -1.45703,-3.95703 -0.0165,-1.79717 0.51145,-4.2021 1.69531,-7.2832 h 50.53711 l 0.0801,-0.0352 c 2.5378,-1.11054 4.79779,-1.60565 6.77539,-1.64648 z m 209.94531,0.51367 c 2.65006,0.0988 5.51474,1.40271 8.26758,4.25586 -0.0205,0.40092 0.004,0.81506 -0.0137,1.2168 -5.15045,-0.71167 -10.43178,-1.35314 -15.70898,-1.99805 0.1224,-0.13712 0.1952,-0.34105 0.32226,-0.4707 1.95915,-1.99908 4.4469,-3.10402 7.13281,-3.00391 z m -300.4746,0.48828 c 1.84087,-0.0283 3.78129,0.19591 5.8125,0.64844 6.10197,13.87398 12.2065,27.74709 18.30859,41.62109 1.36759,3.75771 3.82123,8.57868 6.19336,13.45703 -7.89014,-0.18047 -15.67026,-0.46723 -23.56836,-0.61914 -14.99298,-0.28836 -29.80704,-0.31587 -44.75,-0.49023 2.70824,-8.823 5.68937,-18.36968 9.40039,-26.98828 3.74652,-8.70106 8.23119,-16.43488 13.85156,-21.47657 4.21528,-3.78126 9.04745,-6.06463 14.75196,-6.15234 z m 244.33203,0.0723 c 5.96485,0.32069 10.72758,3.23363 15.01757,7.28906 5.71838,5.4057 10.51508,12.8493 15.91797,18.75195 0.002,0.002 0.002,0.004 0.004,0.006 3.05252,4.55052 5.77421,8.21351 8.0918,10.75586 2.32815,2.55394 4.2121,4.04897 5.85742,4.0918 0.82266,0.0214 1.55792,-0.40934 2.03906,-1.1875 0.48114,-0.77816 0.77027,-1.88661 0.91602,-3.37305 0.29148,-2.97288 -0.0188,-7.47743 -0.9961,-13.78516 l -0.008,-0.0488 -0.0176,-0.0449 c -3.18542,-7.70181 -1.88504,-14.57561 1.3418,-18.77539 5.45429,0.66421 10.90605,1.32906 16.22461,2.06446 -0.79747,20.24746 1.62642,41.42928 -0.85156,60.99218 -8.31289,-0.458 -15.78882,-0.91476 -24.41993,-1.36914 -3.91152,-4.56071 -7.67146,-9.76583 -11.06445,-14.59765 -2.47898,-3.53021 -4.76992,-6.83469 -6.81445,-9.48633 -2.04454,-2.65164 -3.81971,-4.64943 -5.38086,-5.5918 -0.78058,-0.47118 -1.54839,-0.6918 -2.25977,-0.48242 -0.71137,0.20938 -1.25958,0.82679 -1.65625,1.76563 -0.79202,1.87457 -1.12037,5.17289 -1.01172,10.42578 -1e-4,0.003 1.1e-4,0.007 0,0.01 10e-5,0.005 -1e-4,0.007 0,0.0117 -0.17413,5.22496 0.40681,11.27028 0.39454,16.58789 -5.5228,-0.27595 -11.24276,-0.53715 -16.86524,-0.80859 -0.90572,-20.84035 -0.32588,-41.7394 -0.53125,-62.63281 2.15252,-0.4644 4.18359,-0.66991 6.07227,-0.56836 z m -416.3711,0.10937 c 6.34471,-0.13094 12.67351,-0.0599 18.97071,0.70899 0.1245,0.0228 0.22018,0.0588 0.34375,0.082 -12.74903,0.84004 -25.53647,1.59964 -37.95508,2.51367 -0.0202,-0.93656 0.007,-1.88125 -0.0215,-2.81641 6.22449,-0.0472 12.45066,-0.36009 18.66211,-0.48828 z m 99.40235,0.23633 c 7.89281,-0.25726 15.28177,-0.0465 20.2539,2.26172 0.91287,5.14182 0.0447,8.13493 -1.89843,9.85742 -1.97455,1.75032 -5.18377,2.2696 -8.98047,2.18945 -7.5934,-0.16029 -17.34216,-2.70145 -23.85938,-1.30859 l -0.12695,0.0273 -0.0899,0.0937 c -3.36483,3.60094 -5.29031,6.3536 -6.09765,8.53516 -0.40367,1.09078 -0.52671,2.0475 -0.375,2.88672 0.1517,0.83921 0.58515,1.54484 1.2168,2.09765 1.26329,1.10563 3.27421,1.66464 5.71875,2.00782 2.44453,0.34317 5.33426,0.45125 8.35742,0.53906 6.0463,0.17562 12.63345,0.28268 17.0625,1.90234 2.21452,0.80983 3.86462,1.97723 4.71875,3.67969 0.81114,1.61678 0.86119,3.82429 -0.0488,6.75195 -3.03239,-1.52527 -7.92756,-1.32731 -13.27734,-0.14843 -5.63102,1.24084 -11.6888,3.55665 -16.28321,6.20312 -2.2972,1.32324 -4.22865,2.72505 -5.56445,4.14258 -0.60302,0.63991 -1.04489,1.29071 -1.38086,1.94141 -5.70988,-0.005 -11.32748,0.0404 -17,0.0566 -0.60044,-17.7727 0.13888,-35.62986 -0.19141,-53.45508 h 14.375 l -0.041,-0.002 c 7.04068,0.70424 15.52249,6.4e-4 23.51172,-0.25976 z m 182.81054,0.26172 h 18.07032 v 57.92969 c -5.42968,-0.1956 -10.64317,-0.43125 -16.10938,-0.61719 -0.0973,-1.26158 -0.30556,-2.22352 -0.37305,-3.55664 -0.48053,-9.49205 -0.31048,-20.61468 -0.30859,-30.57813 0.002,-9.70944 -0.17597,-18.17356 -1.2793,-23.17773 z m -260.16992,0.94922 c 9.03839,2.08556 15.45843,5.42554 19.56641,9.49804 4.58229,4.54273 6.5026,9.90778 6.59961,15.25977 0.19402,10.70398 -7.02412,21.33752 -14.96289,24.64648 -0.36701,0.15298 -0.64531,0.48406 -0.70118,0.85547 -0.0559,0.37142 0.0514,0.73855 0.23438,1.13281 0.16214,0.34927 0.60941,0.83479 0.89844,1.24024 -7.328,0.0699 -14.48949,0.20981 -21.72461,0.32031 -2.62301,-0.93647 -4.81962,-1.43161 -6.30274,-1.11133 -0.90237,0.19487 -1.5895,0.64853 -2.1289,1.23633 -7.4859,0.13189 -14.90464,0.28415 -22.26953,0.46289 -0.37041,-16.82792 0.43755,-33.93547 0.11328,-50.85742 13.29637,-0.9788 27.00544,-1.79035 40.67773,-2.68359 z m -41.50195,2.75 c 0.31994,16.86646 -0.48823,33.95704 -0.11524,50.8125 -5.16444,0.12669 -10.24355,0.28485 -15.34179,0.43554 -0.57349,-0.47043 -1.1117,-1.07439 -1.73633,-1.33398 -1.12456,-0.46735 -2.3451,-0.53069 -3.55664,-0.0352 -1.25908,0.51498 -2.99652,1.07362 -4.4336,1.64258 -10.82664,0.35626 -21.36603,0.80542 -31.83593,1.2793 -0.51632,-0.45296 -1.04924,-0.87047 -1.51953,-1.41992 -2.98112,-3.4829 -5.01131,-9.0108 -5.41993,-17.43555 v -0.0176 l -0.002,-0.0176 c -1.29461,-9.79133 2.7152,-16.20596 8.08984,-20.23047 5.37465,-4.02451 12.15752,-5.59618 16.19922,-5.5039 3.61139,0.0824 6.82192,1.62525 9.23243,3.42578 2.41051,1.80053 4.02148,3.91677 4.375,4.84375 0.72028,1.88872 1.86341,2.89358 3.21093,3.04883 1.34753,0.15524 2.7858,-0.48483 4.22266,-1.5586 2.87373,-2.14752 5.81014,-6.12053 7.7793,-10.00586 0.6597,-1.30166 0.41666,-2.53241 -0.34571,-3.49609 -0.76236,-0.96368 -1.98249,-1.73204 -3.34375,-2.45312 -0.45789,-0.24256 -0.9346,-0.46783 -1.41406,-0.70313 5.41595,-0.41697 10.46374,-0.87218 15.95508,-1.27734 z m -17.58789,1.4082 c 0.90321,0.42798 1.81918,0.85335 2.66015,1.29883 1.32363,0.70114 2.46026,1.44788 3.08399,2.23633 0.62373,0.78844 0.79692,1.54572 0.25586,2.61328 -1.92134,3.79097 -4.8394,7.70422 -7.53516,9.71875 -1.34788,1.00726 -2.62284,1.5172 -3.63672,1.40039 -1.01388,-0.11681 -1.87943,-0.80596 -2.53515,-2.52539 -0.48381,-1.26864 -2.14193,-3.33383 -4.65235,-5.20899 -2.51042,-1.87515 -5.87305,-3.50231 -9.70703,-3.58984 -4.27194,-0.0975 -11.15438,1.50724 -16.71094,5.66797 -5.55304,4.15809 -9.73629,10.93356 -8.41406,20.98242 0.41632,8.52857 2.47483,14.24734 5.61328,17.91406 0.30978,0.36192 0.6741,0.61367 1.00391,0.93555 -6.92783,0.3169 -13.93976,0.60526 -20.69141,0.97656 -0.23291,-0.47856 -0.50824,-0.93919 -0.71679,-1.42773 -4.15609,-9.73563 -3.48998,-21.41376 0.70117,-31.84766 2.22185,-5.53133 5.48627,-10.64557 9.48047,-14.99414 16.61414,-1.44429 34.24311,-2.793 51.80078,-4.15039 z m 518.6289,0.13281 c 5.90746,0.82199 11.67236,1.71011 17.40039,2.62305 -3.54649,3.92537 -5.40142,7.6598 -5.5664,11.18359 -0.25856,5.52237 3.10877,10.43819 8.09961,14.83985 9.87245,8.707 26.20592,15.59366 34.85742,21.41015 -1.81777,3.40551 -4.31808,5.30435 -7.28125,6.17578 -3.06564,0.90157 -6.62732,0.71621 -10.32031,-0.0605 -7.386,-1.5535 -15.24948,-5.46102 -20.72461,-7.44727 l -0.13867,0.38867 -0.38477,-0.15039 c -2.00271,5.15736 -2.25036,9.39191 -1.25586,12.84375 -5.14031,-0.29126 -10.2514,-0.57977 -15.53125,-0.87109 2.48947,-19.66773 0.0635,-40.82061 0.8457,-60.93555 z m 18.34961,2.78711 c 9.18036,1.47421 18.39699,2.93153 27.07422,4.65039 0.0572,0.0113 0.11082,0.0238 0.16797,0.0352 -5.56933,-0.11533 -9.06693,0.68005 -10.89648,2.20508 -1.26122,1.05128 -1.69031,2.49 -1.40625,4.00195 0.28405,1.51195 1.21918,3.11597 2.60742,4.75 5.52521,6.50345 18.34092,13.5527 28.43945,14 5.68113,4.40461 8.91408,8.6358 10.27344,12.55078 1.36647,3.93546 0.8772,7.56147 -0.92774,10.85547 -1.86249,3.39904 -5.18976,6.40291 -9.30859,8.9043 -15.98498,-0.98371 -30.92143,-1.87043 -48.83203,-2.88672 -1.00023,-3.19199 -0.82171,-7.205 1.04297,-12.19336 5.3753,1.9921 13.04965,5.76488 20.43555,7.31836 3.7711,0.79318 7.46326,1.00151 10.72265,0.043 3.2594,-0.95855 6.06796,-3.10884 7.98633,-6.91797 l 0.16211,-0.32227 -0.29688,-0.20312 c -8.72982,-5.96435 -25.31409,-12.90472 -35.11523,-21.54883 -4.90057,-4.32206 -8.06408,-9.01888 -7.82227,-14.18359 0.15928,-3.40184 2.00224,-7.10026 5.69336,-11.0586 z m -590.08984,1.33594 c -3.76301,4.27114 -6.79797,9.26342 -8.93359,14.58008 -4.25907,10.60298 -4.95712,22.49718 -0.69532,32.48047 0.16952,0.3971 0.39862,0.76943 0.58399,1.16015 -17.17894,0.95227 -33.5453,2.14048 -49.4043,3.47071 0.10638,-0.12858 0.17912,-0.29643 0.30664,-0.40235 0.58807,-0.48845 1.43285,-0.76075 2.39649,-0.92383 1.92727,-0.32615 4.24924,-0.15754 5.77929,-1.02929 0.53899,-0.30709 0.9773,-0.77867 1.18164,-1.42383 0.18885,-0.59622 0.13892,-1.35386 -0.0605,-2.23633 0.32197,-1.56771 1.63214,-3.94337 2.32226,-5.90039 0.34516,-0.97879 0.56886,-1.86728 0.31446,-2.62695 -0.12721,-0.37984 -0.40867,-0.71193 -0.80469,-0.89649 -0.39603,-0.18456 -0.88572,-0.24197 -1.49219,-0.19922 -1.96563,0.13857 -5.25455,0.55635 -7.95508,0.40821 -1.35026,-0.0741 -2.54759,-0.29909 -3.3164,-0.7168 -0.76882,-0.41771 -1.12864,-0.92645 -1.01954,-1.86523 0.63583,-5.47088 0.72783,-8.60685 0.52735,-10.40235 -0.10024,-0.89775 -0.26197,-1.46731 -0.53906,-1.85547 -0.27709,-0.38815 -0.76342,-0.52228 -1.1211,-0.42578 -0.25064,0.0676 -0.41558,0.21767 -0.59375,0.35352 0.0803,-0.29401 0.12008,-0.48058 0.29492,-1.02149 l 0.15235,-0.46679 -0.48633,-0.0684 c -3.76163,-0.5249 -10.59466,-1.50749 -15.06445,2.03515 -0.76132,0.60341 -0.91796,1.74233 -0.96289,3.07032 -0.0449,1.32798 0.0777,2.88912 0.17968,4.375 0.10203,1.48588 0.17906,2.90107 0.0684,3.86914 -0.0553,0.48403 -0.16609,0.84996 -0.28711,1.03515 -0.12101,0.18519 -0.17761,0.22362 -0.40039,0.19922 -4.60602,-0.50445 -8.44796,1.05689 -11.30468,1.56445 -1.42837,0.25378 -2.56962,0.24525 -3.48047,-0.30273 -0.8812,-0.53014 -1.62437,-1.65738 -2.1875,-3.73242 6.02726,-8.26271 12.05477,-16.52441 18.08203,-24.78711 24.19704,-2.44375 50.28525,-4.90969 77.91992,-7.31836 z m 98.56055,1.94141 c -2.26426,0.18703 -4.76814,0.60694 -7.52344,1.29492 l 0.0996,0.40039 -0.41016,-0.0176 c -0.29942,6.90907 -0.59891,13.81751 -0.89844,20.72656 l -0.008,0.16406 0.10742,0.12305 c 5.64872,6.56046 11.44261,7.91482 16.15625,6.27539 4.71365,-1.63943 8.29805,-6.17125 9.78516,-11.17383 1.48711,-5.00258 0.86979,-10.54452 -2.98047,-14.1289 -2.88769,-2.68829 -7.53536,-4.22516 -14.32812,-3.66406 z m 0.0566,0.82226 c 6.62297,-0.55039 11.02993,0.94931 13.70898,3.44336 3.57207,3.32541 4.17622,8.50835 2.75391,13.29297 -1.42232,4.78462 -4.87952,9.10272 -9.26758,10.62891 -4.35921,1.51615 -9.68651,0.35262 -15.1543,-5.93165 0.29208,-6.73719 0.58498,-13.47373 0.87696,-20.21093 2.58837,-0.63081 4.96317,-1.04657 7.08203,-1.22266 z m 519.20312,1.41211 c 1.55891,0.0423 3.41734,0.21604 5.32617,0.41211 45.01042,9.35837 82.64773,22.18814 109.23438,39.41406 11.52194,7.46526 20.84396,15.79169 27.9707,24.95117 -18.75842,-1.43363 -58.91722,-4.30205 -122.8457,-8.24609 3.75401,-2.43328 6.83397,-5.30604 8.63867,-8.59961 1.89867,-3.46506 2.42109,-7.37615 0.98242,-11.51953 -1.43866,-4.14338 -4.80755,-8.50863 -10.62695,-13.00195 l -0.10547,-0.0801 -0.13086,-0.006 c -9.75744,-0.36886 -22.66734,-7.45205 -27.99805,-13.72656 -1.33267,-1.56863 -2.18375,-3.08088 -2.42578,-4.36914 -0.24203,-1.28827 0.0625,-2.33276 1.12305,-3.2168 1.59087,-1.32606 5.04031,-2.16975 10.85742,-2.01172 z m -171.08008,0.0684 c 10.11081,0.25141 15.90167,4.42926 18.62891,10.21484 3.11684,6.6121 2.18622,15.44022 -1.28516,22.97071 -2.71628,5.89246 -6.99811,10.87479 -11.98828,13.49609 -5.13863,-0.22121 -10.60162,-0.39078 -15.79492,-0.60547 -3.4362,-2.12127 -6.9041,-5.61474 -10.26172,-10.96875 -3.20017,-6.65979 -3.21875,-15.01603 -0.40234,-21.88867 2.81899,-6.87893 8.42648,-12.25367 16.51172,-13.08008 1.62054,-0.13042 3.15046,-0.17451 4.59179,-0.13867 z m -525.75586,3.17773 c -5.92703,8.12531 -11.85421,16.24969 -17.78125,24.375 l -0.11523,0.15821 0.0488,0.1875 c 0.59687,2.32323 1.45937,3.70109 2.625,4.40234 1.16563,0.70126 2.54327,0.6757 4.04883,0.4082 3.01111,-0.53499 6.69809,-2.03744 11.07031,-1.55859 0.48167,0.0527 0.93718,-0.19231 1.18164,-0.56641 0.24446,-0.37409 0.35136,-0.84424 0.41406,-1.39257 0.1254,-1.09666 0.0379,-2.52847 -0.0644,-4.01954 -0.10238,-1.49106 -0.22214,-3.03665 -0.17969,-4.29101 0.0425,-1.25436 0.30219,-2.17365 0.65235,-2.45117 3.94591,-3.12743 10.14791,-2.42147 13.95898,-1.89844 -0.15529,0.50375 -0.31827,1.0218 -0.36328,1.27148 -0.0314,0.17416 -0.0806,0.28502 0.0137,0.51563 0.0471,0.1153 0.21393,0.26849 0.37109,0.28906 0.15717,0.0206 0.24734,-0.0274 0.3125,-0.0606 0.26064,-0.13258 0.38343,-0.29759 0.57813,-0.46289 0.1947,-0.16529 0.40824,-0.30523 0.5293,-0.33789 0.12105,-0.0327 0.10992,-0.0677 0.23632,0.10938 0.12641,0.17707 0.29795,0.63875 0.39063,1.46875 0.18535,1.65999 0.1053,4.77137 -0.52734,10.21484 -0.14233,1.22464 0.48042,2.16132 1.44531,2.68555 0.96488,0.52423 2.25386,0.73709 3.66406,0.81445 2.82039,0.15473 6.14651,-0.27341 8.05859,-0.4082 0.5197,-0.0366 0.87308,0.0258 1.08594,0.125 0.21286,0.0992 0.30532,0.21375 0.3711,0.41016 0.13154,0.39282 0.0138,1.17204 -0.31055,2.09179 -0.64868,1.8395 -1.97789,4.18763 -2.35156,6.00977 l -0.0195,0.0918 0.0234,0.0918 c 0.22705,0.88992 0.21866,1.52309 0.0781,1.9668 -0.14054,0.4437 -0.40181,0.72749 -0.80469,0.95703 -1.14367,0.65161 -3.44653,0.58671 -5.50781,0.93555 -1.03064,0.17441 -2.02166,0.46577 -2.78711,1.10156 -0.35407,0.29409 -0.6323,0.68084 -0.85156,1.12891 -6.08417,0.51485 -12.22493,1.01544 -18.0879,1.58984 -0.007,-0.34449 0.0598,-0.7341 -0.0391,-1.03125 -0.19857,-0.59655 -0.69429,-1.06888 -1.40429,-1.20117 -11.96592,-2.22963 -26.32223,-2.29579 -41.08399,-1.00586 0.25169,-1.91917 -0.10527,-3.88876 -0.2793,-5.78906 -0.18968,-2.07131 -0.11125,-4.0135 1.29493,-5.80469 6.17212,-7.86202 13.75221,-18.68463 21.29882,-29.14649 6.41088,-0.67068 12.07769,-1.29382 18.80664,-1.97461 z m 337.67969,0.57813 -0.81054,0.0898 c -0.0839,1.90652 -1.48399,4.98376 -3.28907,8.33789 -1.80507,3.35414 -3.99441,7.01772 -5.59961,10.30078 -0.8026,1.64154 -1.45977,3.186 -1.84961,4.56641 -0.38983,1.38041 -0.52624,2.60405 -0.20312,3.61133 0.32312,1.00728 1.16323,1.7369 2.44922,1.99805 1.26609,0.2571 2.98741,0.11737 5.29297,-0.43946 6.14379,1.66579 9.77311,1.62286 11.72265,0.15235 0.98205,-0.74075 1.4756,-1.84266 1.5918,-3.11524 0.1162,-1.27258 -0.11905,-2.73355 -0.56836,-4.33008 -1.79725,-6.38611 -7.07617,-15.06335 -8.73633,-21.17187 z m -0.3457,1.46484 c 2.00112,6.20405 6.66012,14.1436 8.28906,19.93164 0.43372,1.54111 0.64262,2.9185 0.54102,4.03125 -0.10161,1.11276 -0.48695,1.94243 -1.26758,2.53125 -1.56127,1.17764 -4.97788,1.37191 -11.11914,-0.30859 l -0.10352,-0.0273 -0.10351,0.0254 c -2.29729,0.56361 -3.94689,0.66902 -5.0293,0.44922 -1.08241,-0.21981 -1.58801,-0.69484 -1.82812,-1.44336 -0.24012,-0.74853 -0.15658,-1.83342 0.21093,-3.13477 0.36751,-1.30135 1.00614,-2.81241 1.79688,-4.42969 1.58148,-3.23456 3.76592,-6.89321 5.58398,-10.27148 1.50763,-2.80143 2.58348,-5.26945 3.0293,-7.35352 z m -357.24609,0.0508 c -7.41014,10.28498 -14.81272,20.83776 -20.8418,28.51758 -1.57836,2.01052 -1.66294,4.24884 -1.4668,6.39063 0.19614,2.14179 0.64377,4.22747 0.27539,6.07226 l -0.10742,0.54102 0.54688,-0.0488 c 14.87466,-1.32762 29.34056,-1.26859 41.3164,0.96289 0.47653,0.0888 0.64888,0.27229 0.77539,0.65234 0.0623,0.18721 0.013,0.55855 0.0195,0.8418 -1.36254,0.13435 -2.86088,0.2315 -4.21093,0.36914 -48.00131,4.89394 -88.048842,11.8757 -116.189453,21.53125 -14.070305,4.82778 -25.167792,10.32186 -32.800781,16.58594 -5.4256447,4.4526 -9.0090914,9.33236 -10.7226564,14.60547 1.7283563,-25.27658 0.079961,-53.9292 0.7402344,-80.21485 0.4797621,-0.0668 57.267742,-7.85522 142.666016,-16.80664 z m 619.2871,16.51368 c 0.40237,-0.11843 0.92787,-0.0102 1.60157,0.39648 1.3474,0.81335 3.1301,2.76537 5.15429,5.39063 2.0242,2.62526 4.31233,5.92444 6.79297,9.45703 3.25051,4.62892 6.84777,9.60222 10.61133,14.06054 -8.25418,-0.43357 -17.31706,-0.82775 -25.83203,-1.2539 0.0236,-5.41441 -0.57821,-11.46745 -0.4043,-16.62305 v -0.0117 -0.0117 c -0.10936,-5.22443 0.25955,-8.48434 0.94532,-10.10742 0.34288,-0.81154 0.72849,-1.17845 1.13085,-1.29687 z M 341.29476,788.9259 c 0.92687,-0.20016 2.23462,-0.0781 3.86133,0.33984 -1.50431,0.0239 -3.02357,0.0426 -4.52344,0.0684 0.2411,-0.11494 0.36023,-0.34301 0.66211,-0.4082 z m -44.23633,0.45508 c 0.48523,0.0104 0.96305,0.12265 1.44336,0.32226 0.26736,0.11112 0.52121,0.44366 0.78711,0.60938 -1.95532,0.0586 -3.94566,0.10376 -5.89062,0.16602 0.6612,-0.26947 1.56144,-0.55733 2.17578,-0.8086 0.50775,-0.20768 0.99915,-0.29946 1.48437,-0.28906 z m 116.90235,0.17187 c -0.15876,0.51555 -0.34367,1.03215 -0.27344,1.54297 0.19648,1.42906 1.37054,2.66416 3.55469,3.61719 2.18415,0.95303 5.42658,1.67036 9.99414,2.08594 6.9926,0.61562 16.1777,-1.09175 22.61133,-0.16211 3.21681,0.46482 5.6838,1.55536 6.95117,3.83203 1.24369,2.23415 1.35169,5.75928 -0.33399,11.1543 -19.26024,-0.24423 -38.53535,0.75257 -57.67968,-1.12305 -0.85597,-6.94399 -1.29759,-13.91156 -1.55079,-20.89063 5.58128,-0.016 11.10901,-0.0613 16.72657,-0.0566 z m -44.22266,0.17579 c 0.21667,0.26612 0.28766,0.45668 0.53906,0.74414 1.89192,2.16325 4.71074,4.89441 7.40821,7.71679 2.69747,2.82239 5.27225,5.74033 6.65039,8.19336 0.68907,1.22652 1.06871,2.33253 1.05859,3.21094 -0.01,0.86107 -0.35111,1.51105 -1.21094,2.05273 -6.33052,1.41339 -12.20945,1.31821 -17.06836,0.41407 -0.83481,-0.15535 -1.94454,-1.02703 -3.15429,-2.43555 -1.20975,-1.40852 -2.53306,-3.32388 -3.9336,-5.47266 -2.80108,-4.29754 -5.91358,-9.52483 -9.19336,-13.58007 l -0.0605,-0.0742 -0.084,-0.0391 c -0.45464,-0.21531 -0.72758,-0.24793 -1.15234,-0.43359 6.73665,-0.099 13.38478,-0.23285 20.20117,-0.29687 z m 99.50977,0.35937 c 15.02336,0.17458 29.91787,0.20422 44.99218,0.49414 8.03352,0.15451 15.94748,0.44486 23.97266,0.62891 2.09754,4.34318 4.09847,8.69563 5.10156,12.32422 0.54884,1.98534 0.8025,3.74968 0.6543,5.15039 -0.1482,1.40071 -0.66438,2.41409 -1.69531,3.06445 -1.03093,0.65036 -2.64282,0.94041 -5,0.67578 -2.32798,-0.26135 -5.38151,-1.07148 -9.24219,-2.52539 -4.55858,-9.21682 -9.68276,-13.88868 -15.17188,-15.56836 -5.52551,-1.69081 -11.33594,-0.36269 -17.19531,2.13672 -11.48308,4.89831 -23.30602,14.22735 -33.79101,15.06055 2.4744,-5.49567 4.81018,-13.07813 7.375,-21.44141 z m -130.75196,0.10156 c -0.35979,0.63799 -0.68821,1.30189 -0.82422,2.11914 -0.69388,4.1696 0.86501,10.39459 0.78711,15.04297 -0.0249,1.48898 -0.096,2.47839 -0.39648,3.02149 -0.15024,0.27154 -0.34231,0.45347 -0.66992,0.60351 -0.32761,0.15004 -0.79802,0.25362 -1.44922,0.29883 -2.5668,0.1782 -7.89974,-0.56588 -18.01563,-1.41016 -0.69486,-6.34134 -1.04251,-12.75947 -1.20117,-19.2207 7.20187,-0.17482 14.45155,-0.32508 21.76953,-0.45508 z m -38.17968,0.91797 c 0.33629,0.29566 0.68768,0.41904 1.01367,0.78516 1.761,1.97777 3.31685,4.89266 4.52539,7.73242 -11.01445,9.88339 -26.53321,14.55556 -41.07031,12.16406 -14.04148,-2.57283 -22.69506,-9.45123 -27.22657,-18.13281 6.89247,-0.3778 14.06084,-0.66705 21.13672,-0.98828 2.86749,2.40106 6.32506,3.57111 10.04883,3.80664 7.45921,0.47179 15.50382,-2.42686 22.25195,-5.10352 3.0704,-0.10087 6.22385,-0.17187 9.32032,-0.26367 z m -11.89844,0.33789 c -6.27433,2.36464 -13.21438,4.61238 -19.62305,4.20703 -3.31787,-0.20985 -6.37679,-1.1108 -8.96094,-3.03515 9.43129,-0.42365 18.86211,-0.84363 28.58399,-1.17188 z m 277.60937,0.4961 c 5.91106,0.15933 11.83376,0.29184 17.72266,0.46484 0.2695,5.38699 0.38917,10.59858 -0.78516,14.38672 -0.86999,2.80643 -2.37168,4.83578 -4.99023,5.79101 -2.56632,0.93619 -6.32218,0.77987 -11.5957,-0.88281 -0.11725,-6.58666 -0.23432,-13.1731 -0.35157,-19.75976 z m 53.70313,1.53125 c 5.43675,0.18502 10.62284,0.41871 16.02344,0.61328 v 10.3164 c -3.12537,3.92897 -5.69495,6.10686 -7.68555,6.84375 -1.00576,0.37232 -1.85309,0.39486 -2.60547,0.14453 -0.75238,-0.25032 -1.43008,-0.78749 -2.04687,-1.61523 -2.03983,-2.73744 -3.06912,-8.98831 -3.68555,-16.30273 z m 36.7207,1.40429 c 8.32554,0.32049 16.74778,0.61603 24.95313,0.95508 4.05481,2.43673 8.10216,3.06938 11.88476,2.26563 1.47733,-0.31392 2.87356,-0.95323 4.24805,-1.64844 9.4337,0.40627 18.16913,0.84857 27.39453,1.27344 -6.4611,8.5366 -17.30232,14.43345 -33.2168,14.49414 h -0.0273 l -0.0254,0.004 c -11.85116,1.56514 -21.32427,-1.97624 -28.2168,-8.29687 -2.80852,-2.5755 -5.06798,-5.70011 -6.99414,-9.04688 z m 26.75977,1.02344 c 4.02931,0.16729 8.2712,0.29947 12.26758,0.4707 -0.78934,0.30339 -1.54551,0.74657 -2.36133,0.91993 -3.15071,0.66948 -6.50208,0.28639 -9.90625,-1.39063 z m -497.64649,1.42578 c -0.0814,0.33212 -0.20464,0.62586 -0.21484,1.02149 -0.133,5.15708 -0.90896,8.53015 -2.4668,10.49609 -1.55783,1.96594 -3.92048,2.65643 -7.56054,2.38867 l -0.0176,-0.002 h -0.0195 c -3.98472,0.0648 -6.14269,-0.79653 -7.27344,-2.03711 -1.13075,-1.24059 -1.31934,-2.94962 -1.1543,-4.78516 0.16505,-1.83554 0.69029,-3.74362 0.88477,-5.30078 0.0102,-0.0815 -0.0162,-0.13709 -0.008,-0.2168 5.77827,-0.56631 11.83618,-1.05602 17.83008,-1.56445 z m 560.7793,1.42383 c 5.61157,0.27097 11.32176,0.53315 16.83398,0.80859 -0.0321,2.09984 -0.15723,4.08693 -0.50781,5.80274 -0.63496,3.10762 -1.89184,5.34577 -4.30273,6.29687 -2.37066,0.93524 -6.03786,0.58526 -11.44141,-1.67968 -0.2895,-3.73947 -0.41167,-7.48453 -0.58203,-11.22852 z m 45.33398,2.20508 c 8.33965,0.43969 15.57965,0.8812 23.6211,1.32422 -0.39869,2.9714 -0.91392,5.90526 -1.58008,8.78906 -2.76121,1.43292 -5.55876,1.49432 -8.42578,0.53711 -2.92512,-0.97661 -5.90645,-3.01607 -8.84766,-5.70703 -1.60781,-1.47102 -3.1974,-3.15783 -4.76758,-4.94336 z m 41.17383,2.30859 c 17.19129,0.97597 31.72685,1.83276 47.14649,2.7793 -3.56233,1.98246 -7.54457,3.66857 -11.79883,4.81445 -9.92633,2.67365 -20.75981,2.83277 -27.93164,-0.38086 -3.51447,-1.5748 -6.12391,-3.94629 -7.41602,-7.21289 z m 174.5293,11.33789 c 4.7646,0.36577 17.0735,1.26988 17.1914,1.2793 -1.0344,6.53263 0.039,15.07885 0.459,22.94531 0.2145,4.01871 0.2526,7.84944 -0.2442,11.09961 -0.4285,2.80332 -1.3669,5.03282 -2.7832,6.73828 -0.2493,-15.73159 -5.4105,-29.67823 -14.623,-42.0625 z"
           id="path5" />
      </g>
    </g>
  </g>
</svg>
