<?xml version="1.0" encoding="UTF-8" standalone="no"?>
<!-- Created with Inkscape (http://www.inkscape.org/) -->

<svg
   version="1.1"
   id="svg1"
   width="1024"
   height="1024"
   viewBox="0 0 1024 1024"
   sodipodi:docname="brand_logo_UPDATED.svg"
   inkscape:version="1.4.2 (f4327f4, 2025-05-13)"
   xmlns:inkscape="http://www.inkscape.org/namespaces/inkscape"
   xmlns:sodipodi="http://sodipodi.sourceforge.net/DTD/sodipodi-0.dtd"
   xmlns:xlink="http://www.w3.org/1999/xlink"
   xmlns="http://www.w3.org/2000/svg"
   xmlns:svg="http://www.w3.org/2000/svg">
  <sodipodi:namedview
     id="namedview1"
     pagecolor="#ffffff"
     bordercolor="#000000"
     borderopacity="0.25"
     inkscape:showpageshadow="2"
     inkscape:pageopacity="0.0"
     inkscape:pagecheckerboard="false"
     inkscape:deskcolor="#d1d1d1"
     inkscape:zoom="0.58764441"
     inkscape:cx="393.09487"
     inkscape:cy="346.29786"
     inkscape:window-width="1920"
     inkscape:window-height="1111"
     inkscape:window-x="-9"
     inkscape:window-y="-9"
     inkscape:window-maximized="1"
     inkscape:current-layer="layer1"
     showgrid="false" />
  <defs
     id="defs1">
    <linearGradient
       id="linearGradient14"
       inkscape:collect="always">
      <stop
         style="stop-color:#161978;stop-opacity:0.92920399;"
         offset="0"
         id="stop14" />
      <stop
         style="stop-color:#a05a2c;stop-opacity:0;"
         offset="1"
         id="stop15" />
    </linearGradient>
    <linearGradient
       id="linearGradient10"
       inkscape:collect="always">
      <stop
         style="stop-color:#191298;stop-opacity:0.31874999;"
         offset="0"
         id="stop10" />
      <stop
         style="stop-color:#120d6a;stop-opacity:0;"
         offset="1"
         id="stop11" />
    </linearGradient>
    <rect
       x="549.65213"
       y="277.37863"
       width="452.65469"
       height="260.36154"
       id="rect1" />
    <filter
       inkscape:menu-tooltip="3D warped, fibered wood texture"
       inkscape:menu="Materials"
       inkscape:label="3D Wood"
       height="1.5"
       y="-0.25"
       width="1.5"
       x="-0.25"
       style="color-interpolation-filters:sRGB;"
       id="filter5">
      <feGaussianBlur
         result="result8"
         stdDeviation="4"
         id="feGaussianBlur1" />
      <feTurbulence
         baseFrequency="0.025 0.2"
         numOctaves="3"
         type="fractalNoise"
         result="result7"
         seed="22"
         id="feTurbulence1" />
      <feComposite
         in2="result8"
         operator="in"
         in="SourceGraphic"
         result="result6"
         id="feComposite1" />
      <feDisplacementMap
         in2="result6"
         result="result4"
         scale="50"
         yChannelSelector="A"
         xChannelSelector="A"
         in="result7"
         id="feDisplacementMap1" />
      <feFlood
         flood-color="rgb(230,211,138)"
         flood-opacity="1"
         id="feFlood1" />
      <feComposite
         in2="result4"
         operator="atop"
         result="result2"
         id="feComposite2" />
      <feComposite
         in2="SourceGraphic"
         operator="atop"
         in="result2"
         result="result9"
         id="feComposite3" />
      <feGaussianBlur
         result="result0"
         in="result9"
         stdDeviation="8"
         id="feGaussianBlur3" />
      <feSpecularLighting
         specularExponent="15"
         specularConstant="0.7"
         surfaceScale="5"
         lighting-color="rgb(255,255,255)"
         result="result1"
         in="result0"
         id="feSpecularLighting3">
        <feDistantLight
           azimuth="235"
           elevation="50"
           id="feDistantLight3" />
      </feSpecularLighting>
      <feComposite
         operator="in"
         result="result2"
         in="result1"
         in2="result9"
         id="feComposite4" />
      <feComposite
         k3="0.5"
         k2="0.5"
         operator="arithmetic"
         result="result4"
         in="result9"
         in2="result2"
         id="feComposite5" />
      <feConvolveMatrix
         order="3 3"
         kernelMatrix="2 0 0 0 2 0 0 0 -2 "
         targetX="2"
         targetY="2"
         result="result10"
         id="feConvolveMatrix5" />
      <feBlend
         mode="multiply"
         in="result10"
         in2="result10"
         id="feBlend5" />
    </filter>
    <filter
       inkscape:menu-tooltip="3D warped, fibered wood texture"
       inkscape:menu="Materials"
       inkscape:label="3D Wood"
       height="1.2249749"
       y="-0.11248786"
       width="1.1313888"
       x="-0.065684444"
       style="color-interpolation-filters:sRGB"
       id="filter10">
      <feGaussianBlur
         result="result8"
         stdDeviation="5.71 4"
         id="feGaussianBlur5" />
      <feTurbulence
         baseFrequency="0.025 0.2"
         numOctaves="3"
         type="fractalNoise"
         result="result7"
         seed="22"
         id="feTurbulence5" />
      <feComposite
         in2="result8"
         operator="in"
         in="SourceGraphic"
         result="result6"
         id="feComposite6" />
      <feDisplacementMap
         in2="result6"
         result="result4"
         scale="50"
         yChannelSelector="A"
         xChannelSelector="A"
         in="result7"
         id="feDisplacementMap6" />
      <feFlood
         flood-color="rgb(230,211,138)"
         flood-opacity="1"
         id="feFlood6" />
      <feComposite
         in2="result4"
         operator="atop"
         result="result2"
         id="feComposite7" />
      <feComposite
         in2="SourceGraphic"
         operator="atop"
         in="result2"
         result="result9"
         id="feComposite8" />
      <feGaussianBlur
         result="result0"
         in="result9"
         stdDeviation="8"
         id="feGaussianBlur8" />
      <feSpecularLighting
         specularExponent="15"
         specularConstant="0.69999999"
         surfaceScale="5"
         lighting-color="#ffffff"
         result="result1"
         in="result0"
         id="feSpecularLighting8">
        <feDistantLight
           azimuth="235"
           elevation="50"
           id="feDistantLight8" />
      </feSpecularLighting>
      <feComposite
         operator="in"
         result="result2"
         in="result1"
         in2="result9"
         id="feComposite9" />
      <feComposite
         k3="0.5"
         k2="0.5"
         operator="arithmetic"
         result="result4"
         in="result9"
         in2="result2"
         id="feComposite10"
         k1="0"
         k4="0" />
      <feConvolveMatrix
         order="3 3"
         kernelMatrix="2 0 0 0 2 0 0 0 -2 "
         targetX="2"
         targetY="2"
         result="result10"
         id="feConvolveMatrix10" />
      <feBlend
         mode="multiply"
         in="result10"
         in2="result10"
         id="feBlend10" />
    </filter>
    <linearGradient
       inkscape:collect="always"
       xlink:href="#linearGradient10"
       id="linearGradient11" />
    <linearGradient
       inkscape:collect="always"
       xlink:href="#linearGradient14"
       id="linearGradient15"
       x1="-11.783582"
       y1="381.17404"
       x2="563.58771"
       y2="381.17404"
       gradientUnits="userSpaceOnUse" />
  </defs>
  <path
     style="mix-blend-mode:normal;fill:url(#linearGradient15);stroke:#b25e27;stroke-width:0.56828;stroke-dasharray:none;stroke-opacity:1;filter:url(#filter10)"
     d="m 184.83852,252.36452 c 20.75611,40.78397 43.87611,79.42695 64.24993,120.63391 1.98702,1.51576 1.1314,5.49779 3.38755,5.58606 23.35475,0.91371 36.13667,-0.47445 53.63361,-0.67643 54.45134,0.8266 108.90568,0.0709 163.35836,0.0622 -19.62694,-39.79453 -37.30731,-62.57697 -64.83017,-122.67086 -1.66285,-4.26029 -1.04332,-3.26233 -2.65884,-3.32962 -7.39002,-0.30784 -11.3292,0.46181 -19.79793,0.39448 -9.38359,3.46583 -130.84518,0.044 -197.34251,0 M 116.11511,337.378 v -46.71904 c -7.9046,0.33709 -15.89262,-0.93075 -23.707662,1.12815 -0.716345,29.74188 0.02277,59.5047 -0.682662,89.24677 -23.230438,43.01517 -46.874569,85.64242 -70.10434,128.66942 8.200119,-0.70331 17.811955,3.15701 25.103649,-1.91992 39.129886,-69.7207 77.599625,-140.12391 116.352005,-210.23144 40.84391,69.52686 78.30935,142.6051 119.1436,212.13009 7.98229,1.4524 16.01744,0.15162 24.03014,0.0212 -26.21578,-51.24588 -55.54691,-99.49814 -82.32256,-150.25139 -19.42661,-34.28665 -41.04159,-69.14781 -60.27183,-103.58661 -14.50345,24.50692 -23.70982,47.11018 -38.33226,66.7449 -2.93904,5.06704 -5.98803,10.02128 -9.20808,14.768 m 99.64895,-81.9501 c 1.12436,5.27857 1.82293,11.74942 3.65145,14.0999 2.75581,3.54246 8.57649,-2.35755 8.83446,1.27409 -3.80703,0.73923 -5.80009,4.35211 -5.72486,8.04715 0.1454,7.14062 5.02508,15.38526 -1.49336,9.37903 -5.1672,-10.58448 -16.77702,14.09077 -12.04736,-4.40914 0.18872,-1.78365 0.74876,-1.96416 -0.68433,-4.91059 -3.1565,-6.48977 -9.14123,-8.13138 3.78441,-8.19821 3.08222,-1.51711 1.84106,-11.52754 3.67959,-15.28223 z m 44.67021,0 c -0.31586,6.64158 1.61671,9.57781 2.68415,14.93149 1.41977,1.20562 0.40727,-1.84547 9.95637,0.23635 -1.90392,0.3697 -6.58931,4.60529 -7.48574,5.95999 -1.20714,1.82424 1.28026,5.87933 2.60589,7.71891 1.97065,2.73468 3.19713,6.47321 2.40956,6.09404 -7.05091,-3.39467 0.17583,0.33793 -6.75803,-5.64512 -1.33436,-2.73331 -2.33556,-3.63748 -4.15217,-2.87604 -5.218,2.18715 -9.54795,15.69395 -6.03971,1.9714 0.20785,-1.9645 1.91374,-5.37658 0.31845,-6.72036 -2.58662,-2.17881 -7.57048,-3.64586 -8.17927,-4.97737 -0.72332,-1.582 2.0214,-2.22517 8.88675,-2.26068 3.13809,-0.84623 2.22342,-7.27117 5.75375,-14.43261 z m 51.54253,0 c 1.03894,7.82971 2.03999,15.67447 3.74028,15.30954 5.0815,-1.09063 9.06748,0.8431 9.69184,-1.07072 -3.1465,4.68906 -6.25923,7.43243 -6.97369,10.56812 -0.60891,2.67246 2.92864,10.71022 3.32938,12.39969 0.99113,4.17847 -2.04879,-0.78545 -5.59964,-3.72761 -4.58009,-12.52243 -15.29442,12.36254 -10.90704,-3.3168 7.15508,-12.07291 -16.69664,-15.02804 2.55632,-15.18271 4.37083,-1.78269 2.04339,-10.95459 4.16255,-14.97951 z m 55.03077,-2.33229 c 1.79733,7.61635 3.66759,17.62958 5.78464,17.49588 13.31532,-0.84089 9.94343,-1.79099 1.81693,8.16828 5.06011,26.14554 1.46898,11.34932 -5.63004,7.02789 -1.67746,-1.02113 -4.04349,2.13965 -5.91712,3.26772 -7.73237,9.96736 -1.86039,-0.39436 -0.96393,-8.95661 0.24599,-2.34945 -2.31725,-5.55253 -5.17608,-6.07701 -5.51574,-5.19069 -4.59331,-2.61599 2.68475,-3.60362 3.30888,-0.44902 6.617,1.16366 5.42101,-2.59317 0.47772,-1.55712 3.36082,-12.73493 1.97984,-14.72936 z m -121.4634,40.62677 c 0.11906,5.3486 -2.17403,-4.08655 -0.20371,0.008 0.58964,1.22537 3.45241,11.62522 4.50115,13.99743 1.46559,3.31512 6.50591,0.32071 10.01994,-0.21957 -2.03085,3.0999 -5.56841,6.52354 -6.25802,9.46068 -0.24755,1.05439 -2.87596,-2.47122 -1.66437,1.52947 6.03716,19.93482 3.7551,14.21473 -5.27559,4.6962 -9.27215,8.55805 -10.20083,9.54932 -6.66121,-2.75282 0.61939,-2.15274 -0.72783,-2.512 -0.69916,-5.38076 -11.35307,-7.21196 -2.26046,-3.26451 2.68463,-7.0073 1.21247,-0.91768 3.17517,-12.37876 3.07213,-13.75606 0.89031,-2.76705 -0.40609,2.19163 0.48421,-0.57541 z m 44.67027,0 c 1.48855,8.07626 1.62332,11.84556 4.33517,14.09331 2.12921,1.76481 7.00566,0.15033 9.98215,-0.30731 -2.99853,4.52128 -8.07283,6.15284 -7.31059,10.00597 3.54181,17.90377 3.11273,15.59713 -6.43408,5.53461 -10.68194,12.25886 -11.07576,13.834 -5.939,-5.36398 -4.97819,-3.11707 -9.15623,-6.66471 -9.21174,-7.72362 -0.0768,-1.46482 4.75355,-0.79824 9.41273,-1.0938 1.66555,-0.10565 0.5033,1.84439 1.83837,-0.43026 0.89031,-2.76705 2.43668,-11.94788 3.32699,-14.71492 z m 51.54254,0 c 0.23864,3.31162 0.84336,5.93084 1.7369,7.96742 0.89364,2.03682 1.20148,5.24009 2.59562,6.22124 3.12126,0.11466 6.77743,-0.31942 9.98484,-0.40266 2.43608,-0.0633 -3.97255,5.25563 -5.22827,6.94681 -1.47544,1.98709 -2.4443,1.04246 -2.63767,3.52445 2.4768,5.17566 4.76301,15.66473 2.70201,15.06799 -1.86206,-3.63245 -5.75753,-10.97378 -8.18498,-8.96043 -12.72561,10.5547 -10.07334,11.0264 -9.72406,8.02732 0.14796,-1.27042 0.90739,-3.21048 1.71197,-5.85097 0.60767,-1.99422 4.7511,-7.64885 1.55428,-9.09402 -2.88927,-1.30614 -8.33359,-5.6865 -8.69495,-7.16837 -0.45648,-1.87195 9.42189,1.11195 10.45123,-1.48367 2.03592,-2.80467 1.93875,-11.03366 3.73308,-14.79511 z m 56.12406,0 c 0.77862,4.72636 1.71842,10.68359 2.93217,14.47564 0.52844,1.65094 6.24999,-0.34696 7.76022,-0.52624 4.69338,-0.55717 -4.00008,5.48518 -4.80749,7.50496 -1.87858,4.6994 0.56393,3.41406 2.15248,13.00027 -0.70748,-1.83351 -2.96324,-2.6314 -3.74185,-3.62735 -3.27022,-4.18318 -2.88063,-3.01875 -4.14694,-4.31172 -1.23031,-1.25622 -3.28784,3.15475 -4.73404,5.31048 -2.15001,3.20482 -3.47817,4.77682 -3.00659,2.42468 1.08059,-9.21754 2.24285,-8.89905 1.71094,-10.41743 -1.21311,-3.46295 -5.56427,-6.5009 -6.21304,-7.79721 -0.49794,-0.99492 1.4996,-0.66439 6.86258,-0.52985 3.9852,-0.0709 3.06944,-11.88343 5.23156,-15.50623 z m -125.99291,38.29446 c 0.28573,3.16339 2.33163,10.13834 3.57773,11.88756 3.04994,4.28137 13.07002,0.14722 10.35733,3.43943 -0.47533,0.57688 -2.8858,2.11404 -8.20804,6.11792 0.40851,1.20275 0.76796,2.30652 1.07828,3.31404 1.4654,4.75769 3.58455,13.19963 2.30331,12.92991 -1.13906,-0.23979 -4.74763,-5.82822 -9.10861,-10.11685 -8.7681,11.54325 -9.14979,13.3315 -6.35289,-2.88729 0.23532,-1.36458 -3.01368,-2.69921 -3.39843,-4.16708 -6.03778,-5.54491 -6.21498,-5.06432 -3.93159,-4.81433 1.34838,0.14762 4.05045,0.31649 7.99146,-0.66158 2.20853,-0.54812 3.10509,-2.39485 3.46524,-6.11021 0.74207,-2.97717 1.48415,-5.95434 2.22621,-8.93152 z m 44.67026,0 c 4.33564,14.96327 0.9233,13.61454 3.90478,13.64059 15.38433,0.13445 12.09654,0.075 1.82213,7.80432 1.4539,6.5341 4.41222,14.95756 3.7229,16.08487 -0.78328,1.28098 -4.87428,-5.45802 -9.44981,-9.95777 -9.22693,11.95272 -10.46994,18.74949 -6.24183,-1.32193 0.34394,-1.63275 1.82242,-2.9502 0.80364,-4.46544 -1.62447,-2.41608 -6.56253,-4.88535 -9.64453,-6.54095 9.27828,0.40519 7.0905,0.14494 11.49114,-0.71325 2.39909,-0.46786 1.34509,-18.05737 3.59158,-14.53044 z m 51.54254,0 c 0.49933,4.57788 1.07197,13.42587 3.59355,13.78152 1.46481,0.2066 7.14994,-0.34534 8.22448,-0.32674 5.85723,0.10136 2.94981,1.19615 -6.09107,7.99013 1.0613,3.08322 -0.31161,-0.25397 2.38245,9.66703 1.70285,6.27082 0.0517,4.55273 -5.59419,0.31606 -5.93207,-4.45143 -1.04739,-1.58244 -2.64974,-1.62899 -4.16873,4.876 -7.76695,8.53654 -8.09204,6.62599 -0.30036,-1.76518 4.94135,-9.64545 2.76785,-12.56816 -6.00075,-8.06924 -7.90619,-6.81427 -11.3077,-13.91041 -1.28623,-1.35808 3.70207,6.00603 3.44922,5.34924 -0.71188,-1.84912 4.83114,0.3328 7.9309,0.24628 2.19315,-0.0612 2.89973,-1.3463 3.13726,-3.70465 0.57493,-5.70794 -0.5145,-0.1783 0.28279,-3.80981 2.22259,-9.62412 1.49307,-6.12909 1.96624,-8.02749 z m 55.55141,0 c -0.11469,4.88085 2.04921,9.72028 3.3153,13.59251 0.72475,2.21661 2.08434,0.98113 5.51058,0.75977 1.83144,-0.11832 5.29054,-0.35738 5.16354,0.30834 -3.33319,2.22816 -8.42637,5.05098 -8.02654,8.60685 1.33411,11.86451 4.75143,14.73818 -6.45913,4.34987 -4.649,4.99174 -5.42119,8.86414 -6.18702,7.87109 -0.51986,-0.67408 0.0317,-3.31143 0.60033,-6.31992 0.31622,-1.67298 2.54604,-4.62688 2.16542,-6.25561 -0.3427,-1.46651 -3.6323,-3.24141 -5.10895,-4.25023 -3.20723,-2.86448 -4.1592,-3.53113 -3.03467,-3.47771 1.44026,0.0685 5.13203,0.68255 7.89913,-0.43181 2.13156,-0.85842 2.34682,-3.69119 2.53437,-7.36797 0.61545,-2.07301 1.01218,-5.31217 1.62764,-7.38518 z m -264.0124,59.73937 c -3.71658,0.54802 -21.08659,0.1229 -24.28189,0.83554 -1.56929,0.34999 -0.55549,16.51577 -1.08335,24.94779 0.0629,2.9695 -0.26272,6.09117 0.80354,6.11512 7.28451,0.16366 4.5691,0.61808 13.20819,0.25496 7.45991,-0.31355 11.05617,1.33594 11.13275,0.34821 0.35097,-4.52648 -0.592,-6.38421 0.23552,-16.04122 l -0.086,-13.13724 z m 8.59041,-0.76589 v 32.16736 h 23.4805 v -32.16736 z m 99.0763,13.78601 c 6.37443,10.07358 10.90149,24.30644 19.18293,30.97899 70.91239,0.96752 141.84012,0.15432 212.7585,0.42248 -5.78638,-9.02906 -8.43858,-16.55104 -17.39848,-30.98401 -71.50333,-0.9632 -143.03245,-0.14732 -214.54295,-0.41746 z m -131.71993,61.27115 h 24.05322 c -0.14007,-10.31648 0.57479,-20.08811 0.72324,-31.23087 -7.49612,-1.43446 -16.32944,-0.89894 -23.85835,-0.14932 -1.55596,10.33894 -0.70367,20.90728 -0.91827,31.38019 m 32.64362,-32.16736 v 32.16736 h 24.05316 c -0.19086,-10.72246 -0.38179,-21.4449 -0.57266,-32.16736 z m 131.14716,28.33792 c 6.01415,10.20362 10.16476,24.44183 18.037,31.44285 114.95533,1.65379 141.84234,0.26851 212.7592,0.7245 -6.25012,-10.17051 -12.0641,-21.71035 -18.61652,-31.74825 -70.71663,-0.96235 -141.45632,-0.15121 -212.17973,-0.4191"
     id="path1"
     sodipodi:nodetypes="ccscccsccccccccccccccccscsccscccscssscscsscccscsscccccscscscsccssscsscscscsscscsccsscccscssccssssscccssscssscsscccsscsscscsscccscscsscsccsscsscsscssscccsscscssscsscccscssscccccccccccccccccccccccccccc"
     inkscape:highlight-color="#151e87"
     inkscape:label="brand_logo_updated"
     transform="matrix(0.87958902,0,0,0.84194146,2.5907827,80.668327)" />
  <g
     id="g1"
     transform="translate(-3.6098667,-46.92832)"
     style="display:none;fill:#aa4400;filter:url(#filter5)" />
  <g
     inkscape:groupmode="layer"
     id="layer1"
     inkscape:label="Layer 1">
    <g
       id="g10"
       transform="matrix(0.87958902,0,0,0.84194146,2.5907827,80.668327)"
       style="stroke-width:1.16203" />
    <text
       xml:space="preserve"
       id="text1"
       style="text-align:start;writing-mode:lr-tb;direction:ltr;text-anchor:start;white-space:pre;shape-inside:url(#rect1);fill:url(#linearGradient11);fill-opacity:0.31874999;stroke:#2e0699;stroke-width:0.364;stroke-linejoin:bevel;stroke-dasharray:2.912, 2.912;stroke-opacity:0.27656204"><tspan
         sodipodi:role="line"
         id="tspan1"
         style="font-style:normal;font-variant:normal;font-weight:normal;font-stretch:normal;font-size:96px;font-family:Sans;-inkscape-font-specification:'Sans, Normal';font-variant-ligatures:normal;font-variant-caps:normal;font-variant-numeric:normal;font-variant-east-asian:normal;fill:url(#linearGradient11);fill-opacity:0.31874999;stroke:#2e0699;stroke-opacity:0.27656204">Properties 4 Creation
</tspan></text>
  </g>
</svg>
