<?xml version="1.0" encoding="UTF-8" standalone="no"?>
<!-- Created with Inkscape (http://www.inkscape.org/) -->

<svg
   version="1.1"
   id="svg1"
   width="1000"
   height="100"
   viewBox="0 0 1000 100"
   sodipodi:docname="brand-logo-header.svg"
   inkscape:version="1.4.2 (f4327f4, 2025-05-13)"
   xmlns:inkscape="http://www.inkscape.org/namespaces/inkscape"
   xmlns:sodipodi="http://sodipodi.sourceforge.net/DTD/sodipodi-0.dtd"
   xmlns:xlink="http://www.w3.org/1999/xlink"
   xmlns="http://www.w3.org/2000/svg"
   xmlns:svg="http://www.w3.org/2000/svg">
  <sodipodi:namedview
     id="namedview1"
     pagecolor="#ffffff"
     bordercolor="#000000"
     borderopacity="0.25"
     inkscape:showpageshadow="true"
     inkscape:pageopacity="0.0"
     inkscape:pagecheckerboard="true"
     inkscape:deskcolor="#d1d1d1"
     inkscape:zoom="0.74246212"
     inkscape:cx="309.78011"
     inkscape:cy="-181.15402"
     inkscape:window-width="1920"
     inkscape:window-height="1111"
     inkscape:window-x="-9"
     inkscape:window-y="-9"
     inkscape:window-maximized="1"
     inkscape:current-layer="g12"
     showgrid="false"
     borderlayer="true" />
  <defs
     id="defs1">
    <pattern
       inkscape:collect="always"
       xlink:href="#Bamboo"
       preserveAspectRatio="xMidYMid"
       id="pattern8"
       patternTransform="translate(516.34855,44.379787)" />
    <pattern
       patternUnits="userSpaceOnUse"
       preserveAspectRatio="xMidYMid"
       width="120.7296"
       height="193.4609"
       patternTransform="translate(516.34855,44.379787)"
       style="fill:#000000"
       id="Bamboo"
       inkscape:collect="always"
       inkscape:isstock="true"
       inkscape:label="">
      <path
         id="path48322"
         style="fill-opacity:1;stroke:none;stroke-width:1.63434;stroke-linecap:square;stroke-dasharray:none;stroke-opacity:1;paint-order:markers fill stroke"
         d="m 14.841449,0 c 0.0189,2.0204523 0.06501,6.5526917 0.06501,10.64533 0,5.120648 -0.894085,15.037044 -0.894085,15.037044 l 6.096075,2.275899 c 0,0 -0.812787,-12.923762 -0.812787,-16.581426 0,-3.0531292 0.196913,-9.121909 0.271748,-11.376847 z m 31.648985,0 c -0.01512,0.2103685 -0.07219,0.9835011 -0.291024,3.5331817 -0.243779,2.8448429 -0.975382,4.8362495 -0.975382,4.8362495 h 9.469323 c 0,0 0,-0.6908674 -0.731566,-3.210618 C 53.362617,3.0946658 53.362843,0.79725732 53.382686,0 Z M 68.982535,0 68.65485,10.345595 74.91987,7.3572246 74.329281,0 Z m 31.501645,0 c 0.1285,1.0540838 0.95021,8.1364687 0.47119,14.31061 -0.5173,6.667023 -1.493591,14.42617 -1.493591,14.42617 h 9.253381 c 0,0 -1.61034,-11.32224 -1.61034,-17.644403 0,-5.620411 0.47701,-10.11551275 0.58801,-11.092377 z m -9.342313,0.85724976 c 0,0 -0.362079,6.13150114 0.440731,9.46930024 1.210356,5.033106 2.138003,7.839341 2.557833,2.974386 C 94.559165,8.4359811 91.141867,0.85724976 91.141867,0.85724976 Z M 22.269808,7.221343 c 0,0 -1.481953,4.182981 -0.94235,6.877172 0.539566,2.694119 0.895597,1.144528 1.275099,-1.637061 C 22.854274,10.61675 22.269959,7.221343 22.269959,7.221343 Z M 74.747184,9.6559824 68.76918,12.011853 c 0,0 0.919522,6.724679 0.919522,16.667788 0,9.943056 -1.149392,19.254799 -1.149392,19.254799 0,0 1.207785,12.528868 0.748044,21.092528 -0.459818,8.563727 -1.149355,16.610621 -1.149355,16.610621 h 6.723478 c 0,0 -1.033701,-13.105089 -1.090923,-18.335296 -0.05745,-5.230188 0.97663,-20.5185 0.97663,-20.5185 0,0 -0.747553,-14.137712 -0.862337,-18.678209 -0.114898,-4.540498 0.862337,-18.4496016 0.862337,-18.4496016 z m -29.522967,0.01474 c 0,0 1.300497,5.9335376 1.300497,17.4755146 0,11.541903 -1.2192,20.808031 -1.2192,20.808031 0,0 1.625613,13.411456 1.300498,19.426269 -0.325039,6.014832 -1.381795,17.881908 -1.381795,17.881908 l 8.45331,-2.113304 c 0,0 -0.650268,-11.379407 -0.812825,-19.182419 -0.16252,-7.803018 1.300497,-16.987822 1.300497,-16.987822 0,0 -1.056642,-11.216855 -1.056642,-21.295748 0,-10.078866 1.341127,-16.0124296 1.341127,-16.0124296 z m 32.355118,0.034394 c 0,0 7.213115,6.4563246 12.135042,8.7542736 7.421896,3.465105 11.811323,5.089236 6.220574,-0.194381 C 90.343102,12.982723 77.579335,9.7050595 77.579335,9.7050595 Z M 34.049288,10.206769 c 0,0 -6.279232,0.98033 -9.306709,3.493837 -3.027417,2.513382 -0.831874,1.906367 2.931212,0.491501 2.495623,-0.938302 6.375497,-3.985338 6.375497,-3.985338 z m -10.726602,6.437749 c -2.081892,0.02835 0.03779,1.228206 3.498898,2.89186 2.721713,1.307562 8.252636,2.096787 8.252636,2.096787 0,0 -5.717858,-4.369814 -10.14497,-4.87943 -0.691692,-0.07963 -1.221014,-0.11452 -1.606564,-0.109115 z m 42.91663,5.024209 c 0,0 -4.038312,4.628723 -5.445884,7.759835 -2.122431,4.721476 -3.105713,7.507706 0.203339,3.916747 3.308069,-3.591575 5.242658,-11.676582 5.242658,-11.676582 z m -7.029619,3.517969 c 0,0 -3.104542,6.220959 -3.754167,10.052228 -0.979464,5.777205 -1.262929,9.109867 1.338633,4.232969 2.600315,-4.877363 2.416819,-14.285197 2.416819,-14.285197 z m -45.36011,2.040926 c 0,0 1.056567,10.404038 1.137941,19.50754 0.08126,9.103529 -1.219238,18.369607 -1.219238,18.369607 h 6.827641 c 0,0 -1.2192,-9.997621 -1.2192,-13.655281 0.01134,-7.276195 -0.253607,-14.602946 0.894085,-21.783417 z m 98.594413,1.45163 c 0,0 -1.88515,5.070266 -2.14129,8.116709 -0.38615,4.593781 -0.40709,7.226578 1.19131,3.24237 1.59753,-3.984526 0.94998,-11.359079 0.94998,-11.359079 z m -12.982221,1.496092 c 0,0 1.550701,12.127041 1.550701,18.966516 0,6.839474 -1.379224,16.322316 -1.379224,16.322316 l 8.966364,2.298756 c 0,0 -1.66711,-11.953634 -1.4948,-19.36785 0.17234,-7.414243 1.32207,-18.219738 1.32207,-18.219738 z m 18.264191,4.724473 c 0,0 -4.72626,5.466562 -6.46186,9.15433 -2.61695,5.560834 -3.86464,8.840855 -0.003,4.59874 3.86094,-4.242852 6.46568,-13.75307 6.46568,-13.75307 z m -50.910087,0.10938 c 0,0 -4.041411,1.203092 -6.007219,2.503207 -2.964208,1.960487 -4.558488,3.216121 -1.320794,2.347 3.23743,-0.869809 7.328013,-4.850207 7.328013,-4.850207 z m -7.269581,14.022304 v 0.0013 c 0,0 2.476686,4.791768 4.54919,6.935596 3.12514,3.232659 5.050167,4.917644 3.181418,1.054106 -1.869506,-3.863142 -7.730608,-7.991002 -7.730608,-7.991002 z m -3.283049,3.159817 c 0,0 2.265449,1.957883 3.798652,2.659416 2.312088,1.057746 3.676649,1.555124 1.918979,-0.04694 -1.757896,-1.601767 -5.717631,-2.612424 -5.717631,-2.612424 z m -25.894507,3.357929 c 0,0 -4.501833,8.545225 -4.184693,14.517644 0.317102,5.972242 1.568806,2.745505 3.25886,-3.126811 1.120819,-3.894383 0.925833,-11.390833 0.925833,-11.390833 z m 31.749335,0.773443 c -0.08428,7.18e-4 -0.173858,0.0016 -0.266834,0.0049 -2.977739,0.07176 -7.268334,2.590847 -7.268334,2.590847 0,0 3.739956,-0.188992 5.689701,-0.882663 2.848176,-1.013458 4.454966,-1.732713 1.845354,-1.711994 z M 14.093405,66.730543 c 0,0 1.381682,9.753843 1.219238,18.532153 -0.16252,8.778407 -1.219238,21.702144 -1.219238,21.702144 l 6.339968,-2.76357 c 0,0 -0.812825,-13.167638 -0.812825,-20.808034 0,-7.640467 0.812825,-16.662693 0.812825,-16.662693 z m 85.655429,0.401328 c 0,0 1.206576,11.034403 1.436406,19.080803 0.2298,8.046472 -1.551984,18.966516 -1.551984,18.966516 h 9.368954 c 0,0 -1.265,-16.552249 -1.49484,-22.184753 -0.23017,-5.632498 1.32216,-13.506692 1.32216,-13.506692 z M 42.84421,69.557589 c -0.01134,0.0026 -13.182803,3.262721 -19.154494,9.175932 -5.974579,5.915871 -1.416129,4.214071 6.329801,0.499127 5.134451,-2.462509 12.817248,-9.668076 12.824693,-9.675059 z m 40.768952,5.185508 v 0.0013 c 0,0 5.131237,7.552066 8.99176,10.818032 5.821418,4.924647 9.336118,7.456122 5.406501,1.351307 C 94.080563,80.810106 83.613162,74.743097 83.613162,74.743097 Z M 53.8261,84.776275 45.08959,87.650341 c 0,0 1.610079,10.517317 1.667527,17.011959 0.05745,6.49454 -1.609096,20.92108 -1.609096,20.92108 h 8.90795 c 0,0 -1.608529,-9.25352 -1.493556,-19.82888 C 52.677313,95.179258 53.8261,84.776275 53.8261,84.776275 Z m 14.483339,2.298763 c 0,0 0.804472,9.885181 0.919483,18.563902 0.114898,8.67866 -0.919483,17.12752 -0.919483,17.12752 l 6.26502,2.24159 c 0,0 -0.804132,-13.50623 -0.976668,-20.8055 -0.172346,-7.299352 1.092246,-17.127512 1.092246,-17.127512 z M 93.77461,89.58586 c -5.04582,-0.05013 -12.560239,4.379249 -12.57067,4.385394 0,0 6.349795,-0.120666 9.72204,-1.295425 5.084977,-1.771467 7.89823,-3.038358 2.84863,-3.089969 z m -57.166204,7.221342 c 0,0 -0.301607,6.752698 0.582916,10.289708 1.335269,5.33358 2.34463,8.27184 2.724208,2.89567 0.378709,-5.37644 -3.307124,-13.185378 -3.307124,-13.185378 z m 39.711061,7.879238 c 0,0 -0.86143,3.09697 -0.720113,4.86163 0.213543,2.66104 0.487408,4.16409 1.252271,1.71709 0.76422,-2.44721 -0.530911,-6.57872 -0.530911,-6.57872 z m -55.886094,1.30304 -6.339968,2.76357 c 0,0 0.812825,13.16764 0.812825,20.80803 0,7.64047 -0.975383,15.76861 -0.975383,15.76861 0,0 0.983811,11.07298 1.052863,17.23292 0.06917,6.16003 -0.759458,19.73615 -0.759458,19.73615 h 6.772989 c 0,0 -1.528214,-10.64523 -1.653543,-17.13641 -0.125481,-6.49115 1.252233,-21.70215 1.252233,-21.70215 0,0 -1.54424,-6.99027 -1.381796,-15.76857 0.16252,-8.77841 1.219238,-21.70215 1.219238,-21.70215 z m 79.372645,0.68452 c 0,0 1.609812,8.73558 1.494802,17.70158 -0.1149,8.966 -1.609132,20.46132 -1.609132,20.46132 0,0 1.034342,6.38005 1.149352,17.76002 0.1149,11.37994 -1.494801,19.82886 -1.494801,19.82886 l 8.966361,-1.95457 c 0,0 -0.34469,-9.19527 -1.14939,-17.93146 -0.80459,-8.73611 1.32212,-18.62232 1.32212,-18.62232 0,0 -1.03526,-9.88528 -1.20783,-18.7938 -0.17234,-8.90858 1.60914,-18.44963 1.60914,-18.44963 z m -75.526998,0.12584 c 0,0 6.84446,6.54676 11.451779,8.81016 6.947263,3.41293 11.042722,4.98717 5.730331,-0.37848 -5.313487,-5.36489 -17.18211,-8.43168 -17.18211,-8.43168 z m 64.81559,0.01 c 0,0 -4.904126,1.12697 -7.368642,2.47273 -3.716334,2.02957 -5.736907,3.34594 -1.818709,2.54892 3.918047,-0.79778 9.187351,-5.02165 9.187351,-5.02165 z m -11.450494,6.78826 c -1.156687,-0.003 -1.090356,0.51851 0.994431,1.95456 3.706734,2.55202 11.338734,2.57052 11.338734,2.57052 0,0 -4.747011,-3.05423 -7.787792,-3.7453 -2.006098,-0.4558 -3.645732,-0.77713 -4.545373,-0.77978 z m 42.952134,5.02929 c 0,0 -3.75575,4.56556 -5.11691,7.69887 -2.05243,4.72476 -3.02438,7.52117 0.0469,3.98534 3.07041,-3.53661 5.06989,-11.68421 5.06989,-11.68421 z m -6.96483,2.98582 c 0,0 -3.27504,6.31912 -3.96624,10.29354 -1.04213,5.99304 -1.34767,9.46935 1.39574,4.52634 2.7419,-4.94355 2.5705,-14.81988 2.5705,-14.81988 z m -45.436312,2.76229 c 0,0 1.034457,12.01281 1.379263,17.70285 0.345071,5.68996 -1.264932,20.11588 -1.264932,20.11588 h 6.437745 c 0,0 -0.919408,-17.52939 -0.97663,-21.725 -0.05745,-4.19562 0.861014,-14.02358 0.861014,-14.02358 z m -10.246526,1.22686 c 0,0 -1.802457,4.94769 -1.959647,7.88429 -0.236977,4.42801 -0.161008,6.95714 1.377978,3.06455 1.53789,-3.89288 0.581669,-10.94884 0.581669,-10.94884 z m -12.973285,1.36018 c 0,0 1.551345,7.24206 1.666243,15.97815 0.114897,8.73611 -1.206501,19.88601 -1.206501,19.88601 l 8.907949,1.78185 c 0,0 -1.838702,-13.39239 -1.436409,-22.64576 0.402331,-9.2534 0.919521,-15.00025 0.919521,-15.00025 z m 75.754303,5.25031 c 0,0 -3.81427,1.21275 -5.73033,2.46384 -2.88923,1.88659 -4.4592,3.08724 -1.41226,2.20347 3.04664,-0.88448 7.14259,-4.66731 7.14259,-4.66731 z m -57.939708,0.0954 c 0,0 -4.64897,5.24692 -6.278967,8.8076 -2.457826,5.36912 -3.600529,8.54005 0.208252,4.47048 3.807685,-4.07037 6.071963,-13.27808 6.071963,-13.27808 z M 5.0305512,145.98621 c 0,0 2.8450394,6.5235 6.6383998,9.10987 3.793172,2.58632 2.484699,0.37862 -0.201827,-3.30462 -1.7817067,-2.4426 -6.4364594,-5.80525 -6.4364594,-5.80525 z m -3.8634331,3.12045 c 0,0 2.9317417,2.7807 5.4877606,3.29314 2.5559811,0.51251 1.3833071,-0.35176 -0.8369385,-1.68278 -1.4708032,-0.88175 -4.6439811,-1.60882 -4.6508221,-1.61036 z m 83.3947809,3.28171 c 0,0 -3.122079,6.57319 -3.535748,10.58947 -0.623471,6.05644 -0.646111,9.543 2.001562,4.38665 2.646312,-5.15695 1.534186,-14.97612 1.534186,-14.97612 z m -76.2661384,0.73532 c -0.5984882,0.0174 -1.6220976,0.19933 -2.8613669,0.45344 C 3.4114016,153.99196 0,155.93809 0,155.93809 c 0,0 4.8600567,0.0872 7.543937,-1.54306 1.5934488,-0.96799 1.6265197,-1.29574 0.7518236,-1.27134 z M 68.53931,163.57347 c 0,0 0.568743,6.78288 0.977915,13.44953 0.403842,6.58024 -0.512202,15.17897 -0.53469,16.43699 h 5.346784 c -0.165543,-1.72642 -0.161386,-7.6927 -0.271748,-15.57463 -0.111118,-7.9315 0.689613,-14.31189 0.689613,-14.31189 z m -23.104271,0.8052 c 0,0 0.977575,6.78236 1.26497,12.35733 0.295937,5.45542 -0.01134,13.94498 -0.209764,16.72399 h 6.892441 c -0.441638,-5.58443 -0.470891,-9.97521 -0.533405,-13.62134 -0.114897,-4.36804 1.379225,-13.39111 1.379225,-13.39111 z m 50.53423,2.69117 c 0,0 -9.553474,3.66636 -13.803893,6.52283 -6.409059,4.30769 -9.742186,6.92697 -2.035843,4.13268 7.70366,-2.79464 15.835956,-10.65185 15.839736,-10.65551 z m -67.208334,3.86592 c 0,0 5.15709,7.94298 9.121285,11.20417 5.977512,4.91751 9.602135,7.39115 5.664302,0.9487 -3.939099,-6.44197 -14.785587,-12.15287 -14.785587,-12.15287 z m 79.579555,11.46071 -8.878711,2.06886 1.022401,8.99557 h 7.20865 z m -94.247085,1.54179 c 0.528226,5.12073 0.748044,9.52173 0.748044,9.52173 h 4.725845 c 0,0 -0.04838,-2.25723 0.784668,-4.7261 0.80829,-2.3952 0.609638,-4.79563 0.609638,-4.79563 z m 24.723568,2.79789 c -5.478463,0.0147 -13.064731,4.56571 -13.064731,4.56571 0,0 6.864983,-0.203 10.369738,-1.42622 5.284725,-1.84437 8.173229,-3.15328 2.694993,-3.13949 z"
         sodipodi:nodetypes="csccscccsccsccccccccsccscccscccsscccscsccscsccscsccscscccscccsscsscsscscccsccccsccccccscccsccscccsccccscsccscccscccsscccccscsccssccsccscccsscccscccccccsccsccsccccsccccccccccscscsccscsccscsccscscccscccsccsscsscscccscccsccscscscccsccscscscccsccccssccsccccccsscsscsccscccsccscccccccsccccccccccsccccscsccccsc" />
    </pattern>
    <rect
       x="549.6521"
       y="277.37863"
       width="452.65469"
       height="260.36154"
       id="rect1" />
    <filter
       inkscape:menu-tooltip="3D warped, fibered wood texture"
       inkscape:menu="Materials"
       inkscape:label="3D Wood"
       height="1.5"
       y="-0.25"
       width="1.5"
       x="-0.25"
       style="color-interpolation-filters:sRGB"
       id="filter5">
      <feGaussianBlur
         result="result8"
         stdDeviation="4"
         id="feGaussianBlur1" />
      <feTurbulence
         baseFrequency="0.025 0.2"
         numOctaves="3"
         type="fractalNoise"
         result="result7"
         seed="22"
         id="feTurbulence1" />
      <feComposite
         in2="result8"
         operator="in"
         in="SourceGraphic"
         result="result6"
         id="feComposite1" />
      <feDisplacementMap
         in2="result6"
         result="result4"
         scale="50"
         yChannelSelector="A"
         xChannelSelector="A"
         in="result7"
         id="feDisplacementMap1" />
      <feFlood
         flood-color="rgb(230,211,138)"
         flood-opacity="1"
         id="feFlood1" />
      <feComposite
         in2="result4"
         operator="atop"
         result="result2"
         id="feComposite2" />
      <feComposite
         in2="SourceGraphic"
         operator="atop"
         in="result2"
         result="result9"
         id="feComposite3" />
      <feGaussianBlur
         result="result0"
         in="result9"
         stdDeviation="8"
         id="feGaussianBlur3" />
      <feSpecularLighting
         specularExponent="15"
         specularConstant="0.69999999"
         surfaceScale="5"
         lighting-color="#ffffff"
         result="result1"
         in="result0"
         id="feSpecularLighting3">
        <feDistantLight
           azimuth="235"
           elevation="50"
           id="feDistantLight3" />
      </feSpecularLighting>
      <feComposite
         operator="in"
         result="result2"
         in="result1"
         in2="result9"
         id="feComposite4" />
      <feComposite
         k3="0.5"
         k2="0.5"
         operator="arithmetic"
         result="result4"
         in="result9"
         in2="result2"
         id="feComposite5"
         k1="0"
         k4="0" />
      <feConvolveMatrix
         order="3 3"
         kernelMatrix="2 0 0 0 2 0 0 0 -2 "
         targetX="2"
         targetY="2"
         result="result10"
         id="feConvolveMatrix5" />
      <feBlend
         mode="multiply"
         in="result10"
         in2="result10"
         id="feBlend5" />
    </filter>
    <filter
       inkscape:menu-tooltip="3D warped, fibered wood texture"
       inkscape:menu="Materials"
       inkscape:label="3D Wood"
       height="1.2797525"
       y="-0.13987697"
       width="1.1438001"
       x="-0.071882099"
       style="color-interpolation-filters:sRGB"
       id="filter10">
      <feGaussianBlur
         result="result8"
         stdDeviation="6.8549998"
         id="feGaussianBlur5" />
      <feTurbulence
         baseFrequency="0.025 0.2"
         numOctaves="3"
         type="fractalNoise"
         result="result7"
         seed="22"
         id="feTurbulence5" />
      <feComposite
         in2="result8"
         operator="in"
         in="SourceGraphic"
         result="result6"
         id="feComposite6" />
      <feDisplacementMap
         in2="result6"
         result="result4"
         scale="50"
         yChannelSelector="A"
         xChannelSelector="A"
         in="result7"
         id="feDisplacementMap6" />
      <feFlood
         flood-color="rgb(230,211,138)"
         flood-opacity="1"
         id="feFlood6" />
      <feComposite
         in2="result4"
         operator="atop"
         result="result2"
         id="feComposite7" />
      <feComposite
         in2="SourceGraphic"
         operator="atop"
         in="result2"
         result="result9"
         id="feComposite8" />
      <feGaussianBlur
         result="result0"
         in="result9"
         stdDeviation="8"
         id="feGaussianBlur8" />
      <feSpecularLighting
         specularExponent="15"
         specularConstant="0.69999999"
         surfaceScale="5"
         lighting-color="#ffffff"
         result="result1"
         in="result0"
         id="feSpecularLighting8">
        <feDistantLight
           azimuth="235"
           elevation="50"
           id="feDistantLight8" />
      </feSpecularLighting>
      <feComposite
         operator="in"
         result="result2"
         in="result1"
         in2="result9"
         id="feComposite9" />
      <feComposite
         k3="0.5"
         k2="0.5"
         operator="arithmetic"
         result="result4"
         in="result9"
         in2="result2"
         id="feComposite10"
         k1="0"
         k4="0" />
      <feConvolveMatrix
         order="3 3"
         kernelMatrix="2 0 0 0 2 0 0 0 -2 "
         targetX="2"
         targetY="2"
         result="result10"
         id="feConvolveMatrix10" />
      <feBlend
         mode="multiply"
         in="result10"
         in2="result10"
         id="feBlend10" />
    </filter>
    <filter
       inkscape:menu-tooltip="3D warped, fibered wood texture"
       inkscape:menu="Materials"
       inkscape:label="3D Wood"
       height="1.2216995"
       y="-0.11083374"
       width="1.1306261"
       x="-0.065311944"
       style="color-interpolation-filters:sRGB"
       id="filter15">
      <feGaussianBlur
         result="result8"
         stdDeviation="5.71 4"
         id="feGaussianBlur10" />
      <feTurbulence
         baseFrequency="0.025 0.2"
         numOctaves="3"
         type="fractalNoise"
         result="result7"
         seed="22"
         id="feTurbulence10" />
      <feComposite
         in2="result8"
         operator="in"
         in="SourceGraphic"
         result="result6"
         id="feComposite11" />
      <feDisplacementMap
         in2="result6"
         result="result4"
         scale="50"
         yChannelSelector="A"
         xChannelSelector="A"
         in="result7"
         id="feDisplacementMap11" />
      <feFlood
         flood-color="rgb(230,211,138)"
         flood-opacity="1"
         id="feFlood11" />
      <feComposite
         in2="result4"
         operator="atop"
         result="result2"
         id="feComposite12" />
      <feComposite
         in2="SourceGraphic"
         operator="atop"
         in="result2"
         result="result9"
         id="feComposite13" />
      <feGaussianBlur
         result="result0"
         in="result9"
         stdDeviation="8"
         id="feGaussianBlur13" />
      <feSpecularLighting
         specularExponent="15"
         specularConstant="0.69999999"
         surfaceScale="5"
         lighting-color="#ffffff"
         result="result1"
         in="result0"
         id="feSpecularLighting13">
        <feDistantLight
           azimuth="235"
           elevation="50"
           id="feDistantLight13" />
      </feSpecularLighting>
      <feComposite
         operator="in"
         result="result2"
         in="result1"
         in2="result9"
         id="feComposite14" />
      <feComposite
         k3="0.5"
         k2="0.5"
         operator="arithmetic"
         result="result4"
         in="result9"
         in2="result2"
         id="feComposite15"
         k1="0"
         k4="0" />
      <feConvolveMatrix
         order="3 3"
         kernelMatrix="2 0 0 0 2 0 0 0 -2 "
         targetX="2"
         targetY="2"
         result="result10"
         id="feConvolveMatrix15" />
      <feBlend
         mode="multiply"
         in="result10"
         in2="result10"
         id="feBlend15" />
    </filter>
  </defs>
  <g
     inkscape:groupmode="layer"
     id="layer1"
     inkscape:label="Layer 1">
    <g
       id="g11"
       style="fill:url(#pattern8);fill-opacity:1;stroke:#120f0b;stroke-opacity:1"
       transform="matrix(1.4239566,0,0,2.0435227,-8.9760328,-23.879437)">
      <g
         id="g12"
         transform="matrix(1.4172947,0,0,1.4628631,35.03241,-6.0582077)"
         style="fill:#a86e26;fill-opacity:1;stroke:#0c0906;stroke-width:0.16285082;stroke-dasharray:none;stroke-dashoffset:0;stroke-opacity:0.943838">
        <path
           style="mix-blend-mode:normal;fill:#a86e26;fill-opacity:1;stroke:#0c0906;stroke-width:1.02724;stroke-dasharray:none;stroke-dashoffset:0;stroke-opacity:0.943838;filter:url(#filter10)"
           d="m 184.83852,252.36452 c 20.75611,40.78397 43.87611,79.42695 64.24993,120.63391 1.98702,1.51576 1.1314,5.49779 3.38755,5.58606 23.35475,0.91371 36.13667,-0.47445 53.63361,-0.67643 54.45134,0.8266 108.90568,0.0709 163.35836,0.0622 -19.62694,-39.79453 -37.30731,-62.57697 -64.83017,-122.67086 -1.66285,-4.26029 -1.04332,-3.26233 -2.65884,-3.32962 -7.39002,-0.30784 -11.3292,0.46181 -19.79793,0.39448 -9.38359,3.46583 -130.84518,0.044 -197.34251,0 M 116.11511,337.378 v -46.71904 c -7.9046,0.33709 -15.89262,-0.93075 -23.707662,1.12815 -0.716345,29.74188 0.02277,59.5047 -0.682662,89.24677 -23.230438,43.01517 -46.874569,85.64242 -70.10434,128.66942 8.200119,-0.70331 17.811955,3.15701 25.103649,-1.91992 39.129886,-69.7207 77.599625,-140.12391 116.352005,-210.23144 40.84391,69.52686 78.30935,142.6051 119.1436,212.13009 7.98229,1.4524 16.01744,0.15162 24.03014,0.0212 -26.21578,-51.24588 -55.54691,-99.49814 -82.32256,-150.25139 -19.42661,-34.28665 -41.04159,-69.14781 -60.27183,-103.58661 -14.50345,24.50692 -23.70982,47.11018 -38.33226,66.7449 -2.93904,5.06704 -5.98803,10.02128 -9.20808,14.768 m 99.64895,-81.9501 c 1.12436,5.27857 1.82293,11.74942 3.65145,14.0999 2.75581,3.54246 8.57649,-2.35755 8.83446,1.27409 -3.80703,0.73923 -5.80009,4.35211 -5.72486,8.04715 0.1454,7.14062 5.02508,15.38526 -1.49336,9.37903 -5.1672,-10.58448 -16.77702,14.09077 -12.04736,-4.40914 0.18872,-1.78365 0.74876,-1.96416 -0.68433,-4.91059 -3.1565,-6.48977 -9.14123,-8.13138 3.78441,-8.19821 3.08222,-1.51711 1.84106,-11.52754 3.67959,-15.28223 z m 44.67021,0 c -0.31586,6.64158 1.61671,9.57781 2.68415,14.93149 1.41977,1.20562 0.40727,-1.84547 9.95637,0.23635 -1.90392,0.3697 -6.58931,4.60529 -7.48574,5.95999 -1.20714,1.82424 1.28026,5.87933 2.60589,7.71891 1.97065,2.73468 3.19713,6.47321 2.40956,6.09404 -7.05091,-3.39467 0.17583,0.33793 -6.75803,-5.64512 -1.33436,-2.73331 -2.33556,-3.63748 -4.15217,-2.87604 -5.218,2.18715 -9.54795,15.69395 -6.03971,1.9714 0.20785,-1.9645 1.91374,-5.37658 0.31845,-6.72036 -2.58662,-2.17881 -7.57048,-3.64586 -8.17927,-4.97737 -0.72332,-1.582 2.0214,-2.22517 8.88675,-2.26068 3.13809,-0.84623 2.22342,-7.27117 5.75375,-14.43261 z m 51.54253,0 c 1.03894,7.82971 2.03999,15.67447 3.74028,15.30954 5.0815,-1.09063 9.06748,0.8431 9.69184,-1.07072 -3.1465,4.68906 -6.25923,7.43243 -6.97369,10.56812 -0.60891,2.67246 2.92864,10.71022 3.32938,12.39969 0.99113,4.17847 -2.04879,-0.78545 -5.59964,-3.72761 -4.58009,-12.52243 -15.29442,12.36254 -10.90704,-3.3168 7.15508,-12.07291 -16.69664,-15.02804 2.55632,-15.18271 4.37083,-1.78269 2.04339,-10.95459 4.16255,-14.97951 z m 55.03077,-2.33229 c 1.79733,7.61635 3.66759,17.62958 5.78464,17.49588 13.31532,-0.84089 9.94343,-1.79099 1.81693,8.16828 5.06011,26.14554 1.46898,11.34932 -5.63004,7.02789 -1.67746,-1.02113 -4.04349,2.13965 -5.91712,3.26772 -7.73237,9.96736 -1.86039,-0.39436 -0.96393,-8.95661 0.24599,-2.34945 -2.31725,-5.55253 -5.17608,-6.07701 -5.51574,-5.19069 -4.59331,-2.61599 2.68475,-3.60362 3.30888,-0.44902 6.617,1.16366 5.42101,-2.59317 0.47772,-1.55712 3.36082,-12.73493 1.97984,-14.72936 z m -121.4634,40.62677 c 0.11906,5.3486 -2.17403,-4.08655 -0.20371,0.008 0.58964,1.22537 3.45241,11.62522 4.50115,13.99743 1.46559,3.31512 6.50591,0.32071 10.01994,-0.21957 -2.03085,3.0999 -5.56841,6.52354 -6.25802,9.46068 -0.24755,1.05439 -2.87596,-2.47122 -1.66437,1.52947 6.03716,19.93482 3.7551,14.21473 -5.27559,4.6962 -9.27215,8.55805 -10.20083,9.54932 -6.66121,-2.75282 0.61939,-2.15274 -0.72783,-2.512 -0.69916,-5.38076 -11.35307,-7.21196 -2.26046,-3.26451 2.68463,-7.0073 1.21247,-0.91768 3.17517,-12.37876 3.07213,-13.75606 0.89031,-2.76705 -0.40609,2.19163 0.48421,-0.57541 z m 44.67027,0 c 1.48855,8.07626 1.62332,11.84556 4.33517,14.09331 2.12921,1.76481 7.00566,0.15033 9.98215,-0.30731 -2.99853,4.52128 -8.07283,6.15284 -7.31059,10.00597 3.54181,17.90377 3.11273,15.59713 -6.43408,5.53461 -10.68194,12.25886 -11.07576,13.834 -5.939,-5.36398 -4.97819,-3.11707 -9.15623,-6.66471 -9.21174,-7.72362 -0.0768,-1.46482 4.75355,-0.79824 9.41273,-1.0938 1.66555,-0.10565 0.5033,1.84439 1.83837,-0.43026 0.89031,-2.76705 2.43668,-11.94788 3.32699,-14.71492 z m 51.54254,0 c 0.23864,3.31162 0.84336,5.93084 1.7369,7.96742 0.89364,2.03682 1.20148,5.24009 2.59562,6.22124 3.12126,0.11466 6.77743,-0.31942 9.98484,-0.40266 2.43608,-0.0633 -3.97255,5.25563 -5.22827,6.94681 -1.47544,1.98709 -2.4443,1.04246 -2.63767,3.52445 2.4768,5.17566 4.76301,15.66473 2.70201,15.06799 -1.86206,-3.63245 -5.75753,-10.97378 -8.18498,-8.96043 -12.72561,10.5547 -10.07334,11.0264 -9.72406,8.02732 0.14796,-1.27042 0.90739,-3.21048 1.71197,-5.85097 0.60767,-1.99422 4.7511,-7.64885 1.55428,-9.09402 -2.88927,-1.30614 -8.33359,-5.6865 -8.69495,-7.16837 -0.45648,-1.87195 9.42189,1.11195 10.45123,-1.48367 2.03592,-2.80467 1.93875,-11.03366 3.73308,-14.79511 z m 56.12406,0 c 0.77862,4.72636 1.71842,10.68359 2.93217,14.47564 0.52844,1.65094 6.24999,-0.34696 7.76022,-0.52624 4.69338,-0.55717 -4.00008,5.48518 -4.80749,7.50496 -1.87858,4.6994 0.56393,3.41406 2.15248,13.00027 -0.70748,-1.83351 -2.96324,-2.6314 -3.74185,-3.62735 -3.27022,-4.18318 -2.88063,-3.01875 -4.14694,-4.31172 -1.23031,-1.25622 -3.28784,3.15475 -4.73404,5.31048 -2.15001,3.20482 -3.47817,4.77682 -3.00659,2.42468 1.08059,-9.21754 2.24285,-8.89905 1.71094,-10.41743 -1.21311,-3.46295 -5.56427,-6.5009 -6.21304,-7.79721 -0.49794,-0.99492 1.4996,-0.66439 6.86258,-0.52985 3.9852,-0.0709 3.06944,-11.88343 5.23156,-15.50623 z m -125.99291,38.29446 c 0.28573,3.16339 2.33163,10.13834 3.57773,11.88756 3.04994,4.28137 13.07002,0.14722 10.35733,3.43943 -0.47533,0.57688 -2.8858,2.11404 -8.20804,6.11792 0.40851,1.20275 0.76796,2.30652 1.07828,3.31404 1.4654,4.75769 3.58455,13.19963 2.30331,12.92991 -1.13906,-0.23979 -4.74763,-5.82822 -9.10861,-10.11685 -8.7681,11.54325 -9.14979,13.3315 -6.35289,-2.88729 0.23532,-1.36458 -3.01368,-2.69921 -3.39843,-4.16708 -6.03778,-5.54491 -6.21498,-5.06432 -3.93159,-4.81433 1.34838,0.14762 4.05045,0.31649 7.99146,-0.66158 2.20853,-0.54812 3.10509,-2.39485 3.46524,-6.11021 0.74207,-2.97717 1.48415,-5.95434 2.22621,-8.93152 z m 44.67026,0 c 4.33564,14.96327 0.9233,13.61454 3.90478,13.64059 15.38433,0.13445 12.09654,0.075 1.82213,7.80432 1.4539,6.5341 4.41222,14.95756 3.7229,16.08487 -0.78328,1.28098 -4.87428,-5.45802 -9.44981,-9.95777 -9.22693,11.95272 -10.46994,18.74949 -6.24183,-1.32193 0.34394,-1.63275 1.82242,-2.9502 0.80364,-4.46544 -1.62447,-2.41608 -6.56253,-4.88535 -9.64453,-6.54095 9.27828,0.40519 7.0905,0.14494 11.49114,-0.71325 2.39909,-0.46786 1.34509,-18.05737 3.59158,-14.53044 z m 51.54254,0 c 0.49933,4.57788 1.07197,13.42587 3.59355,13.78152 1.46481,0.2066 7.14994,-0.34534 8.22448,-0.32674 5.85723,0.10136 2.94981,1.19615 -6.09107,7.99013 1.0613,3.08322 -0.31161,-0.25397 2.38245,9.66703 1.70285,6.27082 0.0517,4.55273 -5.59419,0.31606 -5.93207,-4.45143 -1.04739,-1.58244 -2.64974,-1.62899 -4.16873,4.876 -7.76695,8.53654 -8.09204,6.62599 -0.30036,-1.76518 4.94135,-9.64545 2.76785,-12.56816 -6.00075,-8.06924 -7.90619,-6.81427 -11.3077,-13.91041 -1.28623,-1.35808 3.70207,6.00603 3.44922,5.34924 -0.71188,-1.84912 4.83114,0.3328 7.9309,0.24628 2.19315,-0.0612 2.89973,-1.3463 3.13726,-3.70465 0.57493,-5.70794 -0.5145,-0.1783 0.28279,-3.80981 2.22259,-9.62412 1.49307,-6.12909 1.96624,-8.02749 z m 55.55141,0 c -0.11469,4.88085 2.04921,9.72028 3.3153,13.59251 0.72475,2.21661 2.08434,0.98113 5.51058,0.75977 1.83144,-0.11832 5.29054,-0.35738 5.16354,0.30834 -3.33319,2.22816 -8.42637,5.05098 -8.02654,8.60685 1.33411,11.86451 4.75143,14.73818 -6.45913,4.34987 -4.649,4.99174 -5.42119,8.86414 -6.18702,7.87109 -0.51986,-0.67408 0.0317,-3.31143 0.60033,-6.31992 0.31622,-1.67298 2.54604,-4.62688 2.16542,-6.25561 -0.3427,-1.46651 -3.6323,-3.24141 -5.10895,-4.25023 -3.20723,-2.86448 -4.1592,-3.53113 -3.03467,-3.47771 1.44026,0.0685 5.13203,0.68255 7.89913,-0.43181 2.13156,-0.85842 2.34682,-3.69119 2.53437,-7.36797 0.61545,-2.07301 1.01218,-5.31217 1.62764,-7.38518 z m -263.92228,60.51722 c 0.0169,-2.28264 -30.02688,-0.76315 -24.37201,0.0577 1.58001,0.22935 -0.55549,16.51577 -1.08335,24.94779 0.0629,2.9695 -0.26272,6.09117 0.80354,6.11512 7.28451,0.16366 4.5691,0.61808 13.20819,0.25496 7.45991,-0.31355 11.05617,1.33594 11.13275,0.34821 0.35097,-4.52648 -0.592,-6.38421 0.23552,-16.04122 l -0.086,-13.13724 z m 8.50029,-1.54374 v 32.16736 h 23.4805 v -32.16736 z m 99.0763,13.78601 c 6.37443,10.07358 10.90149,24.30644 19.18293,30.97899 70.91239,0.96752 141.84012,0.15432 212.7585,0.42248 -5.78638,-9.02906 -8.43858,-16.55104 -17.39848,-30.98401 -71.50333,-0.9632 -143.03245,-0.14732 -214.54295,-0.41746 z m -131.71993,61.27115 h 24.05322 c -0.14007,-10.31648 0.57479,-20.08811 0.72324,-31.23087 -7.49612,-1.43446 -16.32944,-0.89894 -23.85835,-0.14932 -1.55596,10.33894 -0.70367,20.90728 -0.91827,31.38019 m 32.64362,-32.16736 v 32.16736 h 24.05316 c -0.19086,-10.72246 -0.38179,-21.4449 -0.57266,-32.16736 z m 131.14716,28.33792 c 6.01415,10.20362 10.16476,24.44183 18.037,31.44285 114.95533,1.65379 141.84234,0.26851 212.7592,0.7245 -6.25012,-10.17051 -12.0641,-21.71035 -18.61652,-31.74825 -70.71663,-0.96235 -141.45632,-0.15121 -212.17973,-0.4191"
           id="path1"
           sodipodi:nodetypes="ccscccsccccccccccccccccscsccscccscssscscsscccscsscccccscscscsccssscsscscscsscscsccsscccscssccssssscccssscssscsscccsscsscscsscccscscsscsccsscsscsscssscccsscscssscsscccscssscccccccccccccccccccccccccccc"
           inkscape:highlight-color="#a07645"
           inkscape:label="brand_logo_updated"
           transform="matrix(0.23141248,0,0,0.10860415,6.1236288,-12.566481)" />
        <path
           style="mix-blend-mode:darken;fill:#a86e26;fill-opacity:1;stroke:#0c0906;stroke-width:1.02724;stroke-dasharray:none;stroke-dashoffset:0;stroke-opacity:0.943838;filter:url(#filter15)"
           d="m 184.83852,252.36452 c 1.59091,3.75799 -2.138,6.99941 -0.30028,10.50249 22.80789,43.47679 28.23696,55.66917 61.38753,115.3558 4.89395,8.61888 2.96398,1.76175 7.05145,-0.38769 0.75613,-0.27585 -4.3864,-5.43087 -3.88877,-4.83669 1.98702,1.51576 4.95772,3.25383 3.38755,5.58606 -1.10332,1.6388 -2.11107,4.23672 -2.78435,4.44367 -6.01141,1.84776 26.73018,2.86431 58.967,2.58025 75.76351,2.178 60.45576,0.5011 82.71917,0.0769 67.31987,-1.28274 85.66151,-0.0612 78.09015,-7.71503 -19.62694,-39.79453 -37.30731,-62.57697 -64.83017,-122.67086 -1.66285,-4.26029 -1.04332,-3.26233 -2.65884,-3.32962 -7.39002,-0.30784 -11.3292,0.46181 -19.79793,0.39448 -9.38359,3.46583 -130.84518,0.044 -197.34251,0 M 116.11511,337.378 v -46.71904 c -7.9046,0.33709 -15.89262,-0.93075 -23.707662,1.12815 -0.716345,29.74188 0.02277,59.5047 -0.682662,89.24677 -23.230438,43.01517 -46.874569,85.64242 -70.10434,128.66942 2.201106,1.71217 2.673289,-5.80834 -2.14726,3.67135 -0.56876,1.11848 4.241267,0.6134 12.026001,0.46303 3.276015,-0.0633 3.203875,-0.10557 12.184315,0.0776 0.495055,0.0101 1.745225,-4.04505 3.040593,-6.13186 39.129886,-69.7207 77.599625,-140.12391 116.352005,-210.23144 40.84391,69.52686 79.75131,144.16081 120.58556,213.6858 0.023,1.37648 0.3521,0.25656 1.0751,1.30083 0.39898,0.57626 -1.55676,-1.30973 1.01359,2.71656 1.48073,2.31946 -0.0759,0.65813 22.96661,-1.3956 2.27839,-0.20306 -4.33732,-5.91018 -2.28688,-4.1563 -26.21578,-51.24588 -55.72715,-99.49814 -82.5028,-150.25139 -19.42661,-34.28665 -41.04159,-69.14781 -60.27183,-103.58661 -14.27994,23.86389 -19.71248,35.60971 -38.33226,66.7449 -2.93904,5.06704 -5.98803,10.02128 -9.20808,14.768 m 99.64895,-81.9501 c 1.12436,5.27857 1.82293,11.74942 3.65145,14.0999 2.75581,3.54246 8.57649,-2.35755 8.83446,1.27409 -3.80703,0.73923 -5.80009,4.35211 -5.72486,8.04715 0.1454,7.14062 5.02508,15.38526 -1.49336,9.37903 -5.1672,-10.58448 -16.77702,14.09077 -12.04736,-4.40914 0.18872,-1.78365 0.74876,-1.96416 -0.68433,-4.91059 -3.1565,-6.48977 -9.14123,-8.13138 3.78441,-8.19821 3.08222,-1.51711 1.84106,-11.52754 3.67959,-15.28223 z m 44.67021,0 c -0.31586,6.64158 1.61671,9.57781 2.68415,14.93149 1.41977,1.20562 0.40727,-1.84547 9.95637,0.23635 -1.90392,0.3697 -6.58931,4.60529 -7.48574,5.95999 -1.20714,1.82424 1.28026,5.87933 2.60589,7.71891 1.97065,2.73468 3.19713,6.47321 2.40956,6.09404 -7.05091,-3.39467 0.17583,0.33793 -6.75803,-5.64512 -1.33436,-2.73331 -2.33556,-3.63748 -4.15217,-2.87604 -5.218,2.18715 -9.54795,15.69395 -6.03971,1.9714 0.20785,-1.9645 1.91374,-5.37658 0.31845,-6.72036 -2.58662,-2.17881 -7.57048,-3.64586 -8.17927,-4.97737 -0.72332,-1.582 2.0214,-2.22517 8.88675,-2.26068 3.13809,-0.84623 2.22342,-7.27117 5.75375,-14.43261 z m 51.54253,0 c 1.03894,7.82971 2.03999,15.67447 3.74028,15.30954 5.0815,-1.09063 9.06748,0.8431 9.69184,-1.07072 -3.1465,4.68906 -6.25923,7.43243 -6.97369,10.56812 -0.60891,2.67246 2.92864,10.71022 3.32938,12.39969 0.99113,4.17847 -2.04879,-0.78545 -5.59964,-3.72761 -4.58009,-12.52243 -15.29442,12.36254 -10.90704,-3.3168 7.15508,-12.07291 -16.69664,-15.02804 2.55632,-15.18271 4.37083,-1.78269 2.04339,-10.95459 4.16255,-14.97951 z m 55.03077,-2.33229 c 1.79733,7.61635 3.66759,17.62958 5.78464,17.49588 13.31532,-0.84089 9.94343,-1.79099 1.81693,8.16828 5.06011,26.14554 1.46898,11.34932 -5.63004,7.02789 -1.67746,-1.02113 -4.04349,2.13965 -5.91712,3.26772 -7.73237,9.96736 -1.86039,-0.39436 -0.96393,-8.95661 0.24599,-2.34945 -2.31725,-5.55253 -5.17608,-6.07701 -5.51574,-5.19069 -4.59331,-2.61599 2.68475,-3.60362 3.30888,-0.44902 6.617,1.16366 5.42101,-2.59317 0.47772,-1.55712 3.36082,-12.73493 1.97984,-14.72936 z m -121.4634,40.62677 c 0.11906,5.3486 -2.17403,-4.08655 -0.20371,0.008 0.58964,1.22537 3.45241,11.62522 4.50115,13.99743 1.46559,3.31512 6.50591,0.32071 10.01994,-0.21957 -2.03085,3.0999 -5.56841,6.52354 -6.25802,9.46068 -0.24755,1.05439 -2.87596,-2.47122 -1.66437,1.52947 6.03716,19.93482 3.7551,14.21473 -5.27559,4.6962 -9.27215,8.55805 -10.20083,9.54932 -6.66121,-2.75282 0.61939,-2.15274 -0.72783,-2.512 -0.69916,-5.38076 -11.35307,-7.21196 -2.26046,-3.26451 2.68463,-7.0073 1.21247,-0.91768 3.17517,-12.37876 3.07213,-13.75606 0.89031,-2.76705 -0.40609,2.19163 0.48421,-0.57541 z m 44.67027,0 c 1.48855,8.07626 1.62332,11.84556 4.33517,14.09331 2.12921,1.76481 7.00566,0.15033 9.98215,-0.30731 -2.99853,4.52128 -8.07283,6.15284 -7.31059,10.00597 3.54181,17.90377 3.11273,15.59713 -6.43408,5.53461 -10.68194,12.25886 -11.07576,13.834 -5.939,-5.36398 -4.97819,-3.11707 -9.15623,-6.66471 -9.21174,-7.72362 -0.0768,-1.46482 4.75355,-0.79824 9.41273,-1.0938 1.66555,-0.10565 0.5033,1.84439 1.83837,-0.43026 0.89031,-2.76705 2.43668,-11.94788 3.32699,-14.71492 z m 51.54254,0 c 0.23864,3.31162 0.84336,5.93084 1.7369,7.96742 0.89364,2.03682 1.20148,5.24009 2.59562,6.22124 3.12126,0.11466 6.77743,-0.31942 9.98484,-0.40266 2.43608,-0.0633 -3.97255,5.25563 -5.22827,6.94681 -1.47544,1.98709 -2.4443,1.04246 -2.63767,3.52445 2.4768,5.17566 4.76301,15.66473 2.70201,15.06799 -1.86206,-3.63245 -5.75753,-10.97378 -8.18498,-8.96043 -12.72561,10.5547 -10.07334,11.0264 -9.72406,8.02732 0.14796,-1.27042 0.90739,-3.21048 1.71197,-5.85097 0.60767,-1.99422 4.7511,-7.64885 1.55428,-9.09402 -2.88927,-1.30614 -8.33359,-5.6865 -8.69495,-7.16837 -0.45648,-1.87195 9.42189,1.11195 10.45123,-1.48367 2.03592,-2.80467 1.93875,-11.03366 3.73308,-14.79511 z m 56.12406,0 c 0.77862,4.72636 1.71842,10.68359 2.93217,14.47564 0.52844,1.65094 6.24999,-0.34696 7.76022,-0.52624 4.69338,-0.55717 -4.00008,5.48518 -4.80749,7.50496 -1.87858,4.6994 0.56393,3.41406 2.15248,13.00027 -0.70748,-1.83351 -2.96324,-2.6314 -3.74185,-3.62735 -3.27022,-4.18318 -2.88063,-3.01875 -4.14694,-4.31172 -1.23031,-1.25622 -3.28784,3.15475 -4.73404,5.31048 -2.15001,3.20482 -3.47817,4.77682 -3.00659,2.42468 1.08059,-9.21754 2.24285,-8.89905 1.71094,-10.41743 -1.21311,-3.46295 -5.56427,-6.5009 -6.21304,-7.79721 -0.49794,-0.99492 1.4996,-0.66439 6.86258,-0.52985 3.9852,-0.0709 3.06944,-11.88343 5.23156,-15.50623 z m -125.99291,38.29446 c 0.28573,3.16339 2.33163,10.13834 3.57773,11.88756 3.04994,4.28137 13.07002,0.14722 10.35733,3.43943 -0.47533,0.57688 -2.8858,2.11404 -8.20804,6.11792 0.40851,1.20275 0.76796,2.30652 1.07828,3.31404 1.4654,4.75769 3.58455,13.19963 2.30331,12.92991 -1.13906,-0.23979 -4.74763,-5.82822 -9.10861,-10.11685 -8.7681,11.54325 -9.14979,13.3315 -6.35289,-2.88729 0.23532,-1.36458 -3.01368,-2.69921 -3.39843,-4.16708 -6.03778,-5.54491 -6.21498,-5.06432 -3.93159,-4.81433 1.34838,0.14762 4.05045,0.31649 7.99146,-0.66158 2.20853,-0.54812 3.10509,-2.39485 3.46524,-6.11021 0.74207,-2.97717 1.48415,-5.95434 2.22621,-8.93152 z m 44.67026,0 c 4.33564,14.96327 0.9233,13.61454 3.90478,13.64059 15.38433,0.13445 12.09654,0.075 1.82213,7.80432 1.4539,6.5341 4.41222,14.95756 3.7229,16.08487 -0.78328,1.28098 -4.87428,-5.45802 -9.44981,-9.95777 -9.22693,11.95272 -10.46994,18.74949 -6.24183,-1.32193 0.34394,-1.63275 1.82242,-2.9502 0.80364,-4.46544 -1.62447,-2.41608 -6.56253,-4.88535 -9.64453,-6.54095 9.27828,0.40519 7.0905,0.14494 11.49114,-0.71325 2.39909,-0.46786 1.34509,-18.05737 3.59158,-14.53044 z m 51.54254,0 c 0.49933,4.57788 1.07197,13.42587 3.59355,13.78152 1.46481,0.2066 7.14994,-0.34534 8.22448,-0.32674 5.85723,0.10136 2.94981,1.19615 -6.09107,7.99013 1.0613,3.08322 -0.31161,-0.25397 2.38245,9.66703 1.70285,6.27082 0.0517,4.55273 -5.59419,0.31606 -5.93207,-4.45143 -1.04739,-1.58244 -2.64974,-1.62899 -4.16873,4.876 -7.76695,8.53654 -8.09204,6.62599 -0.30036,-1.76518 4.94135,-9.64545 2.76785,-12.56816 -6.00075,-8.06924 -7.90619,-6.81427 -11.3077,-13.91041 -1.28623,-1.35808 3.70207,6.00603 3.44922,5.34924 -0.71188,-1.84912 4.83114,0.3328 7.9309,0.24628 2.19315,-0.0612 2.89973,-1.3463 3.13726,-3.70465 0.57493,-5.70794 -0.5145,-0.1783 0.28279,-3.80981 2.22259,-9.62412 1.49307,-6.12909 1.96624,-8.02749 z m 55.55141,0 c -0.11469,4.88085 2.04921,9.72028 3.3153,13.59251 0.72475,2.21661 2.08434,0.98113 5.51058,0.75977 1.83144,-0.11832 5.29054,-0.35738 5.16354,0.30834 -3.33319,2.22816 -8.42637,5.05098 -8.02654,8.60685 1.33411,11.86451 4.75143,14.73818 -6.45913,4.34987 -4.649,4.99174 -5.42119,8.86414 -6.18702,7.87109 -0.51986,-0.67408 0.0317,-3.31143 0.60033,-6.31992 0.31622,-1.67298 2.54604,-4.62688 2.16542,-6.25561 -0.3427,-1.46651 -3.6323,-3.24141 -5.10895,-4.25023 -3.20723,-2.86448 -4.1592,-3.53113 -3.03467,-3.47771 1.44026,0.0685 5.13203,0.68255 7.89913,-0.43181 2.13156,-0.85842 2.34682,-3.69119 2.53437,-7.36797 0.61545,-2.07301 1.01218,-5.31217 1.62764,-7.38518 z m -264.0124,60.90615 c -24.08421,0.15909 -21.06086,0.0765 -24.28189,-0.33124 0,0 -0.10488,2.38478 -0.54262,24.94779 0.0629,2.9695 -0.80345,6.09117 0.26281,6.11512 7.28451,0.16366 4.5691,0.61808 13.20819,0.25496 7.45991,-0.31355 11.13416,1.34206 11.13275,0.34821 -0.01,-6.7304 -0.0513,-6.64349 0.23552,-16.04122 l -0.086,-13.13724 z m 8.59041,-1.93267 v 32.16736 h 23.4805 v -32.16736 z m 99.70716,13.33226 c -0.70676,-0.26216 -0.61662,0.0191 -0.58129,5.71013 0.0178,2.86128 4.30338,8.95482 19.28571,33.68309 0.73818,1.21837 1.03724,-2.84816 0.92912,-8.47905 0.51291,10.32895 -1.88423,6.84781 -0.42124,8.54979 0.33114,0.38523 -0.65944,0.0748 -0.057,0.0911 23.81144,0.64246 90.7709,-0.5073 90.93975,-0.50444 36.10687,0.61262 62.1367,-0.30121 80.26919,-0.40177 20.13452,-0.11166 16.01764,0.35677 36.69614,0.3156 8.41974,-0.0168 5.60231,0.80933 5.64907,-0.13638 0.13467,-2.72355 -0.13919,-2.6865 -0.41362,-6.57039 -0.0236,-0.33354 -0.74268,-0.18147 -0.9853,-0.40244 -5.78638,-9.02906 -8.43858,-16.55104 -17.39848,-30.98401 -71.50333,-0.9632 -142.40159,-0.60107 -213.91209,-0.87121 z m -132.35079,61.7249 h 24.05322 c -0.14007,-10.31648 0.57479,-20.08811 0.72324,-31.23087 -7.13598,-0.9164 -16.24607,-0.77901 -23.85835,-0.14932 -1.55596,10.33894 -0.70367,20.90728 -0.91827,31.38019 m 32.64362,-32.16736 v 32.16736 h 24.05316 c -0.19086,-10.72246 -0.38179,-21.4449 -0.57266,-32.16736 z m 132.26237,29.02545 c -0.42237,4.0795 -0.2873,3.58319 -0.86923,7.70558 -0.15787,1.11834 1.08886,2.35561 2.04786,4.22491 3.01479,5.87645 2.5744,5.11787 6.22619,11.6862 1.11778,2.01049 0.71087,1.52202 5.62613,9.09505 3.89388,5.99937 3.80938,4.76124 3.87135,4.49857 1.69314,-7.1768 0.92633,-2.79198 1.72822,-7.26295 0.17658,2.52651 0.0519,0.90736 -0.86849,7.00214 -0.002,0.0128 0.0176,0.008 0.0268,0.0115 0.134,0.0552 -1.14183,0.86324 -0.89618,0.86775 0.39798,0.007 -0.6024,-0.1899 0.0423,-0.22025 4.68143,-0.22045 16.98994,-1.12725 27.9575,-1.29424 21.04617,-0.32045 46.3721,1.33794 67.39462,1.13787 33.41475,-0.31801 33.45195,0.44112 46.39135,0.38551 34.19727,-0.14695 52.7548,-1.22076 71.47135,-2.04951 0.30163,-0.0134 0.84506,-3.43357 -0.0227,-5.59173 -6.25012,-10.17051 -14.07147,-20.6103 -20.62389,-30.6482 -70.71663,-0.96235 -138.77983,-0.0137 -209.50324,-0.28159"
           id="path5"
           sodipodi:nodetypes="cssscsscsccscccccccssscccsssccccccscsccscccscssscscsscccscsscccccscscscsccssscsscscscsscscsccsscccscssccssssscccssscssscsscccsscsscscsscccscscsscsccsscsscsscssscccsscscssscsscccscssscccccccccsscsssssssccccccccccccccssssscsssssssscccc"
           inkscape:highlight-color="#a07645"
           inkscape:label="brand_logo_updated"
           transform="matrix(0.23141248,0,0,0.10860415,5.8997747,-12.511603)" />
      </g>
      <text
         xml:space="preserve"
         style="font-style:normal;font-variant:normal;font-weight:bold;font-stretch:normal;font-size:13.82523036px;font-family:Cambria;-inkscape-font-specification:'Cambria, Bold';font-variant-ligatures:normal;font-variant-caps:normal;font-variant-numeric:normal;font-variant-east-asian:normal;text-align:start;letter-spacing:0.0475021px;writing-mode:lr-tb;direction:ltr;text-anchor:start;white-space:pre;inline-size:199.631;display:inline;mix-blend-mode:saturation;fill:#b7780b;fill-opacity:1;stroke:#84531f;stroke-width:0.386002;stroke-linejoin:bevel;stroke-dasharray:none;stroke-opacity:0.943838"
         x="135.44356"
         y="39.27784"
         id="text18"
         transform="matrix(2.8578303,0,0,2.7961479,-145.08937,-63.104668)"
         inkscape:transform-center-x="-1.3966623"
         inkscape:transform-center-y="7.1939538"><tspan
           x="135.44356"
           y="39.27784"
           id="tspan3"><tspan
             style="fill:#fdfdfd"
             id="tspan1">Properties 4 Creations </tspan></tspan></text>
    </g>
  </g>
</svg>
